SplineFontDB: 3.2
FontName: SeriousShannsItalic
FullName: Serious Shanns Italic
FamilyName: Serious Shanns
Weight: Book
Copyright: https://github.com/kaBeech/serious-shanns/blob/main/LICENSE
Version: 6.0.0
ItalicAngle: -12.7
UnderlinePosition: 0
UnderlineWidth: 0
Ascent: 800
Descent: 200
InvalidEm: 0
sfntRevision: 0x00003333
LayerCount: 2
Layer: 0 0 "Back" 1
Layer: 1 0 "Fore" 0
XUID: [1021 45 630387186 1984481]
StyleMap: 0x0040
FSType: 0
OS2Version: 3
OS2_WeightWidthSlopeOnly: 0
OS2_UseTypoMetrics: 0
CreationTime: 1532631502
ModificationTime: 315532800
PfmFamily: 49
TTFWeight: 400
TTFWidth: 5
LineGap: 0
VLineGap: 0
Panose: 0 0 0 0 0 0 0 0 0 0
OS2TypoAscent: 613
OS2TypoAOffset: 0
OS2TypoDescent: -188
OS2TypoDOffset: 0
OS2TypoLinegap: 98
OS2WinAscent: 778
OS2WinAOffset: 0
OS2WinDescent: 308
OS2WinDOffset: 0
HheadAscent: 796
HheadAOffset: 0
HheadDescent: -317
HheadDOffset: 0
OS2SubXSize: 317
OS2SubYSize: 293
OS2SubXOff: 0
OS2SubYOff: 37
OS2SupXSize: 317
OS2SupYSize: 293
OS2SupXOff: 0
OS2SupYOff: 171
OS2StrikeYSize: 0
OS2StrikeYPos: 132
OS2CapHeight: 576
OS2XHeight: 485
OS2Vendor: 'NONE'
OS2CodePages: 00000001.00000000
OS2UnicodeRanges: 00000001.00000000.00000000.00000000
MarkAttachClasses: 1
DEI: 91125
LangName: 1033 "" "" "Normal" "" "" "Version 0.2.0"
Encoding: UnicodeBmp
Compacted: 1
UnicodeInterp: none
NameList: AGL For New Fonts
DisplaySize: -48
AntiAlias: 1
FitToEm: 0
WinInfo: 0 16 9
BeginPrivate: 8
BlueValues 32 [-40 -6 497 511 708 718 765 769]
OtherBlues 11 [-298 -287]
BlueScale 9 0.0291667
BlueShift 1 2
StdHW 4 [86]
StdVW 4 [58]
StemSnapH 19 [82 85 86 89 90 94]
StemSnapV 7 [58 68]
EndPrivate
BeginChars: 65537 125

StartChar: .notdef
Encoding: 65536 -1 0
Width: 570
VWidth: 886
GlyphClass: 1
Flags: W
HStem: -191.725 45.8994<122.874 376.174> 626.825 45.8994<301.374 554.674>
LayerCount: 2
Fore
SplineSet
70.173828125 -191.724609375 m 1
 269.07421875 672.724609375 l 1
 608.224609375 672.724609375 l 1
 408.474609375 -191.724609375 l 1
 70.173828125 -191.724609375 l 1
122.874023438 -145.825195312 m 1
 376.173828125 -145.825195312 l 1
 554.673828125 626.825195312 l 1
 301.374023438 626.825195312 l 1
 122.874023438 -145.825195312 l 1
EndSplineSet
Validated: 524289
EndChar

StartChar: exclam
Encoding: 33 33 12
Width: 570
VWidth: 907
GlyphClass: 2
Flags: HMW
HStem: 37.0116 130.047
VStem: 244.203 128.35
LayerCount: 2
Fore
SplineSet
488.15625 684.712890625 m 0
 487.0234375 679.612304688 477.38671875 642.353515625 459.25390625 572.936523438 c 0
 441.120117188 503.51953125 427.520507812 446.995117188 418.453125 403.361328125 c 0
 409.38671875 360.861328125 403.436523438 335.50390625 400.603515625 327.286132812 c 0
 397.770507812 319.069335938 394.370117188 305.89453125 390.403320312 287.76171875 c 0
 386.436523438 275.294921875 379.63671875 265.51953125 370.00390625 258.436523438 c 0
 361.083984375 251.877929688 351.6796875 248.599609375 341.788085938 248.599609375 c 0
 340.99609375 248.599609375 340.201171875 248.620117188 339.403320312 248.662109375 c 0
 328.63671875 248.662109375 320.703125 252.345703125 315.603515625 259.712890625 c 0
 312.903320312 263.612304688 311.553710938 268.465820312 311.553710938 274.271484375 c 0
 311.553710938 279.432617188 312.620117188 285.345703125 314.75390625 292.013671875 c 0
 317.586914062 300.513671875 320.561523438 308.73046875 323.678710938 316.663085938 c 0
 326.795898438 324.596679688 329.203125 331.25390625 330.903320312 336.637695312 c 0
 332.603515625 342.020507812 335.861328125 354.770507812 340.678710938 374.887695312 c 0
 345.495117188 395.00390625 351.020507812 420.9296875 357.25390625 452.662109375 c 0
 361.220703125 474.762695312 366.037109375 498.137695312 371.704101562 522.787109375 c 0
 377.37109375 547.4375 382.329101562 567.979492188 386.579101562 584.412109375 c 0
 390.829101562 600.845703125 395.646484375 619.545898438 401.029296875 640.512695312 c 0
 406.412109375 661.479492188 409.954101562 675.362304688 411.654296875 682.162109375 c 0
 415.62109375 697.462890625 422.138671875 709.079101562 431.205078125 717.012695312 c 0
 440.272460938 724.9453125 450.189453125 728.912109375 460.956054688 728.912109375 c 0
 461.766601562 728.953125 462.559570312 728.97265625 463.337890625 728.97265625 c 0
 473.448242188 728.97265625 480.870117188 725.552734375 485.606445312 718.712890625 c 0
 488.666015625 714.291992188 490.196289062 708.444335938 490.196289062 701.168945312 c 0
 490.196289062 696.317382812 489.515625 690.833007812 488.15625 684.712890625 c 0
294.352539062 37.01171875 m 0
 291.517578125 36.6875 288.793945312 36.5263671875 286.178710938 36.5263671875 c 0
 270.5 36.5263671875 258.775390625 42.3525390625 251.00390625 54.0078125 c 0
 244.959960938 63.0751953125 241.9375 73.4013671875 241.9375 84.986328125 c 0
 241.9375 90.779296875 242.692382812 96.8857421875 244.203125 103.30859375 c 0
 248.170898438 120.30859375 258.370117188 135.041015625 274.803710938 147.5078125 c 0
 291.236328125 159.975585938 307.953125 166.4921875 324.953125 167.059570312 c 0
 325.78515625 167.083984375 326.606445312 167.09765625 327.41796875 167.09765625 c 0
 344.852539062 167.09765625 357.630859375 161.276367188 365.75390625 149.634765625 c 0
 371.548828125 141.328125 374.447265625 131.638671875 374.447265625 120.56640625 c 0
 374.447265625 115.399414062 373.81640625 109.930664062 372.553710938 104.161132812 c 0
 368.586914062 86.02734375 359.51953125 70.8701171875 345.352539062 58.6865234375 c 0
 331.185546875 46.50390625 314.185546875 39.2783203125 294.352539062 37.01171875 c 0
EndSplineSet
Validated: 524289
EndChar

StartChar: quotedbl
Encoding: 34 34 13
Width: 570
VWidth: 941
GlyphClass: 2
Flags: HMW
VStem: 292.266 260.102
LayerCount: 2
Fore
SplineSet
425.71875 718.748046875 m 0
 420.619140625 695.514648438 411.409179688 657.403320312 398.092773438 604.419921875 c 0
 384.775390625 551.4375 374.717773438 515.029296875 367.91796875 495.196289062 c 0
 363.950195312 483.86328125 357.43359375 475.36328125 348.366210938 469.696289062 c 0
 340.124023438 464.544921875 332.116210938 461.96875 324.342773438 461.96875 c 0
 323.564453125 461.96875 322.7890625 461.995117188 322.016601562 462.045898438 c 0
 311.25 462.61328125 302.607421875 466.155273438 296.090820312 472.671875 c 0
 292.040039062 476.72265625 290.014648438 481.813476562 290.014648438 487.944335938 c 0
 290.014648438 491.676757812 290.764648438 495.793945312 292.265625 500.296875 c 0
 300.765625 529.197265625 309.973632812 566.313476562 319.890625 611.646484375 c 0
 329.807617188 656.98046875 337.599609375 694.379882812 343.266601562 723.846679688 c 0
 344.399414062 730.646484375 346.950195312 736.455078125 350.916992188 741.271484375 c 0
 354.883789062 746.088867188 359.416992188 749.630859375 364.516601562 751.897460938 c 0
 369.616210938 754.165039062 374.716796875 755.72265625 379.81640625 756.573242188 c 0
 384.916992188 757.422851562 390.016601562 757.564453125 395.116210938 756.998046875 c 0
 399.649414062 756.998046875 403.899414062 756.430664062 407.866210938 755.297851562 c 0
 411.833984375 754.165039062 415.375976562 752.323242188 418.4921875 749.772460938 c 0
 421.609375 747.22265625 423.875976562 743.255859375 425.29296875 737.873046875 c 0
 426.709960938 732.489257812 426.852539062 726.114257812 425.71875 718.748046875 c 0
552.3671875 718.744140625 m 0
 547.833984375 695.51171875 538.911132812 657.400390625 525.59375 604.416992188 c 0
 512.27734375 551.43359375 501.935546875 515.025390625 494.568359375 495.192382812 c 0
 490.6015625 483.859375 484.083984375 475.359375 475.017578125 469.692382812 c 0
 466.774414062 464.541015625 458.766601562 461.965820312 450.993164062 461.965820312 c 0
 450.215820312 461.965820312 449.440429688 461.991210938 448.66796875 462.04296875 c 0
 438.467773438 462.609375 429.967773438 466.151367188 423.16796875 472.668945312 c 0
 419.087890625 476.579101562 417.046875 481.45703125 417.046875 487.305664062 c 0
 417.046875 491.204101562 417.955078125 495.534179688 419.767578125 500.293945312 c 0
 428.267578125 529.193359375 437.333984375 566.310546875 446.967773438 611.643554688 c 0
 456.600585938 656.9765625 464.250976562 694.376953125 469.91796875 723.84375 c 0
 471.05078125 730.643554688 473.600585938 736.452148438 477.567382812 741.268554688 c 0
 481.534179688 746.0859375 486.208984375 749.627929688 491.592773438 751.89453125 c 0
 496.975585938 754.161132812 502.075195312 755.719726562 506.892578125 756.569335938 c 0
 511.708984375 757.419921875 516.66796875 757.561523438 521.767578125 756.994140625 c 0
 526.8671875 756.994140625 531.259765625 756.427734375 534.942382812 755.294921875 c 0
 538.625976562 754.161132812 542.16796875 752.319335938 545.567382812 749.76953125 c 0
 548.967773438 747.219726562 551.375976562 743.252929688 552.79296875 737.869140625 c 0
 554.208984375 732.486328125 554.067382812 726.111328125 552.3671875 718.744140625 c 0
EndSplineSet
Validated: 524289
EndChar

StartChar: numbersign
Encoding: 35 35 14
Width: 570
VWidth: 904
GlyphClass: 2
Flags: HMW
HStem: 217.396 69.7<469.861 486.011 441.811 502.161> 432.446 71.4<356.805 475.81 385.71 447.755 385.71 554.861 385.71 525.961>
LayerCount: 2
Fore
SplineSet
213.161132812 89.8955078125 m 0
 206.361328125 77.99609375 196.438476562 68.220703125 183.405273438 60.5703125 c 0
 174.3828125 55.2744140625 166.310546875 52.626953125 159.188476562 52.626953125 c 0
 156.0234375 52.626953125 153.045898438 53.1494140625 150.255859375 54.1953125 c 0
 141.188476562 56.462890625 135.6640625 63.6875 133.680664062 75.87109375 c 0
 133.259765625 78.455078125 133.049804688 81.095703125 133.049804688 83.794921875 c 0
 133.049804688 93.8193359375 135.952148438 104.63671875 141.756835938 116.245117188 c 0
 149.689453125 131.544921875 164.706054688 164.412109375 186.806640625 214.844726562 c 1
 163.006835938 214.844726562 l 2
 149.973632812 214.844726562 140.623046875 217.677734375 134.956054688 223.344726562 c 0
 129.290039062 229.01171875 127.58984375 236.662109375 129.856445312 246.294921875 c 0
 131.556640625 256.495117188 136.373046875 264.995117188 144.306640625 271.794921875 c 0
 152.239257812 278.594726562 163.006835938 282.561523438 176.606445312 283.6953125 c 0
 180.573242188 283.6953125 186.948242188 283.836914062 195.731445312 284.120117188 c 0
 204.514648438 284.403320312 211.172851562 284.544921875 215.706054688 284.544921875 c 1
 276.905273438 431.594726562 l 1
 272.373046875 431.594726562 266.422851562 431.453125 259.055664062 431.169921875 c 0
 251.688476562 430.88671875 246.588867188 430.745117188 243.755859375 430.745117188 c 0
 242.711914062 430.69921875 241.693359375 430.676757812 240.700195312 430.676757812 c 0
 229.2734375 430.676757812 221.083984375 433.673828125 216.131835938 439.669921875 c 0
 210.748046875 446.186523438 209.190429688 454.26171875 211.45703125 463.89453125 c 0
 213.157226562 474.094726562 218.115234375 482.737304688 226.33203125 489.8203125 c 0
 234.548828125 496.903320312 245.741210938 500.727539062 259.908203125 501.294921875 c 0
 270.108398438 501.862304688 285.408203125 502.14453125 305.80859375 502.14453125 c 1
 340.94140625 587.711914062 358.791015625 631.912109375 359.358398438 634.745117188 c 0
 366.725585938 648.912109375 375.5078125 658.829101562 385.708007812 664.49609375 c 0
 392.5078125 668.274414062 399.056640625 670.163085938 405.353515625 670.163085938 c 0
 408.500976562 670.163085938 411.5859375 669.69140625 414.608398438 668.74609375 c 0
 425.375 666.479492188 432.7421875 660.8125 436.708984375 651.74609375 c 0
 438.251953125 648.219726562 439.0234375 644.264648438 439.0234375 639.881835938 c 0
 439.0234375 632.994140625 437.119140625 625.048828125 433.309570312 616.045898438 c 2
 385.709960938 503.845703125 l 1
 475.809570312 503.845703125 l 1
 525.109375 627.9453125 l 2
 532.4765625 642.678710938 541.259765625 652.87890625 551.459960938 658.545898438 c 0
 558.259765625 662.32421875 564.934570312 664.212890625 571.483398438 664.212890625 c 0
 574.756835938 664.212890625 577.999023438 663.741210938 581.209960938 662.796875 c 0
 592.54296875 660.529296875 600.193359375 654.862304688 604.16015625 645.795898438 c 0
 605.548828125 642.622070312 606.2421875 639.1015625 606.2421875 635.233398438 c 0
 606.2421875 628.05078125 603.848632812 619.671875 599.059570312 610.095703125 c 0
 587.7265625 586.295898438 573.276367188 551.4453125 555.709960938 505.545898438 c 1
 564.209960938 505.545898438 l 2
 576.676757812 505.545898438 586.452148438 501.720703125 593.53515625 494.0703125 c 0
 599.247070312 487.901367188 602.103515625 481.455078125 602.103515625 474.733398438 c 0
 602.103515625 473.120117188 601.938476562 471.491210938 601.609375 469.845703125 c 0
 599.342773438 459.645507812 594.243164062 451.00390625 586.309570312 443.920898438 c 0
 578.376953125 436.837890625 567.893554688 433.012695312 554.860351562 432.4453125 c 2
 525.9609375 432.4453125 l 1
 469.860351562 287.095703125 l 1
 502.161132812 287.095703125 l 2
 514.627929688 287.095703125 522.419921875 284.12109375 525.536132812 278.170898438 c 0
 528.653320312 272.220703125 529.361328125 264.428710938 527.661132812 254.795898438 c 0
 521.994140625 229.862304688 508.111328125 217.395507812 486.01171875 217.395507812 c 2
 441.811523438 217.395507812 l 1
 416.311523438 152.795898438 398.461914062 109.163085938 388.26171875 86.49609375 c 0
 380.89453125 74.595703125 371.26171875 65.3876953125 359.361328125 58.87109375 c 0
 351.541015625 54.587890625 344.2109375 52.4462890625 337.370117188 52.4462890625 c 0
 333.80078125 52.4462890625 330.364257812 53.0302734375 327.061523438 54.1953125 c 0
 317.994140625 56.462890625 312.186523438 63.12109375 309.63671875 74.1708984375 c 0
 308.98046875 77.01171875 308.653320312 79.95703125 308.653320312 83.0048828125 c 0
 308.653320312 91.80859375 311.388671875 101.471679688 316.861328125 111.99609375 c 0
 327.62890625 134.663085938 342.361328125 169.512695312 361.061523438 216.545898438 c 1
 350.294921875 216.545898438 334.286132812 216.403320312 313.036132812 216.12109375 c 0
 291.786132812 215.837890625 276.344726562 215.6953125 266.711914062 215.6953125 c 1
 241.211914062 154.49609375 223.361328125 112.5625 213.161132812 89.8955078125 c 0
356.805664062 432.4453125 m 1
 296.456054688 287.094726562 l 1
 317.989257812 287.662109375 348.873046875 287.9453125 389.10546875 287.9453125 c 1
 408.373046875 334.412109375 427.922851562 382.579101562 447.755859375 432.4453125 c 1
 356.805664062 432.4453125 l 1
EndSplineSet
Validated: 524289
EndChar

StartChar: dollar
Encoding: 36 36 15
Width: 570
VWidth: 901
GlyphClass: 2
Flags: HMW
HStem: 26.5076 72.2442<242.586 274.035 251.936 274.035> 597.7 67.1517
VStem: 239.186 70.5491 459.762 79.8983
LayerCount: 2
Fore
SplineSet
309.735351562 -32.998046875 m 0
 305.767578125 -45.46484375 298.96875 -55.0927734375 289.3359375 -61.892578125 c 0
 279.703125 -68.6923828125 269.502929688 -72.0927734375 258.735351562 -72.0927734375 c 0
 249.102539062 -72.0927734375 242.5859375 -68.267578125 239.185546875 -60.6171875 c 0
 237.826171875 -57.5576171875 237.145507812 -53.9755859375 237.145507812 -49.8740234375 c 0
 237.145507812 -43.7197265625 238.67578125 -36.392578125 241.735351562 -27.892578125 c 0
 245.703125 -14.2919921875 250.235351562 3.8408203125 255.3359375 26.5078125 c 1
 251.935546875 26.5078125 l 2
 233.235351562 26.5078125 216.235351562 29.0576171875 200.935546875 34.1572265625 c 0
 185.635742188 39.2578125 172.885742188 46.0576171875 162.685546875 54.5576171875 c 0
 152.485351562 63.0576171875 144.268554688 72.125 138.036132812 81.7578125 c 0
 131.802734375 91.390625 126.985351562 101.874023438 123.5859375 113.20703125 c 0
 122.49609375 119.090820312 121.951171875 124.556640625 121.951171875 129.603515625 c 0
 121.951171875 137.677734375 123.345703125 144.678710938 126.135742188 150.606445312 c 0
 130.668945312 160.240234375 137.751953125 167.323242188 147.384765625 171.856445312 c 0
 154.184570312 174.689453125 159.709960938 176.671875 163.959960938 177.8046875 c 0
 168.209960938 178.938476562 172.459960938 179.221679688 176.709960938 178.654296875 c 0
 180.959960938 178.086914062 184.78515625 175.8203125 188.184570312 171.853515625 c 0
 191.584960938 167.88671875 194.985351562 162.219726562 198.384765625 154.852539062 c 0
 205.184570312 137.286132812 214.110351562 123.543945312 225.16015625 113.626953125 c 0
 236.209960938 103.709960938 251.934570312 98.751953125 272.334960938 98.751953125 c 2
 274.03515625 98.751953125 l 1
 297.267578125 193.384765625 317.100585938 277.818359375 333.534179688 352.05078125 c 1
 330.701171875 352.05078125 326.309570312 352.618164062 320.359375 353.750976562 c 0
 314.409179688 354.883789062 309.734375 355.451171875 306.333984375 355.451171875 c 0
 288.201171875 357.717773438 272.333984375 363.100585938 258.734375 371.600585938 c 0
 245.133789062 380.100585938 234.934570312 390.443359375 228.133789062 402.625976562 c 0
 221.333984375 414.80859375 216.80078125 427.55859375 214.534179688 440.875976562 c 0
 213.627929688 446.202148438 213.173828125 451.551757812 213.173828125 456.923828125 c 0
 213.173828125 464.982421875 214.193359375 473.091796875 216.234375 481.250976562 c 0
 220.767578125 501.651367188 228.133789062 521.201171875 238.333984375 539.901367188 c 0
 248.534179688 558.600585938 261.42578125 576.026367188 277.008789062 592.17578125 c 0
 292.591796875 608.326171875 311.434570312 622.208984375 333.534179688 633.826171875 c 0
 355.633789062 645.443359375 379.434570312 653.517578125 404.934570312 658.05078125 c 1
 408.901367188 671.651367188 413.434570312 688.083984375 418.534179688 707.350585938 c 0
 426.466796875 738.517578125 440.633789062 754.100585938 461.034179688 754.100585938 c 0
 461.474609375 754.111328125 461.911132812 754.1171875 462.341796875 754.1171875 c 0
 479.98046875 754.1171875 488.80078125 745.296875 488.80078125 727.657226562 c 0
 488.80078125 722.494140625 488.044921875 716.575195312 486.534179688 709.901367188 c 2
 475.484375 664.8515625 l 1
 487.383789062 664.28515625 503.109375 661.452148438 522.659179688 656.3515625 c 0
 542.208984375 651.251953125 556.517578125 646.434570312 565.583984375 641.901367188 c 0
 574.651367188 637.934570312 580.458984375 631.702148438 583.008789062 623.202148438 c 0
 584.006835938 619.875976562 584.505859375 616.462890625 584.505859375 612.962890625 c 0
 584.505859375 607.51953125 583.298828125 601.865234375 580.883789062 596.001953125 c 0
 578.6171875 589.202148438 575.359375 583.959960938 571.109375 580.276367188 c 0
 566.859375 576.59375 562.184570312 574.327148438 557.083984375 573.4765625 c 0
 551.984375 572.626953125 547.166992188 572.485351562 542.633789062 573.051757812 c 0
 538.100585938 573.619140625 533.850585938 574.46875 529.883789062 575.6015625 c 0
 525.350585938 576.735351562 519.826171875 579.142578125 513.309570312 582.826171875 c 0
 506.791992188 586.508789062 499.284179688 589.767578125 490.784179688 592.600585938 c 0
 482.284179688 595.43359375 471.80078125 597.1328125 459.333984375 597.700195312 c 1
 448.000976562 552.3671875 433.267578125 492.299804688 415.134765625 417.5 c 1
 438.368164062 414.100585938 458.485351562 408.0078125 475.485351562 399.225585938 c 0
 492.485351562 390.442382812 505.376953125 380.383789062 514.16015625 369.05078125 c 0
 522.943359375 357.717773438 529.459960938 344.684570312 533.709960938 329.952148438 c 0
 537.694335938 316.138671875 539.686523438 302.575195312 539.686523438 289.259765625 c 0
 539.686523438 277.947265625 538.346679688 261.924804688 533.28515625 242.401367188 c 0
 527.051757812 216.334960938 517.27734375 191.684570312 503.959960938 168.452148438 c 0
 490.642578125 145.21875 474.634765625 125.1015625 455.934570312 108.1015625 c 0
 437.235351562 91.1015625 416.693359375 76.369140625 394.309570312 63.9013671875 c 0
 371.926757812 51.4345703125 348.551757812 42.0849609375 324.184570312 35.8515625 c 1
 316.251953125 1.8515625 311.434570312 -21.0986328125 309.735351562 -32.998046875 c 0
294.435546875 502.5078125 m 0
 293.302734375 497.326171875 292.735351562 492.331054688 292.735351562 487.51953125 c 0
 292.735351562 475.493164062 296.27734375 464.622070312 303.360351562 454.907226562 c 0
 313.27734375 441.307617188 329.002929688 431.674804688 350.536132812 426.0078125 c 1
 360.168945312 465.107421875 373.202148438 519.5078125 389.634765625 589.208007812 c 1
 365.267578125 581.840820312 344.443359375 570.791015625 327.16015625 556.057617188 c 0
 309.876953125 541.32421875 298.96875 523.474609375 294.435546875 502.5078125 c 0
456.786132812 227.958007812 m 0
 458.80078125 237.529296875 459.80859375 246.4296875 459.80859375 254.658203125 c 0
 459.80859375 265.40625 457.881835938 275.549804688 454.236328125 286.184570312 c 0
 450.836914062 296.1015625 444.178710938 305.309570312 434.26171875 313.809570312 c 0
 424.344726562 322.309570312 411.453125 329.67578125 395.5859375 335.909179688 c 1
 389.352539062 310.9765625 380.286132812 273.434570312 368.385742188 223.284179688 c 0
 356.485351562 173.134765625 347.703125 136.7265625 342.036132812 114.059570312 c 1
 370.369140625 125.392578125 395.161132812 140.975585938 416.411132812 160.80859375 c 0
 437.661132812 180.641601562 451.119140625 203.024414062 456.786132812 227.958007812 c 0
EndSplineSet
Validated: 524289
EndChar

StartChar: percent
Encoding: 37 37 16
Width: 570
VWidth: 899
GlyphClass: 2
Flags: HMW
HStem: 25.2157 64.6 194.366 62.9<437.22 448.27> 416.217 63.75<257.303 296.12> 586.217 62.05<316.236 319.636>
LayerCount: 2
Fore
SplineSet
266.653320312 416.216796875 m 0
 247.953125 416.216796875 232.654296875 421.741210938 220.75390625 432.791992188 c 0
 208.854492188 443.841796875 201.345703125 457.724609375 198.229492188 474.44140625 c 0
 196.958984375 481.252929688 196.32421875 488.275390625 196.32421875 495.509765625 c 0
 196.32421875 506.032226562 197.666992188 517 200.353515625 528.416992188 c 0
 208.286132812 563.55078125 224.01171875 592.30859375 247.528320312 614.69140625 c 0
 271.044921875 637.07421875 299.520507812 648.266601562 332.953125 648.266601562 c 0
 345.986328125 648.266601562 357.603515625 645.858398438 367.803710938 641.041992188 c 0
 378.002929688 636.224609375 386.502929688 629 393.303710938 619.366210938 c 0
 400.103515625 609.733398438 403.928710938 596.55859375 404.778320312 579.841796875 c 0
 404.879882812 577.834960938 404.930664062 575.791015625 404.930664062 573.70703125 c 0
 404.930664062 558.427734375 402.188476562 541.064453125 396.703125 521.616210938 c 0
 387.0703125 487.049804688 371.770507812 460.841796875 350.803710938 442.991210938 c 0
 329.8359375 425.141601562 301.786132812 416.216796875 266.653320312 416.216796875 c 0
113.654296875 65.1669921875 m 0
 130.086914062 89.533203125 168.053710938 140.67578125 227.553710938 218.592773438 c 0
 287.053710938 296.509765625 346.6953125 375.134765625 406.478515625 454.467773438 c 0
 466.26171875 533.80078125 507.203125 590.467773438 529.303710938 624.467773438 c 0
 537.803710938 634.666992188 547.436523438 641.041992188 558.203125 643.592773438 c 0
 561.544921875 644.383789062 564.75 644.779296875 567.819335938 644.779296875 c 0
 574.63671875 644.779296875 580.782226562 642.825195312 586.252929688 638.916992188 c 0
 594.752929688 634.384765625 598.578125 627.7265625 597.728515625 618.943359375 c 0
 596.877929688 610.16015625 591.63671875 599.53515625 582.002929688 587.068359375 c 0
 554.236328125 552.500976562 487.228515625 464.384765625 380.978515625 322.717773438 c 0
 274.728515625 181.05078125 203.752929688 85.283203125 168.053710938 35.4169921875 c 0
 153.407226562 15.330078125 139.688476562 5.287109375 126.896484375 5.287109375 c 0
 122.366210938 5.287109375 117.952148438 6.546875 113.654296875 9.06640625 c 0
 104.303710938 14.4501953125 99.62890625 21.81640625 99.62890625 31.1669921875 c 0
 99.62890625 40.5166015625 104.303710938 51.8505859375 113.654296875 65.1669921875 c 0
289.603515625 479.966796875 m 0
 302.63671875 479.966796875 313.6875 484.499023438 322.75390625 493.565429688 c 0
 331.821289062 502.6328125 338.62109375 514.815429688 343.154296875 530.115234375 c 0
 345.569335938 539.2421875 346.778320312 547.224609375 346.778320312 554.0625 c 0
 346.778320312 561.659179688 345.286132812 567.844726562 342.303710938 572.616210938 c 0
 336.63671875 581.68359375 326.719726562 586.216796875 312.553710938 586.216796875 c 0
 300.0859375 586.216796875 289.178710938 581.258789062 279.828125 571.341796875 c 0
 270.478515625 561.424804688 263.252929688 547.966796875 258.153320312 530.966796875 c 0
 256.168945312 523.032226562 255.178710938 516.020507812 255.178710938 509.928710938 c 0
 255.178710938 503.836914062 256.168945312 498.666992188 258.153320312 494.416992188 c 0
 262.120117188 485.916992188 272.603515625 481.099609375 289.603515625 479.966796875 c 0
388.204101562 25.2158203125 m 0
 369.50390625 25.2158203125 354.203125 30.740234375 342.303710938 41.791015625 c 0
 330.403320312 52.8408203125 322.895507812 66.7236328125 319.778320312 83.4404296875 c 0
 318.5078125 90.251953125 317.873046875 97.2744140625 317.873046875 104.508789062 c 0
 317.873046875 115.03125 319.215820312 126 321.90234375 137.416992188 c 0
 329.8359375 172.549804688 345.560546875 201.307617188 369.077148438 223.690429688 c 0
 392.594726562 246.07421875 420.786132812 257.265625 453.653320312 257.265625 c 0
 466.686523438 257.265625 478.444335938 254.999023438 488.927734375 250.465820312 c 0
 499.41015625 245.932617188 508.052734375 238.708007812 514.852539062 228.791015625 c 0
 521.65234375 218.874023438 525.477539062 205.556640625 526.327148438 188.83984375 c 0
 526.421875 186.982421875 526.469726562 185.091796875 526.469726562 183.16796875 c 0
 526.469726562 167.776367188 523.447265625 150.259765625 517.40234375 130.615234375 c 0
 507.76953125 96.0478515625 492.611328125 69.6982421875 471.928710938 51.564453125 c 0
 451.872070312 33.9814453125 425.0234375 25.1904296875 391.379882812 25.1904296875 c 0
 390.327148438 25.1904296875 389.26953125 25.1982421875 388.204101562 25.2158203125 c 0
411.153320312 89.8154296875 m 0
 411.866210938 89.783203125 412.572265625 89.7666015625 413.275390625 89.7666015625 c 0
 424.845703125 89.7666015625 434.905273438 94.1748046875 443.454101562 102.990234375 c 0
 452.521484375 112.340820312 459.321289062 124.3828125 463.854492188 139.115234375 c 0
 466.193359375 148.060546875 467.36328125 155.919921875 467.36328125 162.692382812 c 0
 467.36328125 183.807617188 455.993164062 194.365234375 433.25390625 194.365234375 c 0
 420.787109375 194.365234375 410.020507812 189.407226562 400.953125 179.490234375 c 0
 391.88671875 169.57421875 384.803710938 156.3984375 379.703125 139.965820312 c 0
 377.788085938 132.580078125 376.830078125 125.953125 376.830078125 120.084960938 c 0
 376.830078125 113.797851562 377.930664062 108.383789062 380.127929688 103.840820312 c 0
 384.377929688 95.0576171875 394.719726562 90.3828125 411.153320312 89.8154296875 c 0
EndSplineSet
Validated: 524289
EndChar

StartChar: ampersand
Encoding: 38 38 17
Width: 570
VWidth: 901
GlyphClass: 2
Flags: HMW
HStem: 15.4519 79.8983<227.723 264.838> 599.401 67.15<418.689 418.972>
VStem: 412.458 76.4975 486.405 70.975<303.6 303.6>
LayerCount: 2
Fore
SplineSet
467.705078125 21.400390625 m 0xe0
 462.165039062 18.3525390625 456.7265625 16.830078125 451.389648438 16.830078125 c 0
 445.810546875 16.830078125 440.340820312 18.49609375 434.982421875 21.8271484375 c 0
 424.499023438 28.34375 416.991210938 39.5361328125 412.458007812 55.40234375 c 0xe0
 411.890625 58.2353515625 410.616210938 66.7353515625 408.6328125 80.90234375 c 0
 406.649414062 95.0693359375 404.807617188 105.26953125 403.107421875 111.502929688 c 1
 401.408203125 109.235351562 397.158203125 104.418945312 390.357421875 97.0517578125 c 0
 383.557617188 89.6845703125 378.458007812 84.3017578125 375.057617188 80.90234375 c 0
 371.658203125 77.501953125 366.1328125 72.40234375 358.482421875 65.6015625 c 0
 350.833007812 58.8017578125 344.458007812 53.5595703125 339.357421875 49.876953125 c 0
 334.2578125 46.193359375 327.599609375 41.8017578125 319.3828125 36.7021484375 c 0
 311.166015625 31.6015625 303.374023438 27.77734375 296.006835938 25.2265625 c 0
 288.639648438 22.6767578125 280.282226562 20.41015625 270.931640625 18.4267578125 c 0
 261.58203125 16.443359375 252.08984375 15.4521484375 242.45703125 15.4521484375 c 0
 212.990234375 15.4521484375 187.7734375 23.6689453125 166.805664062 40.1015625 c 0
 145.838867188 56.53515625 131.671875 78.068359375 124.305664062 104.701171875 c 0
 120.474609375 118.549804688 118.559570312 133.012695312 118.559570312 148.086914062 c 0
 118.559570312 162.002929688 120.19140625 176.440429688 123.455078125 191.401367188 c 0
 147.822265625 298.500976562 205.905273438 371.318359375 297.705078125 409.850585938 c 1
 294.872070312 418.350585938 291.330078125 428.55078125 287.080078125 440.451171875 c 0
 282.830078125 452.350585938 279.85546875 460.708984375 278.155273438 465.526367188 c 0
 276.455078125 470.342773438 274.61328125 476.576171875 272.629882812 484.225585938 c 0
 270.647460938 491.875976562 269.655273438 498.534179688 269.655273438 504.201171875 c 0
 269.655273438 509.868164062 270.080078125 516.809570312 270.930664062 525.02734375 c 0
 271.780273438 533.244140625 273.337890625 542.168945312 275.60546875 551.801757812 c 0
 277.872070312 562.001953125 281.4140625 572.059570312 286.231445312 581.9765625 c 0
 291.047851562 591.893554688 297.706054688 602.09375 306.206054688 612.577148438 c 0
 314.706054688 623.059570312 324.481445312 632.267578125 335.53125 640.201171875 c 0
 346.581054688 648.133789062 360.180664062 654.508789062 376.331054688 659.326171875 c 0
 392.481445312 664.142578125 409.623046875 666.55078125 427.755859375 666.55078125 c 0
 443.055664062 666.55078125 457.505859375 664.000976562 471.106445312 658.901367188 c 0
 484.706054688 653.80078125 496.463867188 646.29296875 506.380859375 636.375976562 c 0
 516.297851562 626.458984375 522.956054688 613.42578125 526.356445312 597.276367188 c 0
 527.8125 590.354492188 528.541992188 583.094726562 528.541992188 575.497070312 c 0
 528.541992188 565.3671875 527.247070312 554.633789062 524.65625 543.30078125 c 0
 520.689453125 525.16796875 514.59765625 508.309570312 506.379882812 492.7265625 c 0
 498.163085938 477.143554688 489.663085938 464.110351562 480.879882812 453.627929688 c 0
 472.09765625 443.14453125 461.47265625 433.086914062 449.004882812 423.453125 c 0
 436.538085938 413.8203125 425.48828125 406.170898438 415.85546875 400.50390625 c 0
 406.22265625 394.836914062 395.171875 389.169921875 382.705078125 383.502929688 c 1
 388.372070312 365.935546875 398.572265625 339.869140625 413.305664062 305.301757812 c 0
 428.038085938 270.735351562 437.388671875 247.78515625 441.35546875 236.452148438 c 1
 446.455078125 244.384765625 452.405273438 253.592773438 459.205078125 264.076171875 c 0
 466.004882812 274.559570312 471.671875 283.059570312 476.205078125 289.576171875 c 0
 480.73828125 296.092773438 484.138671875 300.767578125 486.405273438 303.600585938 c 0
 498.872070312 318.333984375 509.780273438 327.541992188 519.129882812 331.225585938 c 0
 522.813476562 332.67578125 526.473632812 333.401367188 530.11328125 333.401367188 c 0
 535.712890625 333.401367188 541.259765625 331.684570312 546.754882812 328.249023438 c 0
 553.920898438 324.154296875 557.50390625 316.940429688 557.50390625 306.604492188 c 0
 557.50390625 296.490234375 554.258789062 282.131835938 540.805664062 261.950195312 c 0
 536.837890625 256.850585938 526.35546875 245.517578125 509.35546875 227.950195312 c 0
 492.35546875 210.3828125 477.622070312 194.233398438 465.155273438 179.5 c 1
 468.555664062 168.733398438 473.372070312 153.291015625 479.60546875 133.174804688 c 0
 485.837890625 113.057617188 489.23828125 101.299804688 489.805664062 97.8994140625 c 0
 491.938476562 91.4990234375 493.004882812 84.7861328125 493.004882812 77.7578125 c 0
 493.004882812 69.8515625 491.655273438 61.5498046875 488.955078125 52.849609375 c 0
 483.85546875 36.416015625 476.772460938 25.93359375 467.705078125 21.400390625 c 0xe0
347.005859375 537.350585938 m 0
 345.305664062 530.265625 344.455078125 522.826171875 344.455078125 515.033203125 c 0
 344.455078125 507.2421875 345.305664062 499.099609375 347.004882812 490.600585938 c 0
 350.404296875 473.600585938 355.787109375 458.583984375 363.154296875 445.55078125 c 1
 375.62109375 449.517578125 386.388671875 453.625976562 395.455078125 457.875976562 c 0
 404.522460938 462.125976562 413.447265625 467.651367188 422.23046875 474.451171875 c 0
 431.013671875 481.250976562 438.23828125 489.609375 443.905273438 499.526367188 c 0
 449.572265625 509.443359375 453.822265625 521.201171875 456.655273438 534.80078125 c 0
 458.420898438 542.05859375 459.303710938 548.72265625 459.303710938 554.791992188 c 0
 459.303710938 566.255859375 456.154296875 575.600585938 449.85546875 582.826171875 c 0
 440.22265625 593.875976562 427.189453125 599.401367188 410.755859375 599.401367188 c 0
 377.889648438 599.401367188 356.639648438 578.717773438 347.005859375 537.350585938 c 0
204.204101562 199.05078125 m 0
 201.529296875 187.45703125 200.19140625 176.608398438 200.19140625 166.504882812 c 0
 200.19140625 150.931640625 203.370117188 137.129882812 209.728515625 125.100585938 c 0
 220.211914062 105.267578125 237.353515625 95.3505859375 261.153320312 95.3505859375 c 0
 268.520507812 95.3505859375 275.887695312 96.2001953125 283.254882812 97.900390625 c 0
 290.62109375 99.6005859375 297.138671875 101.299804688 302.805664062 103 c 0
 308.47265625 104.700195312 314.421875 107.533203125 320.655273438 111.5 c 0
 326.888671875 115.466796875 331.846679688 118.725585938 335.529296875 121.275390625 c 0
 339.212890625 123.825195312 343.887695312 127.791992188 349.5546875 133.174804688 c 0
 355.221679688 138.55859375 359.188476562 142.3828125 361.455078125 144.650390625 c 0
 363.72265625 146.916992188 367.405273438 151.025390625 372.504882812 156.975585938 c 0
 377.60546875 162.924804688 380.72265625 166.466796875 381.85546875 167.600585938 c 0
 377.888671875 189.700195312 373.921875 206.983398438 369.954101562 219.450195312 c 0
 366.5546875 232.483398438 358.762695312 253.733398438 346.579101562 283.200195312 c 0
 334.396484375 312.666992188 325.754882812 334.484375 320.654296875 348.651367188 c 1
 303.087890625 341.284179688 287.504882812 332.076171875 273.904296875 321.026367188 c 0
 260.3046875 309.975585938 248.971679688 297.79296875 239.904296875 284.475585938 c 0
 230.837890625 271.159179688 223.612304688 257.701171875 218.229492188 244.100585938 c 0
 212.846679688 230.500976562 208.171875 215.484375 204.204101562 199.05078125 c 0
EndSplineSet
Validated: 524289
EndChar

StartChar: quotesingle
Encoding: 39 39 18
Width: 570
VWidth: 941
GlyphClass: 2
Flags: HMW
HStem: 470.474 276.674
VStem: 357.836 129.2
LayerCount: 2
Fore
SplineSet
487.037109375 710.172851562 m 0
 482.50390625 687.505859375 474.288085938 652.515625 462.388671875 605.19921875 c 0
 450.48828125 557.881835938 440.85546875 524.307617188 433.48828125 504.473632812 c 0
 429.521484375 492.57421875 423.004882812 483.791015625 413.9375 478.124023438 c 0
 405.6953125 472.97265625 397.6875 470.396484375 389.9140625 470.396484375 c 0
 389.135742188 470.396484375 388.360351562 470.422851562 387.587890625 470.473632812 c 0
 376.8203125 471.041015625 368.178710938 474.723632812 361.662109375 481.524414062 c 0
 357.611328125 485.750976562 355.5859375 490.963867188 355.5859375 497.161132812 c 0
 355.5859375 500.93359375 356.3359375 505.071289062 357.836914062 509.57421875 c 0
 366.336914062 539.041015625 374.836914062 573.041015625 383.336914062 611.57421875 c 0
 391.836914062 650.107421875 398.919921875 684.390625 404.586914062 714.422851562 c 0
 405.719726562 721.223632812 408.26953125 727.172851562 412.237304688 732.2734375 c 0
 416.204101562 737.373046875 420.87890625 740.915039062 426.26171875 742.8984375 c 0
 431.64453125 744.880859375 436.745117188 746.297851562 441.561523438 747.1484375 c 0
 446.37890625 747.998046875 451.336914062 748.140625 456.436523438 747.573242188 c 0
 460.969726562 747.573242188 465.219726562 747.005859375 469.186523438 745.873046875 c 0
 473.154296875 744.740234375 476.836914062 742.8984375 480.237304688 740.348632812 c 0
 483.63671875 737.797851562 485.904296875 733.973632812 487.037109375 728.873046875 c 0
 488.169921875 723.7734375 488.169921875 717.540039062 487.037109375 710.172851562 c 0
EndSplineSet
Validated: 524289
EndChar

StartChar: parenleft
Encoding: 40 40 19
Width: 570
VWidth: 901
GlyphClass: 2
Flags: HMW
HStem: -60.123 71.3983<335.96 375.629> 674.277 68.85<515.879 550.445>
LayerCount: 2
Fore
SplineSet
392.62890625 -27.82421875 m 0
 390.362304688 -36.8916015625 385.119140625 -44.5400390625 376.90234375 -50.7734375 c 0
 368.685546875 -57.005859375 360.893554688 -60.123046875 353.526367188 -60.123046875 c 0
 318.393554688 -60.123046875 289.635742188 -46.5234375 267.251953125 -19.3232421875 c 0
 244.869140625 7.876953125 230.27734375 45.5595703125 223.477539062 93.7265625 c 0
 220.455078125 115.134765625 218.944335938 137.997070312 218.944335938 162.314453125 c 0
 218.944335938 192.711914062 221.3046875 225.3828125 226.02734375 260.327148438 c 0
 231.694335938 301.694335938 245.010742188 355.52734375 265.978515625 421.827148438 c 0
 286.9453125 488.126953125 309.89453125 542.809570312 334.828125 585.876953125 c 0
 346.161132812 604.577148438 359.478515625 623.134765625 374.778320312 641.551757812 c 0
 390.078125 659.96875 406.794921875 676.827148438 424.927734375 692.126953125 c 0
 443.061523438 707.426757812 462.328125 719.751953125 482.728515625 729.1015625 c 0
 503.127929688 738.452148438 522.111328125 743.126953125 539.677734375 743.126953125 c 0
 557.087890625 743.126953125 565.79296875 735.533203125 565.79296875 720.345703125 c 0
 565.79296875 716.749023438 565.3046875 712.7265625 564.328125 708.27734375 c 0
 561.495117188 696.376953125 556.112304688 687.735351562 548.178710938 682.3515625 c 0
 540.24609375 676.96875 531.74609375 674.27734375 522.678710938 674.27734375 c 0
 509.079101562 674.27734375 495.336914062 670.02734375 481.454101562 661.52734375 c 0
 467.571289062 653.02734375 454.395507812 641.41015625 441.928710938 626.676757812 c 0
 429.461914062 611.944335938 417.987304688 595.793945312 407.50390625 578.2265625 c 0
 397.020507812 560.66015625 387.24609375 541.676757812 378.178710938 521.27734375 c 0
 364.579101562 491.809570312 350.553710938 451.29296875 336.103515625 399.7265625 c 0
 321.654296875 348.159179688 311.87890625 306.2265625 306.779296875 273.92578125 c 0
 302.606445312 245.643554688 300.520507812 218.025390625 300.520507812 191.0703125 c 0
 300.520507812 185.081054688 300.623046875 179.125 300.829101562 173.201171875 c 0
 301.961914062 140.618164062 305.50390625 112.568359375 311.454101562 89.05078125 c 0
 317.404296875 65.5341796875 325.62109375 46.6923828125 336.103515625 32.525390625 c 0
 346.586914062 18.3583984375 358.061523438 11.275390625 370.529296875 11.275390625 c 0
 380.728515625 11.275390625 387.811523438 8.4423828125 391.779296875 2.775390625 c 0
 393.915039062 -0.2763671875 394.983398438 -4.6416015625 394.983398438 -10.3212890625 c 0
 394.983398438 -15.1904296875 394.198242188 -21.0244140625 392.62890625 -27.82421875 c 0
EndSplineSet
Validated: 524289
EndChar

StartChar: parenright
Encoding: 41 41 20
Width: 570
VWidth: 901
GlyphClass: 2
Flags: HMW
HStem: -60.1296 71.4<195.968 201.919> 674.273 68.8517<350.386 377.869>
VStem: 429.152 73.1009
LayerCount: 2
Fore
SplineSet
459.752929688 260.32421875 m 0
 439.353515625 197.424804688 414.701171875 141.887695312 385.80078125 93.720703125 c 0
 356.900390625 45.5537109375 324.883789062 7.8701171875 289.750976562 -19.3291015625 c 0
 254.618164062 -46.529296875 219.484375 -60.1298828125 184.3515625 -60.1298828125 c 0
 176.984375 -60.1298828125 170.467773438 -57.0126953125 164.80078125 -50.779296875 c 0
 159.133789062 -44.546875 157.43359375 -36.896484375 159.701171875 -27.8291015625 c 0
 163.100585938 -13.0966796875 168.201171875 -2.896484375 175.000976562 2.7705078125 c 0
 181.80078125 8.4375 190.583984375 11.2705078125 201.350585938 11.2705078125 c 0
 213.817382812 11.2705078125 228.409179688 18.353515625 245.126953125 32.5205078125 c 0
 261.84375 46.6875 278.701171875 65.529296875 295.701171875 89.0458984375 c 0
 312.701171875 112.563476562 329.418945312 140.754882812 345.8515625 173.622070312 c 0
 362.284179688 206.489257812 375.6015625 239.921875 385.801757812 273.921875 c 0
 396.001953125 306.221679688 405.634765625 348.155273438 414.701171875 399.721679688 c 0
 423.768554688 451.2890625 428.5859375 491.805664062 429.15234375 521.2734375 c 0
 429.15234375 541.672851562 427.876953125 560.65625 425.327148438 578.22265625 c 0
 422.77734375 595.790039062 418.810546875 611.939453125 413.427734375 626.672851562 c 0
 408.043945312 641.40625 400.39453125 653.0234375 390.477539062 661.5234375 c 0
 380.560546875 670.0234375 368.802734375 674.2734375 355.202148438 674.2734375 c 0
 345.569335938 674.2734375 338.202148438 676.96484375 333.102539062 682.34765625 c 0
 329.571289062 686.075195312 327.806640625 691.36328125 327.806640625 698.213867188 c 0
 327.806640625 701.2578125 328.155273438 704.611328125 328.852539062 708.2734375 c 0
 330.552734375 715.639648438 333.102539062 721.731445312 336.501953125 726.548828125 c 0
 339.90234375 731.366210938 343.5859375 734.907226562 347.552734375 737.174804688 c 0
 351.51953125 739.44140625 355.202148438 741 358.602539062 741.849609375 c 0
 362.001953125 742.69921875 365.40234375 743.125 368.802734375 743.125 c 0
 386.935546875 743.125 403.935546875 738.44921875 419.802734375 729.099609375 c 0
 435.668945312 719.75 449.126953125 707.424804688 460.177734375 692.125 c 0
 471.227539062 676.82421875 480.435546875 659.966796875 487.802734375 641.549804688 c 0
 495.168945312 623.1328125 499.986328125 604.57421875 502.252929688 585.875 c 0
 503.985351562 571.248046875 504.8515625 555.28125 504.8515625 537.974609375 c 0
 504.8515625 504.323242188 501.577148438 465.607421875 495.028320312 421.82421875 c 0
 485.111328125 355.524414062 473.353515625 301.69140625 459.752929688 260.32421875 c 0
EndSplineSet
Validated: 524289
EndChar

StartChar: asterisk
Encoding: 42 42 21
Width: 570
VWidth: 901
GlyphClass: 2
Flags: HMW
HStem: 301.041 88.3991 312.092 65.45<412.481 449.881>
VStem: 284.13 73.1009 369.131 73.1
LayerCount: 2
Fore
SplineSet
280.732421875 170.142578125 m 0x70
 277.33203125 163.342773438 272.655273438 158.2421875 266.706054688 154.841796875 c 0
 260.755859375 151.442382812 254.6640625 149.458984375 248.430664062 148.892578125 c 0
 242.197265625 148.325195312 236.530273438 148.75 231.430664062 150.166992188 c 0
 226.331054688 151.583984375 222.081054688 153.42578125 218.680664062 155.693359375 c 0
 214.713867188 158.526367188 211.596679688 162.633789062 209.330078125 168.017578125 c 0
 207.0625 173.400390625 206.354492188 180.05859375 207.205078125 187.991210938 c 0
 208.0546875 195.924804688 211.596679688 204.141601562 217.830078125 212.641601562 c 2
 291.780273438 305.291015625 l 1
 247.580078125 302.458007812 215.280273438 301.041015625 194.879882812 301.041015625 c 0
 182.413085938 301.041015625 173.629882812 305.57421875 168.530273438 314.641601562 c 0
 164.999023438 320.91796875 163.234375 327.466796875 163.234375 334.287109375 c 0
 163.234375 337.318359375 163.583007812 340.403320312 164.280273438 343.541015625 c 0
 164.846679688 348.641601562 166.405273438 353.883789062 168.955078125 359.266601562 c 0
 171.504882812 364.649414062 174.762695312 369.749023438 178.729492188 374.56640625 c 0
 182.697265625 379.383789062 187.796875 383.208007812 194.030273438 386.041015625 c 0
 200.262695312 388.874023438 206.49609375 390.0078125 212.729492188 389.440429688 c 0xb0
 236.529296875 387.173828125 271.662109375 384.340820312 318.12890625 380.940429688 c 1
 305.095703125 422.307617188 293.762695312 454.041015625 284.129882812 476.140625 c 0
 281.86328125 482.657226562 280.729492188 489.103515625 280.729492188 495.478515625 c 0
 280.729492188 501.853515625 281.86328125 508.15625 284.129882812 514.390625 c 0
 288.663085938 526.857421875 295.462890625 535.07421875 304.530273438 539.041015625 c 0
 310.197265625 542.44140625 316.572265625 544.283203125 323.655273438 544.56640625 c 0
 330.73828125 544.849609375 337.538085938 542.724609375 344.0546875 538.19140625 c 0
 350.572265625 533.658203125 354.963867188 526.858398438 357.23046875 517.791015625 c 0
 360.063476562 504.19140625 367.997070312 471.608398438 381.030273438 420.041015625 c 1
 411.0625 458.57421875 434.295898438 490.874023438 450.729492188 516.94140625 c 0
 456.395507812 526.008789062 463.337890625 532.80859375 471.5546875 537.341796875 c 0
 479.771484375 541.874023438 487.138671875 543.999023438 493.655273438 543.716796875 c 0
 500.172851562 543.43359375 505.415039062 541.30859375 509.381835938 537.341796875 c 0
 513.915039062 534.508789062 517.172851562 529.975585938 519.155273438 523.7421875 c 0
 521.138671875 517.508789062 521.138671875 510.142578125 519.155273438 501.642578125 c 0
 517.172851562 493.142578125 512.780273438 484.924804688 505.98046875 476.9921875 c 0
 482.748046875 450.359375 456.397460938 417.208984375 426.930664062 377.541992188 c 1
 472.831054688 377.541992188 506.263671875 380.659179688 527.23046875 386.892578125 c 0
 531.197265625 388.154296875 534.86328125 388.78515625 538.227539062 388.78515625 c 0
 545.436523438 388.78515625 551.262695312 385.887695312 555.706054688 380.091796875 c 0
 560.875 373.3515625 563.458984375 366.252929688 563.458984375 358.798828125 c 0
 563.458984375 356.854492188 563.283203125 354.884765625 562.931640625 352.892578125 c 0
 561.798828125 347.791992188 560.098632812 342.692382812 557.831054688 337.591796875 c 0
 555.564453125 332.4921875 552.58984375 327.392578125 548.90625 322.291992188 c 0
 545.223632812 317.192382812 540.548828125 313.225585938 534.881835938 310.392578125 c 0
 529.21484375 307.559570312 523.547851562 306.9921875 517.880859375 308.692382812 c 0
 505.130859375 311.2421875 482.1796875 312.517578125 449.029296875 312.517578125 c 0
 437.979492188 312.517578125 425.796875 312.375 412.48046875 312.091796875 c 1
 443.081054688 213.4921875 l 2
 444.368164062 207.568359375 445.012695312 201.965820312 445.012695312 196.685546875 c 0
 445.012695312 190.348632812 444.084960938 184.475585938 442.23046875 179.067382812 c 0
 438.831054688 169.150390625 433.1640625 161.924804688 425.23046875 157.392578125 c 0
 419.563476562 153.9921875 412.48046875 152.008789062 403.98046875 151.442382812 c 0
 395.48046875 150.875 387.688476562 152.575195312 380.60546875 156.541992188 c 0
 373.522460938 160.508789062 369.697265625 167.026367188 369.130859375 176.092773438 c 0
 367.998046875 198.759765625 361.764648438 231.342773438 350.431640625 273.842773438 c 1
 313.598632812 221.709960938 290.365234375 187.142578125 280.732421875 170.142578125 c 0x70
EndSplineSet
Validated: 524289
EndChar

StartChar: plus
Encoding: 43 43 22
Width: 570
VWidth: 910
GlyphClass: 2
Flags: HMW
HStem: 363.456 71.4009<327.414 349.797>
LayerCount: 2
Fore
SplineSet
376.147460938 272.506835938 m 0
 373.314453125 259.474609375 368.497070312 250.263671875 361.697265625 244.880859375 c 0
 354.896484375 239.498046875 346.963867188 236.805664062 337.896484375 236.805664062 c 0
 319.579101562 236.805664062 310.418945312 244.203125 310.418945312 258.999023438 c 0
 310.418945312 262.96875 311.079101562 267.471679688 312.396484375 272.505859375 c 2
 332.796875 363.456054688 l 1
 322.030273438 363.456054688 307.721679688 363.313476562 289.872070312 363.030273438 c 0
 272.021484375 362.748046875 259.98046875 362.60546875 253.747070312 362.60546875 c 0
 240.713867188 362.60546875 231.7890625 366.147460938 226.971679688 373.23046875 c 0
 223.696289062 378.046875 222.05859375 383.583984375 222.05859375 389.841796875 c 0
 222.05859375 392.787109375 222.421875 395.891601562 223.146484375 399.155273438 c 0
 224.846679688 409.922851562 229.6640625 418.989257812 237.596679688 426.356445312 c 0
 244.962890625 433.197265625 254.772460938 436.6171875 267.024414062 436.6171875 c 0
 267.967773438 436.6171875 268.924804688 436.596679688 269.896484375 436.556640625 c 0
 306.73046875 435.423828125 333.36328125 434.856445312 349.795898438 434.856445312 c 1
 356.595703125 463.189453125 362.829101562 493.7890625 368.49609375 526.65625 c 0
 373.029296875 551.0234375 387.196289062 563.206054688 410.99609375 563.206054688 c 0
 421.762695312 563.7734375 429.98046875 561.506835938 435.646484375 556.40625 c 0
 438.98046875 553.40625 440.647460938 548.837890625 440.647460938 542.701171875 c 0
 440.647460938 538.404296875 439.830078125 533.33984375 438.197265625 527.506835938 c 0
 428.563476562 494.639648438 420.346679688 463.189453125 413.546875 433.15625 c 1
 500.247070312 433.15625 l 2
 512.713867188 433.15625 520.646484375 430.323242188 524.046875 424.65625 c 0
 527.447265625 418.989257812 528.580078125 411.33984375 527.447265625 401.706054688 c 0
 526.313476562 396.606445312 524.755859375 391.931640625 522.772460938 387.681640625 c 0
 520.790039062 383.431640625 518.09765625 379.323242188 514.698242188 375.356445312 c 0
 511.297851562 371.389648438 507.047851562 368.4140625 501.948242188 366.431640625 c 0
 496.84765625 364.448242188 491.180664062 363.740234375 484.948242188 364.307617188 c 0
 476.788085938 365.327148438 463.018554688 365.836914062 443.638671875 365.836914062 c 0
 430.71875 365.836914062 415.3046875 365.610351562 397.397460938 365.157226562 c 1
 393.998046875 349.857421875 389.889648438 331.724609375 385.073242188 310.756835938 c 0
 380.255859375 289.790039062 377.28125 277.040039062 376.147460938 272.506835938 c 0
EndSplineSet
Validated: 524289
EndChar

StartChar: comma
Encoding: 44 44 23
Width: 570
VWidth: 845
GlyphClass: 2
Flags: HMW
VStem: 167.802 216.749
LayerCount: 2
Fore
SplineSet
383.276367188 76.6943359375 m 0
 371.376953125 48.927734375 350.127929688 6.1435546875 319.528320312 -51.65625 c 0
 288.927734375 -109.456054688 267.395507812 -145.15625 254.927734375 -158.755859375 c 0
 243.594726562 -170.65625 230.844726562 -179.15625 216.677734375 -184.255859375 c 0
 208.177734375 -187.315429688 200.901367188 -188.846679688 194.849609375 -188.846679688 c 0
 190.814453125 -188.846679688 187.32421875 -188.166015625 184.376953125 -186.805664062 c 0
 179.27734375 -185.106445312 175.02734375 -181.706054688 171.626953125 -176.606445312 c 0
 168.227539062 -171.505859375 166.952148438 -165.2734375 167.802734375 -157.90625 c 0
 168.65234375 -150.5390625 172.477539062 -142.888671875 179.27734375 -134.956054688 c 0
 194.010742188 -117.956054688 217.668945312 -80.5556640625 250.251953125 -22.755859375 c 0
 282.834960938 35.0439453125 303.942382812 75.27734375 313.576171875 97.9443359375 c 0
 316.975585938 105.876953125 322.217773438 112.110351562 329.30078125 116.643554688 c 0
 336.383789062 121.17578125 343.18359375 123.443359375 349.701171875 123.443359375 c 0
 356.217773438 123.443359375 362.309570312 122.875976562 367.9765625 121.743164062 c 0
 375.34375 118.91015625 380.868164062 113.52734375 384.551757812 105.59375 c 0
 386.202148438 102.038085938 387.02734375 98.1396484375 387.02734375 93.900390625 c 0
 387.02734375 88.6826171875 385.77734375 82.947265625 383.276367188 76.6943359375 c 0
EndSplineSet
Validated: 524289
EndChar

StartChar: hyphen
Encoding: 45 45 24
Width: 570
VWidth: 893
GlyphClass: 2
Flags: HMW
HStem: 249.75 73.95<257.2 262.018> 256.55 69.7<427.768 453.552>
VStem: 227.168 246.501
LayerCount: 2
Fore
SplineSet
268.817382812 323.700195312 m 0xa0
 298.850585938 323.700195312 334.694335938 324.125 376.34375 324.974609375 c 0
 417.994140625 325.825195312 441.65234375 326.25 447.319335938 326.25 c 0
 459.786132812 326.25 467.71875 323.275390625 471.119140625 317.325195312 c 0
 474.51953125 311.375 475.369140625 303.583007812 473.668945312 293.950195312 c 0
 468.001953125 269.016601562 453.834960938 256.549804688 431.16796875 256.549804688 c 0x60
 424.368164062 256.549804688 397.592773438 255.416992188 350.842773438 253.150390625 c 0
 304.092773438 250.8828125 271.368164062 249.75 252.66796875 249.75 c 0
 234.53515625 249.75 225.467773438 257.546875 225.467773438 273.141601562 c 0
 225.467773438 277.040039062 226.03515625 281.426757812 227.16796875 286.299804688 c 0
 231.701171875 311.233398438 245.583984375 323.700195312 268.817382812 323.700195312 c 0xa0
EndSplineSet
Validated: 524289
EndChar

StartChar: period
Encoding: 46 46 25
Width: 570
VWidth: 859
GlyphClass: 2
Flags: HMW
HStem: -2.48889 130.898
VStem: 235.3 128.35
LayerCount: 2
Fore
SplineSet
285.450195312 -2.4892578125 m 0
 282.665039062 -2.806640625 279.986328125 -2.9658203125 277.415039062 -2.9658203125 c 0
 261.666015625 -2.9658203125 249.895507812 2.9990234375 242.1015625 14.9326171875 c 0
 236.057617188 24.1884765625 233.03515625 34.515625 233.03515625 45.9111328125 c 0
 233.03515625 51.609375 233.790039062 57.5751953125 235.30078125 63.8076171875 c 0
 239.267578125 81.375 249.467773438 96.3916015625 265.901367188 108.858398438 c 0
 282.333984375 121.325195312 299.05078125 127.842773438 316.05078125 128.409179688 c 0
 316.8828125 128.434570312 317.704101562 128.447265625 318.516601562 128.447265625 c 0
 335.962890625 128.447265625 348.8828125 122.625976562 357.276367188 110.985351562 c 0
 363.069335938 102.94921875 365.965820312 93.49609375 365.965820312 82.625 c 0
 365.965820312 77.0146484375 365.194335938 71.0263671875 363.651367188 64.66015625 c 0
 359.68359375 46.52734375 350.6171875 31.369140625 336.450195312 19.1865234375 c 0
 322.283203125 7.0029296875 305.283203125 -0.2216796875 285.450195312 -2.4892578125 c 0
EndSplineSet
Validated: 524289
EndChar

StartChar: slash
Encoding: 47 47 26
Width: 570
VWidth: 901
GlyphClass: 2
Flags: HMW
VStem: 94.0484 80.75
LayerCount: 2
Fore
SplineSet
618.498046875 626.501953125 m 0
 598.098632812 597.6015625 543.274414062 526.625 454.024414062 413.575195312 c 0
 364.774414062 300.525390625 310.233398438 230.400390625 290.399414062 203.200195312 c 0
 277.932617188 185.633789062 257.390625 155.883789062 228.774414062 113.950195312 c 0
 200.157226562 72.017578125 182.165039062 46.517578125 174.797851562 37.4501953125 c 0
 162.8984375 21.5830078125 149.723632812 10.533203125 135.2734375 4.2998046875 c 0
 128.047851562 1.1845703125 121.567382812 -0.375 115.829101562 -0.375 c 0
 110.091796875 -0.375 105.098632812 1.1845703125 100.848632812 4.2998046875 c 0
 95.748046875 7.7001953125 93.1982421875 14.4462890625 93.1982421875 24.5400390625 c 0
 93.1982421875 27.904296875 93.4814453125 31.6416015625 94.0478515625 35.7490234375 c 0
 96.3154296875 52.1826171875 103.115234375 67.19921875 114.448242188 80.7998046875 c 0
 223.248046875 216.799804688 317.03125 337.782226562 395.797851562 443.749023438 c 0
 445.098632812 508.916015625 498.365234375 582.583007812 555.598632812 664.75 c 0
 561.831054688 673.817382812 569.198242188 680.758789062 577.698242188 685.576171875 c 0
 586.198242188 690.392578125 593.848632812 692.66015625 600.6484375 692.376953125 c 0
 607.448242188 692.09375 613.96484375 690.536132812 620.198242188 687.703125 c 0
 628.698242188 682.602539062 632.948242188 674.669921875 632.948242188 663.90234375 c 0
 632.948242188 653.135742188 628.130859375 640.668945312 618.498046875 626.501953125 c 0
EndSplineSet
Validated: 524289
EndChar

StartChar: zero
Encoding: 48 48 27
Width: 570
VWidth: 902
GlyphClass: 2
Flags: HMW
HStem: 31.65 71.3991<272.027 281.659> 593.499 68.8509<430.409 431.543>
LayerCount: 2
Fore
SplineSet
273.725585938 31.650390625 m 0
 249.358398438 31.650390625 227.684570312 36.4658203125 208.701171875 46.099609375 c 0
 189.71875 55.732421875 174.84375 69.048828125 164.076171875 86.048828125 c 0
 153.309570312 103.048828125 146.651367188 124.298828125 144.1015625 149.798828125 c 0
 143.481445312 156.001953125 143.170898438 162.354492188 143.170898438 168.859375 c 0
 143.170898438 189.095703125 146.173828125 210.79296875 152.176757812 233.94921875 c 0
 153.309570312 239.616210938 156.284179688 253.640625 161.1015625 276.024414062 c 0
 165.91796875 298.407226562 169.885742188 316.256835938 173.001953125 329.57421875 c 0
 176.119140625 342.890625 180.793945312 361.307617188 187.02734375 384.825195312 c 0
 193.260742188 408.341796875 199.209960938 428.599609375 204.876953125 445.599609375 c 0
 210.543945312 462.599609375 217.626953125 480.875 226.126953125 500.424804688 c 0
 234.626953125 519.974609375 243.126953125 537.1171875 251.626953125 551.849609375 c 0
 273.16015625 587.549804688 301.068359375 614.891601562 335.3515625 633.875 c 0
 369.634765625 652.858398438 408.592773438 662.349609375 452.225585938 662.349609375 c 0
 473.758789062 662.349609375 492.883789062 658.3828125 509.600585938 650.450195312 c 0
 526.317382812 642.516601562 540.484375 630.900390625 552.1015625 615.599609375 c 0
 563.71875 600.299804688 571.510742188 580.466796875 575.477539062 556.099609375 c 0
 577.328125 544.727539062 578.254882812 532.553710938 578.254882812 519.577148438 c 0
 578.254882812 504.749023438 577.044921875 488.874023438 574.627929688 471.950195312 c 0
 570.094726562 443.6171875 563.862304688 411.458984375 555.928710938 375.475585938 c 0
 547.99609375 339.493164062 538.645507812 303.225585938 527.87890625 266.67578125 c 0
 517.112304688 230.125976562 507.1953125 202.217773438 498.127929688 182.951171875 c 0
 489.061523438 163.68359375 479.994140625 146.68359375 470.927734375 131.951171875 c 0
 461.860351562 117.217773438 452.79296875 104.467773438 443.7265625 93.701171875 c 0
 434.659179688 82.93359375 424.884765625 73.8671875 414.401367188 66.5 c 0
 403.91796875 59.1328125 393.71875 53.1826171875 383.801757812 48.650390625 c 0
 373.884765625 44.1171875 362.834960938 40.5751953125 350.651367188 38.025390625 c 0
 338.46875 35.474609375 326.568359375 33.775390625 314.951171875 32.9248046875 c 0
 303.334960938 32.0751953125 289.592773438 31.650390625 273.725585938 31.650390625 c 0
232.076171875 247.548828125 m 0
 231.509765625 245.282226562 230.801757812 241.8828125 229.951171875 237.349609375 c 0
 229.1015625 232.817382812 228.393554688 229.700195312 227.826171875 228 c 1
 322.459960938 331.700195312 410.859375 438.233398438 493.026367188 547.599609375 c 1
 486.79296875 562.333007812 477.7265625 573.666015625 465.826171875 581.599609375 c 0
 453.926757812 589.532226562 439.759765625 593.499023438 423.326171875 593.499023438 c 0
 393.859375 593.499023438 368.926757812 584.715820312 348.526367188 567.149414062 c 0
 328.126953125 549.58203125 309.426757812 521.249023438 292.426757812 482.149414062 c 0
 285.626953125 467.982421875 279.251953125 451.407226562 273.301757812 432.423828125 c 0
 267.3515625 413.44140625 261.401367188 390.491210938 255.451171875 363.57421875 c 0
 249.501953125 336.657226562 245.534179688 317.673828125 243.551757812 306.624023438 c 0
 241.568359375 295.57421875 237.743164062 275.881835938 232.076171875 247.548828125 c 0
426.7265625 194.849609375 m 0
 430.126953125 201.650390625 436.643554688 220.349609375 446.276367188 250.94921875 c 0
 455.909179688 281.548828125 465.826171875 316.541015625 476.026367188 355.923828125 c 0
 486.2265625 395.307617188 494.159179688 433.131835938 499.826171875 469.399414062 c 1
 414.259765625 344.732421875 323.309570312 240.182617188 226.9765625 155.749023438 c 1
 233.209960938 120.616210938 254.176757812 103.048828125 289.876953125 103.048828125 c 0
 304.04296875 103.048828125 317.076171875 104.32421875 328.9765625 106.874023438 c 0
 340.876953125 109.423828125 352.634765625 113.95703125 364.251953125 120.474609375 c 0
 375.868164062 126.991210938 386.776367188 136.483398438 396.9765625 148.950195312 c 0
 407.176757812 161.416992188 417.09375 176.716796875 426.7265625 194.849609375 c 0
EndSplineSet
Validated: 524289
EndChar

StartChar: one
Encoding: 49 49 28
Width: 570
VWidth: 904
GlyphClass: 2
Flags: HMW
HStem: 46.4251 72.675 49.8251 75.65<149.908 150.473>
LayerCount: 2
Fore
SplineSet
496.9921875 86.375 m 0x80
 494.725585938 75.0419921875 489.764648438 65.5498046875 482.115234375 57.900390625 c 0
 474.46484375 50.25 462.70703125 46.4248046875 446.83984375 46.4248046875 c 0x80
 440.040039062 46.4248046875 393.290039062 46.9921875 306.58984375 48.125 c 0
 219.889648438 49.2578125 163.506835938 49.8251953125 137.439453125 49.8251953125 c 0
 125.540039062 49.8251953125 117.748046875 53.224609375 114.064453125 60.025390625 c 0
 111.78515625 64.234375 110.64453125 69.203125 110.64453125 74.9326171875 c 0
 110.64453125 78.458984375 111.076171875 82.2724609375 111.940429688 86.375 c 0
 114.208007812 97.7080078125 119.024414062 107.05859375 126.391601562 114.424804688 c 0
 133.758789062 121.791992188 143.67578125 125.474609375 156.142578125 125.474609375 c 0x40
 179.942382812 125.474609375 220.458984375 125.192382812 277.692382812 124.625 c 1
 282.791992188 147.291992188 286.759765625 165.424804688 289.592773438 179.025390625 c 0
 290.159179688 183.55859375 293.416992188 198.575195312 299.3671875 224.075195312 c 0
 305.317382812 249.575195312 309.708984375 267.9921875 312.541992188 279.325195312 c 0
 315.375 290.658203125 320.900390625 311.625 329.1171875 342.224609375 c 0
 337.333984375 372.825195312 343.284179688 395.6328125 346.967773438 410.650390625 c 0
 350.650390625 425.666992188 356.883789062 449.466796875 365.666992188 482.049804688 c 0
 374.44921875 514.6328125 381.107421875 538.575195312 385.640625 553.875 c 1
 338.607421875 518.7421875 305.174804688 497.775390625 285.341796875 490.974609375 c 0
 281.854492188 489.580078125 278.501953125 488.8828125 275.282226562 488.8828125 c 0
 268.040039062 488.8828125 261.475585938 492.4140625 255.591796875 499.474609375 c 0
 249.216796875 507.125 246.029296875 514.775390625 246.029296875 522.424804688 c 0
 246.029296875 524.974609375 246.383789062 527.525390625 247.091796875 530.075195312 c 0
 248.791992188 539.141601562 252.474609375 547.216796875 258.141601562 554.299804688 c 0
 263.80859375 561.3828125 272.30859375 568.608398438 283.641601562 575.974609375 c 0
 301.774414062 588.442382812 320.899414062 602.18359375 341.016601562 617.201171875 c 0
 361.133789062 632.217773438 375.866210938 643.125976562 385.216796875 649.92578125 c 0
 394.56640625 656.725585938 403.633789062 662.534179688 412.416992188 667.350585938 c 0
 421.19921875 672.16796875 428.708007812 674.576171875 434.940429688 674.576171875 c 0
 446.2734375 674.576171875 456.616210938 669.475585938 465.965820312 659.276367188 c 0
 473.876953125 650.64453125 477.833007812 643.231445312 477.833007812 637.03515625 c 0
 477.833007812 634.8046875 477.833007812 634.8046875 440.465820312 494.80078125 c 0
 419.215820312 415.18359375 407.173828125 368.576171875 404.340820312 354.975585938 c 0
 391.307617188 298.30859375 380.541015625 250.9921875 372.041015625 213.025390625 c 0
 366.940429688 192.05859375 360.708007812 161.458007812 353.340820312 121.224609375 c 1
 368.640625 121.224609375 384.6484375 120.942382812 401.366210938 120.375 c 0
 418.083007812 119.80859375 431.82421875 119.3828125 442.591796875 119.099609375 c 0
 453.358398438 118.817382812 460.725585938 118.674804688 464.692382812 118.674804688 c 0
 479.42578125 118.674804688 488.916992188 115.700195312 493.166992188 109.75 c 0
 497.416992188 103.799804688 498.692382812 96.0078125 496.9921875 86.375 c 0x80
EndSplineSet
Validated: 524289
EndChar

StartChar: two
Encoding: 50 50 29
Width: 570
VWidth: 902
GlyphClass: 2
Flags: HMW
HStem: 37.3452 71.4042 42.4493 75.65<441.134 472.16> 594.947 71.3991<427.818 438.87>
LayerCount: 2
Fore
SplineSet
452.185546875 42.44921875 m 0x60
 430.084960938 42.44921875 402.461914062 41.876953125 369.311523438 40.744140625 c 0
 336.162109375 39.611328125 306.6953125 38.478515625 280.912109375 37.3447265625 c 0
 255.12890625 36.2119140625 229.061523438 35.6455078125 202.711914062 35.6455078125 c 0
 176.361328125 35.6455078125 155.8203125 36.7783203125 141.086914062 39.044921875 c 0
 129.75390625 40.1787109375 123.095703125 47.828125 121.112304688 61.9951171875 c 0
 120.665039062 65.1943359375 120.44140625 68.7109375 120.44140625 72.5458984375 c 0
 120.44140625 85.6923828125 123.073242188 102.576171875 128.337890625 123.1953125 c 0
 134.004882812 147.5625 144.629882812 173.204101562 160.212890625 200.12109375 c 0
 175.795898438 227.038085938 196.053710938 252.821289062 220.986328125 277.470703125 c 0
 245.919921875 302.12109375 272.836914062 322.095703125 301.736328125 337.396484375 c 0
 366.336914062 371.396484375 408.26953125 395.196289062 427.537109375 408.795898438 c 0
 453.037109375 426.928710938 471.169921875 446.196289062 481.936523438 466.595703125 c 0
 487.603515625 478.49609375 492.420898438 493.229492188 496.387695312 510.795898438 c 0
 498.752929688 521.044921875 499.935546875 530.317382812 499.935546875 538.61328125 c 0
 499.935546875 554.16796875 495.77734375 566.287109375 487.462890625 574.971679688 c 0
 474.712890625 588.2890625 453.604492188 594.947265625 424.137695312 594.947265625 c 0
 403.737304688 594.947265625 382.487304688 588.146484375 360.387695312 574.546875 c 0
 338.288085938 560.947265625 320.154296875 545.9296875 305.987304688 529.497070312 c 0
 299.1875 522.129882812 293.379882812 516.322265625 288.5625 512.072265625 c 0
 283.74609375 507.822265625 278.928710938 505.4140625 274.111328125 504.846679688 c 0
 269.294921875 504.280273438 265.044921875 504.5625 261.361328125 505.696289062 c 0
 257.678710938 506.829101562 253.287109375 508.8125 248.186523438 511.645507812 c 0
 240.25390625 516.745117188 236.287109375 524.112304688 236.287109375 533.745117188 c 0
 236.287109375 543.377929688 241.38671875 555.844726562 251.586914062 571.145507812 c 0
 259.51953125 581.912109375 269.861328125 592.678710938 282.611328125 603.446289062 c 0
 295.361328125 614.212890625 309.811523438 624.413085938 325.961914062 634.045898438 c 0
 342.111328125 643.678710938 360.103515625 651.470703125 379.936523438 657.420898438 c 0
 399.76953125 663.37109375 418.752929688 666.345703125 436.885742188 666.345703125 c 0
 494.119140625 666.345703125 534.2109375 652.178710938 557.161132812 623.845703125 c 0
 571.798828125 605.775390625 579.116210938 581.942382812 579.116210938 552.345703125 c 0
 579.116210938 535.537109375 576.756835938 516.87109375 572.036132812 496.345703125 c 0
 561.268554688 449.3125 541.435546875 411.629882812 512.536132812 383.296875 c 0
 491.002929688 362.330078125 456.153320312 339.096679688 407.986328125 313.596679688 c 0
 396.0859375 306.796875 375.403320312 296.313476562 345.935546875 282.146484375 c 0
 320.435546875 269.114257812 297.911132812 253.10546875 278.361328125 234.123046875 c 0
 258.810546875 215.139648438 243.369140625 195.731445312 232.036132812 175.8984375 c 0
 220.703125 156.065429688 211.635742188 134.532226562 204.8359375 111.299804688 c 1
 233.736328125 109.599609375 261.786132812 108.749023438 288.986328125 108.749023438 c 0xa0
 316.185546875 108.749023438 337.578125 109.174804688 353.161132812 110.024414062 c 0
 368.744140625 110.874023438 386.736328125 112.149414062 407.135742188 113.849609375 c 2
 447.935546875 117.249023438 l 2
 448.502929688 117.249023438 451.052734375 117.391601562 455.5859375 117.674804688 c 0
 460.119140625 117.95703125 463.09375 118.099609375 464.510742188 118.099609375 c 2
 472.161132812 118.099609375 l 2
 475.84375 118.099609375 478.536132812 117.532226562 480.236328125 116.399414062 c 0
 481.935546875 115.266601562 483.778320312 113.849609375 485.760742188 112.149414062 c 0
 487.744140625 110.44921875 489.161132812 108.182617188 490.010742188 105.349609375 c 0
 490.861328125 102.516601562 491.002929688 99.1162109375 490.435546875 95.1494140625 c 0
 489.869140625 88.349609375 488.02734375 81.1240234375 484.91015625 73.474609375 c 0
 481.79296875 65.82421875 477.259765625 58.7412109375 471.310546875 52.224609375 c 0
 465.360351562 45.70703125 458.985351562 42.44921875 452.185546875 42.44921875 c 0x60
EndSplineSet
Validated: 524289
EndChar

StartChar: three
Encoding: 51 51 30
Width: 570
VWidth: 902
GlyphClass: 2
Flags: HMW
HStem: 31.9557 71.4<291.162 311.279> 322.656 85<315.812 321.479> 594.656 71.3983<409.597 422.345>
VStem: 436.371 85
LayerCount: 2
Fore
SplineSet
514.99609375 221.500976562 m 0
 501.962890625 163.133789062 474.762695312 116.956054688 433.395507812 82.9560546875 c 0
 392.028320312 48.9560546875 341.311523438 31.9560546875 281.245117188 31.9560546875 c 0
 262.544921875 31.9560546875 244.836914062 34.9306640625 228.120117188 40.880859375 c 0
 211.403320312 46.8310546875 197.094726562 54.48046875 185.1953125 63.8310546875 c 0
 173.294921875 73.1806640625 163.377929688 83.380859375 155.4453125 94.4306640625 c 0
 147.51171875 105.48046875 142.412109375 116.388671875 140.14453125 127.155273438 c 0
 139.01171875 132.368164062 138.4453125 137.401367188 138.4453125 142.251953125 c 0
 138.4453125 149.528320312 139.719726562 156.395507812 142.26953125 162.85546875 c 0
 146.51953125 173.623046875 153.461914062 181.272460938 163.094726562 185.805664062 c 0
 171.301757812 189.713867188 178.631835938 191.66796875 185.086914062 191.66796875 c 0
 187.9921875 191.66796875 190.719726562 191.271484375 193.26953125 190.48046875 c 0
 201.487304688 187.930664062 208.428710938 180.706054688 214.095703125 168.805664062 c 0
 222.028320312 151.805664062 233.362304688 136.647460938 248.094726562 123.331054688 c 0
 262.828125 110.013671875 280.677734375 103.35546875 301.64453125 103.35546875 c 0
 332.811523438 103.35546875 360.862304688 112.989257812 385.794921875 132.255859375 c 0
 410.727539062 151.522460938 426.594726562 176.456054688 433.39453125 207.055664062 c 0
 436.0390625 219.5234375 437.362304688 230.857421875 437.362304688 241.05859375 c 0
 437.362304688 246.157226562 437.03125 250.97265625 436.37109375 255.505859375 c 0
 434.387695312 269.10546875 428.862304688 281.005859375 419.795898438 291.206054688 c 0
 410.728515625 301.405273438 396.704101562 309.197265625 377.720703125 314.581054688 c 0
 358.737304688 319.963867188 335.362304688 322.655273438 307.595703125 322.655273438 c 0
 296.829101562 322.655273438 288.612304688 327.331054688 282.9453125 336.680664062 c 0
 279.166015625 342.915039062 277.278320312 349.588867188 277.278320312 356.704101562 c 0
 277.278320312 360.26171875 277.749023438 363.927734375 278.694335938 367.706054688 c 0
 281.52734375 379.60546875 286.626953125 389.239257812 293.994140625 396.60546875 c 0
 301.361328125 403.97265625 310.427734375 407.655273438 321.1953125 407.655273438 c 0
 365.39453125 407.655273438 402.370117188 417.147460938 432.120117188 436.130859375 c 0
 461.870117188 455.114257812 480.427734375 482.739257812 487.794921875 519.005859375 c 0
 489.970703125 527.165039062 491.05859375 534.658203125 491.05859375 541.483398438 c 0
 491.05859375 555.987304688 486.145507812 567.478515625 476.3203125 575.956054688 c 0
 461.870117188 588.422851562 438.495117188 594.655273438 406.1953125 594.655273438 c 0
 399.961914062 594.655273438 393.870117188 593.947265625 387.919921875 592.530273438 c 0
 381.969726562 591.114257812 376.870117188 589.697265625 372.620117188 588.280273438 c 0
 368.370117188 586.86328125 363.6953125 584.455078125 358.594726562 581.0546875 c 0
 353.495117188 577.655273438 349.38671875 574.822265625 346.26953125 572.5546875 c 0
 343.153320312 570.288085938 339.044921875 566.604492188 333.9453125 561.504882812 c 2
 323.3203125 550.879882812 l 2
 321.336914062 548.896484375 317.794921875 544.7890625 312.6953125 538.555664062 c 0
 301.362304688 526.088867188 291.01953125 518.721679688 281.669921875 516.455078125 c 0
 278.999023438 515.807617188 276.361328125 515.483398438 273.758789062 515.483398438 c 0
 267.25390625 515.483398438 260.965820312 517.5078125 254.89453125 521.5546875 c 0
 247.490234375 525.786132812 243.7890625 532.607421875 243.7890625 542.021484375 c 0
 243.7890625 552.278320312 248.07421875 565.08203125 258.296875 581.053710938 c 0
 266.229492188 592.38671875 275.296875 602.729492188 285.49609375 612.079101562 c 0
 295.696289062 621.428710938 307.313476562 630.354492188 320.346679688 638.854492188 c 0
 333.379882812 647.354492188 348.396484375 654.01171875 365.396484375 658.829101562 c 0
 382.396484375 663.646484375 400.24609375 666.053710938 418.946289062 666.053710938 c 0
 479.580078125 666.053710938 522.080078125 652.454101562 546.446289062 625.25390625 c 0
 562.084960938 607.797851562 569.903320312 584.97265625 569.903320312 556.779296875 c 0
 569.903320312 541.043945312 567.46875 523.634765625 562.596679688 504.553710938 c 0
 559.196289062 488.12109375 553.955078125 473.24609375 546.87109375 459.928710938 c 0
 539.788085938 446.612304688 531.713867188 435.279296875 522.646484375 425.928710938 c 0
 513.580078125 416.579101562 503.237304688 408.362304688 491.62109375 401.279296875 c 0
 480.00390625 394.196289062 468.670898438 388.670898438 457.62109375 384.704101562 c 0
 446.5703125 380.737304688 434.8125 377.620117188 422.345703125 375.353515625 c 1
 442.74609375 370.252929688 459.74609375 364.020507812 473.345703125 356.653320312 c 0
 486.9453125 349.286132812 497.99609375 339.793945312 506.49609375 328.177734375 c 0
 514.99609375 316.560546875 519.954101562 301.96875 521.37109375 284.401367188 c 0
 521.653320312 280.887695312 521.795898438 277.23828125 521.795898438 273.452148438 c 0
 521.795898438 258.310546875 519.528320312 240.993164062 514.99609375 221.500976562 c 0
EndSplineSet
Validated: 524289
EndChar

StartChar: four
Encoding: 52 52 31
Width: 570
VWidth: 902
GlyphClass: 2
Flags: HMW
HStem: 33.1263 17.85G<388.624 399.391> 243.076 67.9992
LayerCount: 2
Fore
SplineSet
440.190429688 99.4267578125 m 0
 439.624023438 81.2939453125 434.666992188 65.708984375 425.31640625 52.6767578125 c 0
 415.966796875 39.6435546875 405.341796875 33.1259765625 393.44140625 33.1259765625 c 0
 383.80859375 33.1259765625 375.30859375 37.234375 367.94140625 45.451171875 c 0
 361.556640625 52.572265625 358.364257812 59.80078125 358.364257812 67.134765625 c 0
 358.364257812 72.6455078125 363.360351562 93.4775390625 365.814453125 103.676757812 c 0
 369.498046875 118.9765625 374.740234375 140.934570312 381.540039062 169.551757812 c 0
 388.33984375 198.16796875 394.006835938 222.676757812 398.540039062 243.076171875 c 1
 387.274414062 243.209960938 376.401367188 243.276367188 365.919921875 243.276367188 c 0
 287.299804688 243.276367188 230.740234375 239.526367188 196.240234375 232.026367188 c 0
 187.740234375 230.326171875 180.231445312 230.609375 173.71484375 232.875976562 c 0
 167.198242188 235.143554688 162.665039062 239.110351562 160.115234375 244.77734375 c 0
 157.564453125 250.444335938 156.006835938 256.9609375 155.439453125 264.328125 c 0
 154.873046875 271.6953125 155.581054688 279.344726562 157.564453125 287.278320312 c 0
 159.546875 295.2109375 162.522460938 302.861328125 166.489257812 310.227539062 c 0
 175.555664062 326.094726562 195.814453125 352.01953125 227.263671875 388.002929688 c 0
 258.713867188 423.986328125 298.805664062 468.46875 347.5390625 521.452148438 c 0
 396.272460938 574.435546875 431.122070312 612.827148438 452.088867188 636.626953125 c 0
 461.721679688 647.39453125 471.497070312 655.46875 481.4140625 660.852539062 c 0
 491.331054688 666.235351562 499.97265625 668.926757812 507.33984375 668.926757812 c 0
 509.296875 669.1328125 511.203125 669.236328125 513.057617188 669.236328125 c 0
 521.403320312 669.236328125 528.705078125 667.150390625 534.96484375 662.977539062 c 0
 542.086914062 658.229492188 545.6484375 650.2890625 545.6484375 639.154296875 c 0
 545.6484375 634.905273438 544.69140625 611.056640625 531.990234375 544.827148438 c 0
 524.057617188 503.459960938 516.974609375 468.46875 510.741210938 439.8515625 c 0
 504.508789062 411.234375 495.158203125 368.026367188 482.69140625 310.2265625 c 1
 491.758789062 309.659179688 501.958007812 309.375976562 513.291992188 309.375976562 c 0
 525.758789062 309.375976562 533.69140625 306.401367188 537.091796875 300.451171875 c 0
 540.491210938 294.500976562 541.341796875 286.708984375 539.641601562 277.076171875 c 0
 533.974609375 252.143554688 519.807617188 239.676757812 497.140625 239.676757812 c 0
 486.374023438 239.676757812 476.740234375 239.958984375 468.240234375 240.526367188 c 1
 449.541015625 157.79296875 440.190429688 110.759765625 440.190429688 99.4267578125 c 0
466.541992188 564.375976562 m 1
 362.841796875 454.442382812 290.307617188 369.158203125 248.940429688 308.525390625 c 1
 278.89453125 310.548828125 315.498046875 311.561523438 358.752929688 311.561523438 c 0
 376.051757812 311.561523438 394.4140625 311.399414062 413.840820312 311.075195312 c 1
 438.208007812 417.041992188 455.774414062 501.475585938 466.541992188 564.375976562 c 1
EndSplineSet
Validated: 524289
EndChar

StartChar: five
Encoding: 53 53 32
Width: 570
VWidth: 902
GlyphClass: 2
Flags: HMW
HStem: 36.7489 71.3983<288.831 294.214> 409.047 75.6525<394.514 447.782> 578.2 75.6483<564.799 591.433> 587.55 67.9983
LayerCount: 2
Fore
SplineSet
542.1328125 303.649414062 m 0xd0
 532.499023438 261.716796875 518.896484375 223.890625 501.330078125 190.173828125 c 0
 483.762695312 156.45703125 463.504882812 128.407226562 440.5546875 106.024414062 c 0
 417.604492188 83.640625 392.387695312 66.4990234375 364.905273438 54.5986328125 c 0
 337.421875 42.69921875 308.947265625 36.7490234375 279.479492188 36.7490234375 c 0
 256.247070312 36.7490234375 235.421875 39.298828125 217.004882812 44.3994140625 c 0
 198.587890625 49.4990234375 183.854492188 56.58203125 172.8046875 65.6494140625 c 0
 161.754882812 74.7158203125 152.971679688 84.2080078125 146.455078125 94.125 c 0
 139.9375 104.041992188 134.979492188 114.383789062 131.580078125 125.150390625 c 0
 130.447265625 131.270507812 129.879882812 136.9375 129.879882812 142.150390625 c 0
 129.879882812 149.970703125 131.155273438 156.770507812 133.705078125 162.55078125 c 0
 137.955078125 172.18359375 145.462890625 179.55078125 156.229492188 184.650390625 c 0
 163.030273438 187.483398438 168.271484375 189.466796875 171.955078125 190.599609375 c 0
 175.637695312 191.732421875 179.887695312 192.015625 184.705078125 191.44921875 c 0
 189.521484375 190.881835938 193.489257812 188.615234375 196.60546875 184.6484375 c 0
 199.72265625 180.681640625 202.697265625 175.014648438 205.530273438 167.647460938 c 0
 220.263671875 128.546875 248.030273438 108.713867188 288.831054688 108.147460938 c 0
 328.498046875 108.147460938 363.772460938 125.004882812 394.655273438 158.72265625 c 0
 425.5390625 192.439453125 447.497070312 237.630859375 460.530273438 294.297851562 c 0
 464.112304688 310.1640625 465.904296875 324.557617188 465.904296875 337.477539062 c 0
 465.904296875 353.165039062 463.262695312 366.6796875 457.979492188 378.022460938 c 0
 448.346679688 398.705078125 428.513671875 409.046875 398.48046875 409.046875 c 0
 390.547851562 409.046875 382.755859375 408.622070312 375.10546875 407.772460938 c 0
 367.456054688 406.921875 360.938476562 405.7890625 355.555664062 404.372070312 c 0
 350.172851562 402.955078125 344.081054688 400.830078125 337.280273438 397.997070312 c 0
 330.48046875 395.1640625 325.380859375 392.897460938 321.98046875 391.197265625 c 0
 318.581054688 389.497070312 313.763671875 386.379882812 307.530273438 381.84765625 c 0
 301.297851562 377.314453125 297.189453125 374.197265625 295.20703125 372.497070312 c 0
 293.223632812 370.796875 288.973632812 367.254882812 282.45703125 361.872070312 c 0
 275.939453125 356.489257812 271.83203125 353.231445312 270.131835938 352.09765625 c 0
 265.03125 348.130859375 259.223632812 344.731445312 252.70703125 341.8984375 c 0
 246.189453125 339.065429688 239.106445312 337.22265625 231.45703125 336.373046875 c 0
 223.806640625 335.5234375 216.864257812 336.797851562 210.631835938 340.198242188 c 0
 202.698242188 344.165039062 198.0234375 352.948242188 196.606445312 366.547851562 c 0
 196.233398438 370.126953125 196.046875 373.922851562 196.046875 377.93359375 c 0
 196.046875 389.163085938 197.508789062 402.084960938 200.431640625 416.698242188 c 0
 204.3984375 436.53125 208.931640625 455.65625 214.03125 474.073242188 c 0
 219.131835938 492.490234375 224.798828125 512.323242188 231.03125 533.573242188 c 0
 237.264648438 554.823242188 241.231445312 569.415039062 242.931640625 577.34765625 c 1
 240.098632812 584.71484375 239.248046875 593.073242188 240.381835938 602.422851562 c 0
 241.514648438 611.7734375 244.064453125 620.415039062 248.03125 628.34765625 c 0
 251.998046875 636.28125 257.240234375 643.081054688 263.7578125 648.748046875 c 0
 270.274414062 654.415039062 277.215820312 657.248046875 284.583007812 657.248046875 c 0
 304.416015625 657.248046875 350.458007812 656.681640625 422.708007812 655.547851562 c 0xd0
 494.958007812 654.415039062 550.06640625 653.84765625 588.033203125 653.84765625 c 0
 594.833007812 653.84765625 599.650390625 650.731445312 602.483398438 644.498046875 c 0
 605.31640625 638.264648438 606.44921875 631.181640625 605.8828125 623.249023438 c 0
 605.315429688 615.315429688 603.8984375 607.94921875 601.631835938 601.149414062 c 0
 600.498046875 597.181640625 598.940429688 593.782226562 596.95703125 590.94921875 c 0
 594.974609375 588.116210938 592.56640625 585.991210938 589.733398438 584.57421875 c 0
 586.900390625 583.157226562 584.4921875 581.881835938 582.508789062 580.749023438 c 0
 580.526367188 579.616210938 577.55078125 578.908203125 573.583984375 578.625 c 0
 569.6171875 578.341796875 566.924804688 578.200195312 565.5078125 578.200195312 c 0xe0
 564.090820312 578.200195312 561.116210938 578.482421875 556.583007812 579.049804688 c 0
 552.049804688 579.6171875 549.5 579.899414062 548.93359375 579.899414062 c 0
 541.56640625 579.899414062 528.674804688 580.75 510.2578125 582.450195312 c 0
 491.840820312 584.149414062 475.265625 585.424804688 460.532226562 586.274414062 c 0
 445.799804688 587.125 425.2578125 587.549804688 398.907226562 587.549804688 c 0
 372.557617188 587.549804688 344.932617188 586.700195312 316.032226562 585 c 1
 314.33203125 579.333007812 309.940429688 562.899414062 302.857421875 535.700195312 c 0
 295.774414062 508.5 290.674804688 488.807617188 287.557617188 476.625 c 0
 284.440429688 464.44140625 280.615234375 447.016601562 276.08203125 424.349609375 c 1
 294.782226562 441.916992188 318.015625 456.3671875 345.782226562 467.700195312 c 0
 373.549804688 479.033203125 403.58203125 484.700195312 435.8828125 484.700195312 c 0
 459.682617188 484.700195312 479.799804688 480.024414062 496.232421875 470.674804688 c 0
 512.665039062 461.325195312 525.1328125 448.432617188 533.6328125 432 c 0
 542.1328125 415.56640625 547.090820312 396.44140625 548.5078125 374.625 c 0
 548.790039062 370.260742188 548.932617188 365.823242188 548.932617188 361.311523438 c 0
 548.932617188 343.26953125 546.665039062 324.048828125 542.1328125 303.649414062 c 0xd0
EndSplineSet
Validated: 524289
EndChar

StartChar: six
Encoding: 54 54 33
Width: 570
VWidth: 903
GlyphClass: 2
Flags: HMW
HStem: 34.9564 71.4042<301.741 304.859> 387.707 74.7967<371.159 434.909> 612.104 68.0017
VStem: 150.726 70.5475 463.1 80.75
LayerCount: 2
Fore
SplineSet
534.076171875 262.75390625 m 0
 526.708984375 231.020507812 514.80859375 201.131835938 498.375 173.081054688 c 0
 481.942382812 145.03125 463.100585938 120.948242188 441.850585938 100.831054688 c 0
 420.600585938 80.71484375 396.80078125 64.7060546875 370.450195312 52.806640625 c 0
 344.100585938 40.90625 317.892578125 34.9560546875 291.825195312 34.9560546875 c 0
 259.525390625 34.9560546875 232.75 41.6142578125 211.5 54.931640625 c 0
 190.25 68.248046875 174.666992188 87.515625 164.75 112.732421875 c 0
 155.369140625 136.584960938 150.6796875 164.875 150.6796875 197.6015625 c 0
 150.6796875 199.471679688 150.694335938 201.357421875 150.725585938 203.256835938 c 0
 151.291992188 238.390625 156.958984375 277.7734375 167.7265625 321.40625 c 0
 179.625976562 370.139648438 194.359375 414.056640625 211.92578125 453.15625 c 0
 229.493164062 492.256835938 248.901367188 525.123046875 270.151367188 551.756835938 c 0
 291.401367188 578.389648438 315.059570312 600.9140625 341.125976562 619.331054688 c 0
 367.193359375 637.748046875 394.110351562 651.7734375 421.876953125 661.40625 c 0
 449.643554688 671.0390625 479.676757812 677.272460938 511.9765625 680.10546875 c 0
 514.350585938 680.321289062 516.637695312 680.4296875 518.836914062 680.4296875 c 0
 528.1875 680.4296875 535.958984375 678.479492188 542.15234375 674.580078125 c 0
 549.274414062 670.094726562 552.8359375 663.03125 552.8359375 653.389648438 c 0
 552.8359375 649.91015625 552.8359375 641.828125 538.326171875 628.678710938 c 0
 529.258789062 620.461914062 520.192382812 614.936523438 511.125 612.103515625 c 0
 504.892578125 610.404296875 495.400390625 608.13671875 482.650390625 605.303710938 c 0
 469.900390625 602.470703125 459.133789062 599.779296875 450.350585938 597.228515625 c 0
 441.567382812 594.678710938 430.80078125 590.853515625 418.05078125 585.75390625 c 0
 405.30078125 580.654296875 392.125 573.287109375 378.525390625 563.654296875 c 0
 364.92578125 554.020507812 351.041992188 542.404296875 336.875 528.803710938 c 0
 322.142578125 514.071289062 306.984375 493.954101562 291.401367188 468.454101562 c 0
 275.818359375 442.954101562 264.342773438 420.287109375 256.9765625 400.454101562 c 1
 278.508789062 421.420898438 303.442382812 437.00390625 331.775390625 447.204101562 c 0
 360.108398438 457.404296875 390.42578125 462.50390625 422.725585938 462.50390625 c 0
 447.091796875 462.50390625 467.916992188 458.821289062 485.200195312 451.454101562 c 0
 502.483398438 444.086914062 516.225585938 432.469726562 526.42578125 416.603515625 c 0
 536.625 400.736328125 542.43359375 379.911132812 543.850585938 354.127929688 c 0
 544.065429688 350.220703125 544.172851562 346.206054688 544.172851562 342.084960938 c 0
 544.172851562 319.005859375 540.807617188 292.5625 534.076171875 262.75390625 c 0
222.975585938 249.15625 m 0
 221.69921875 239.801757812 221.060546875 230.368164062 221.060546875 220.85546875 c 0
 221.060546875 217.690429688 221.131835938 214.517578125 221.272460938 211.334960938 c 0
 221.83984375 198.584960938 224.106445312 185.692382812 228.073242188 172.66015625 c 0
 232.041015625 159.626953125 237.282226562 148.293945312 243.799804688 138.66015625 c 0
 250.31640625 129.02734375 259.241210938 121.235351562 270.57421875 115.28515625 c 0
 281.907226562 109.3359375 294.657226562 106.360351562 308.82421875 106.360351562 c 0
 328.091796875 106.360351562 348.208007812 113.727539062 369.17578125 128.4609375 c 0
 390.142578125 143.193359375 408.275390625 161.751953125 423.575195312 184.134765625 c 0
 438.875 206.517578125 449.075195312 229.326171875 454.17578125 252.55859375 c 0
 460.137695312 278.03515625 463.118164062 299.623046875 463.118164062 317.3203125 c 0
 463.118164062 336.740234375 459.529296875 351.365234375 452.475585938 361.357421875 c 0
 445.67578125 370.990234375 436.892578125 377.790039062 426.125 381.756835938 c 0
 415.358398438 385.724609375 401.475585938 387.70703125 384.475585938 387.70703125 c 0
 357.841796875 387.70703125 331.350585938 380.33984375 305 365.607421875 c 0
 278.650390625 350.874023438 255.55859375 332.173828125 235.725585938 309.506835938 c 1
 229.4921875 285.140625 225.2421875 265.0234375 222.975585938 249.15625 c 0
EndSplineSet
Validated: 524289
EndChar

StartChar: seven
Encoding: 55 55 34
Width: 570
VWidth: 901
GlyphClass: 2
Flags: HMW
HStem: 580.951 76.925
LayerCount: 2
Fore
SplineSet
218.661132812 73.9287109375 m 0
 209.028320312 59.1962890625 198.399414062 48.1435546875 186.782226562 40.7763671875 c 0
 177.8984375 35.142578125 169.595703125 32.326171875 161.873046875 32.326171875 c 0
 159.49609375 32.326171875 157.174804688 32.5927734375 154.907226562 33.1259765625 c 0
 144.140625 35.9599609375 137.765625 42.759765625 135.782226562 53.5263671875 c 0
 135.407226562 55.5634765625 135.219726562 57.6416015625 135.219726562 59.7587890625 c 0
 135.219726562 68.8359375 138.665039062 78.6591796875 145.557617188 89.2265625 c 0
 185.790039062 147.59375 228.0078125 205.676757812 272.20703125 263.4765625 c 0
 316.407226562 321.276367188 352.532226562 367.318359375 380.58203125 401.6015625 c 0
 408.6328125 435.884765625 434.982421875 469.176757812 459.6328125 501.4765625 c 0
 484.282226562 533.776367188 501.990234375 560.125976562 512.7578125 580.526367188 c 1
 488.029296875 581.454101562 462.290039062 581.91796875 435.538085938 581.91796875 c 0
 413.248046875 581.91796875 390.254882812 581.595703125 366.55859375 580.951171875 c 0
 314.424804688 579.534179688 279.858398438 576.559570312 262.858398438 572.026367188 c 0
 256.05859375 570.326171875 250.533203125 570.609375 246.283203125 572.875976562 c 0
 242.033203125 575.143554688 238.916015625 578.54296875 236.93359375 583.076171875 c 0
 234.950195312 587.609375 233.817382812 592.426757812 233.534179688 597.526367188 c 0
 233.250976562 602.625976562 233.392578125 607.7265625 233.959960938 612.826171875 c 0
 236.2265625 623.026367188 240.4765625 631.1015625 246.709960938 637.051757812 c 0
 252.943359375 643.000976562 262.860351562 647.393554688 276.459960938 650.2265625 c 0
 296.860351562 654.193359375 324.342773438 656.743164062 358.91015625 657.875976562 c 0
 376.193359375 658.443359375 392.768554688 658.7265625 408.634765625 658.7265625 c 0
 424.501953125 658.7265625 439.66015625 658.442382812 454.110351562 657.875976562 c 0
 483.009765625 656.743164062 511.202148438 655.610351562 538.684570312 654.477539062 c 0
 566.16796875 653.34375 581.04296875 652.77734375 583.309570312 652.77734375 c 0
 588.9765625 652.77734375 594.077148438 651.501953125 598.610351562 648.952148438 c 0
 603.142578125 646.40234375 607.110351562 642.293945312 610.509765625 636.626953125 c 0
 613.91015625 630.959960938 614.618164062 623.59375 612.634765625 614.526367188 c 0
 610.651367188 605.459960938 605.693359375 594.9765625 597.760742188 583.076171875 c 0
 586.427734375 566.076171875 567.161132812 540.434570312 539.9609375 506.151367188 c 0
 512.760742188 471.868164062 484.568359375 436.735351562 455.385742188 400.751953125 c 0
 426.203125 364.76953125 389.794921875 316.885742188 346.161132812 257.103515625 c 0
 302.528320312 197.3203125 260.028320312 136.26171875 218.661132812 73.9287109375 c 0
EndSplineSet
Validated: 524289
EndChar

StartChar: eight
Encoding: 56 56 35
Width: 570
VWidth: 901
GlyphClass: 2
Flags: HMW
HStem: 27.9576 73.0975<289.64 293.606> 600.854 61.2009<419.406 423.656>
VStem: 457.798 76.9258
LayerCount: 2
Fore
SplineSet
530.47265625 225.151367188 m 0
 526.505859375 207.017578125 520.129882812 188.888671875 511.346679688 170.755859375 c 0
 502.563476562 152.623046875 490.946289062 134.915039062 476.49609375 117.631835938 c 0
 462.046875 100.348632812 445.61328125 85.1904296875 427.196289062 72.1572265625 c 0
 408.779296875 59.125 386.821289062 48.5 361.321289062 40.2822265625 c 0
 335.821289062 32.0654296875 308.338867188 27.9580078125 278.87109375 27.9580078125 c 0
 252.23828125 27.9580078125 229.146484375 31.9248046875 209.596679688 39.857421875 c 0
 190.046875 47.791015625 175.029296875 57.8486328125 164.546875 70.0322265625 c 0
 154.063476562 82.21484375 146.130859375 96.806640625 140.747070312 113.806640625 c 0
 135.6328125 129.958007812 133.076171875 146.236328125 133.076171875 162.642578125 c 0
 133.076171875 172.08984375 133.780273438 192.338867188 139.47265625 218.35546875 c 0
 144.005859375 237.623046875 153.35546875 258.305664062 167.522460938 280.40625 c 0
 181.689453125 302.505859375 199.5390625 322.90625 221.072265625 341.60546875 c 0
 242.60546875 360.305664062 264.705078125 373.338867188 287.372070312 380.706054688 c 1
 262.439453125 394.873046875 244.872070312 413.430664062 234.672851562 436.380859375 c 0
 228.115234375 451.134765625 224.836914062 466.063476562 224.836914062 481.168945312 c 0
 224.836914062 489.559570312 225.848632812 498.005859375 227.872070312 506.505859375 c 0
 229.572265625 513.305664062 231.697265625 520.53125 234.247070312 528.180664062 c 0
 236.797851562 535.831054688 240.905273438 544.897460938 246.572265625 555.380859375 c 0
 252.239257812 565.864257812 258.614257812 575.921875 265.697265625 585.5546875 c 0
 272.780273438 595.188476562 281.705078125 604.6796875 292.47265625 614.030273438 c 0
 303.239257812 623.379882812 314.997070312 631.596679688 327.747070312 638.6796875 c 0
 340.497070312 645.762695312 355.655273438 651.4296875 373.22265625 655.6796875 c 0
 390.7890625 659.9296875 409.489257812 662.0546875 429.322265625 662.0546875 c 0
 449.72265625 662.0546875 467.713867188 659.9296875 483.297851562 655.6796875 c 0
 498.880859375 651.4296875 511.630859375 645.762695312 521.547851562 638.6796875 c 0
 531.463867188 631.596679688 539.5390625 623.379882812 545.772460938 614.030273438 c 0
 552.005859375 604.6796875 556.538085938 595.188476562 559.37109375 585.5546875 c 0
 562.205078125 575.921875 563.904296875 565.721679688 564.471679688 554.955078125 c 0
 564.698242188 550.6484375 564.811523438 546.546875 564.811523438 542.647460938 c 0
 564.811523438 536.798828125 564.556640625 531.41015625 564.046875 526.479492188 c 0
 563.196289062 518.262695312 561.921875 510.470703125 560.221679688 503.103515625 c 0
 558.521484375 496.303710938 556.11328125 489.50390625 552.99609375 482.703125 c 0
 549.879882812 475.903320312 546.479492188 469.953125 542.796875 464.853515625 c 0
 539.11328125 459.75390625 534.438476562 454.370117188 528.771484375 448.703125 c 0
 523.104492188 443.036132812 518.004882812 438.219726562 513.471679688 434.252929688 c 0
 508.938476562 430.286132812 503.130859375 425.752929688 496.047851562 420.65234375 c 0
 488.963867188 415.552734375 483.297851562 411.727539062 479.047851562 409.177734375 c 0
 474.797851562 406.627929688 469.130859375 403.0859375 462.047851562 398.552734375 c 0
 454.963867188 394.01953125 450.005859375 390.90234375 447.172851562 389.202148438 c 1
 464.740234375 380.135742188 479.615234375 369.935546875 491.797851562 358.602539062 c 0
 503.981445312 347.26953125 513.047851562 336.077148438 518.998046875 325.02734375 c 0
 524.948242188 313.977539062 529.198242188 302.219726562 531.748046875 289.752929688 c 0
 533.833984375 279.552734375 534.877929688 270.20703125 534.877929688 261.713867188 c 0
 534.877929688 259.826171875 534.826171875 257.98046875 534.723632812 256.176757812 c 0
 534.15625 246.259765625 532.739257812 235.91796875 530.47265625 225.151367188 c 0
302.671875 509.0546875 m 0
 301.482421875 504.151367188 300.888671875 499.392578125 300.888671875 494.78125 c 0
 300.888671875 481.807617188 305.591796875 469.991210938 314.998046875 459.330078125 c 0
 327.748046875 444.879882812 351.123046875 430.288085938 385.123046875 415.5546875 c 1
 409.490234375 425.188476562 432.015625 438.221679688 452.698242188 454.654296875 c 0
 473.380859375 471.086914062 485.139648438 486.387695312 487.97265625 500.5546875 c 0
 489.428710938 507.354492188 490.158203125 514.1015625 490.158203125 520.797851562 c 0
 490.158203125 529.725585938 488.86328125 538.561523438 486.272460938 547.3046875 c 0
 481.739257812 562.604492188 473.09765625 575.354492188 460.34765625 585.5546875 c 0
 447.59765625 595.75390625 432.439453125 600.854492188 414.872070312 600.854492188 c 0
 390.505859375 600.854492188 366.98828125 591.362304688 344.321289062 572.37890625 c 0
 321.654296875 553.396484375 307.771484375 532.288085938 302.671875 509.0546875 c 0
299.2734375 101.0546875 m 0
 314.573242188 101.0546875 330.439453125 103.458984375 346.872070312 108.276367188 c 0
 363.305664062 113.092773438 378.747070312 120.03515625 393.197265625 129.1015625 c 0
 407.647460938 138.168945312 420.397460938 150.068359375 431.447265625 164.801757812 c 0
 442.497070312 179.53515625 450.005859375 195.118164062 453.97265625 211.55078125 c 0
 455.4609375 217.502929688 457.83984375 228.759765625 457.83984375 239.978515625 c 0
 457.83984375 247.603515625 456.692382812 256.26171875 454.397460938 265.952148438 c 0
 451.84765625 276.719726562 447.455078125 286.63671875 441.22265625 295.703125 c 0
 434.989257812 304.770507812 425.639648438 314.262695312 413.172851562 324.1796875 c 0
 400.705078125 334.096679688 385.122070312 343.021484375 366.422851562 350.954101562 c 1
 325.622070312 340.1875 290.489257812 321.487304688 261.022460938 294.854492188 c 0
 231.555664062 268.221679688 213.138671875 239.887695312 205.771484375 209.85546875 c 0
 203.818359375 201.825195312 202.841796875 194.0859375 202.841796875 186.637695312 c 0
 202.841796875 174.638671875 205.375976562 163.393554688 210.446289062 152.905273438 c 0
 218.663085938 135.905273438 230.705078125 123.012695312 246.572265625 114.23046875 c 0
 262.439453125 105.447265625 280.005859375 101.0546875 299.2734375 101.0546875 c 0
EndSplineSet
Validated: 524289
EndChar

StartChar: nine
Encoding: 57 57 36
Width: 570
VWidth: 903
GlyphClass: 2
Flags: HMW
HStem: 35.0464 67.9967<200.733 200.733> 253.495 75.65<308.117 368.75> 610.492 71.4042<426.55 429.665>
LayerCount: 2
Fore
SplineSet
200.733398438 35.046875 m 0
 198.356445312 34.8310546875 196.0625 34.72265625 193.850585938 34.72265625 c 0
 184.458984375 34.72265625 176.551757812 36.6689453125 170.130859375 40.568359375 c 0
 163.188476562 44.783203125 159.717773438 51.2763671875 159.717773438 60.046875 c 0
 159.717773438 66.0302734375 160.397460938 74.658203125 174.381835938 86.8935546875 c 0
 183.448242188 94.8271484375 192.515625 100.209960938 201.58203125 103.04296875 c 0
 207.815429688 104.743164062 217.732421875 107.009765625 231.33203125 109.842773438 c 0
 244.932617188 112.67578125 257.2578125 115.651367188 268.307617188 118.768554688 c 0
 279.357421875 121.884765625 291.965820312 125.993164062 306.1328125 131.092773438 c 0
 320.298828125 136.193359375 334.32421875 143.276367188 348.20703125 152.342773438 c 0
 362.090820312 161.41015625 375.83203125 172.176757812 389.432617188 184.643554688 c 0
 406.432617188 201.077148438 422.58203125 220.202148438 437.8828125 242.018554688 c 0
 453.182617188 263.8359375 464.515625 283.528320312 471.8828125 301.094726562 c 1
 453.182617188 282.961914062 431.649414062 270.495117188 407.282226562 263.694335938 c 0
 382.915039062 256.89453125 353.732421875 253.495117188 319.732421875 253.495117188 c 0
 296.499023438 253.495117188 275.673828125 259.302734375 257.2578125 270.919921875 c 0
 238.840820312 282.537109375 224.532226562 297.978515625 214.33203125 317.24609375 c 0
 204.1328125 336.512695312 197.615234375 358.754882812 194.782226562 383.971679688 c 0
 193.837890625 392.375976562 193.366210938 400.829101562 193.366210938 409.328125 c 0
 193.366210938 426.329101562 195.254882812 443.518554688 199.033203125 460.897460938 c 0
 206.400390625 492.629882812 218.158203125 522.23828125 234.30859375 549.721679688 c 0
 250.458007812 577.204101562 269.158203125 600.579101562 290.408203125 619.846679688 c 0
 311.658203125 639.11328125 335.31640625 654.271484375 361.3828125 665.321289062 c 0
 387.450195312 676.37109375 413.516601562 681.896484375 439.583984375 681.896484375 c 0
 504.18359375 681.896484375 546.258789062 655.546875 565.80859375 602.846679688 c 0
 574.625 579.080078125 579.034179688 550.645507812 579.034179688 517.543945312 c 0
 579.034179688 477.24609375 572.5 430.030273438 559.43359375 375.896484375 c 0
 548.666992188 330.563476562 534.075195312 289.62109375 515.658203125 253.071289062 c 0
 497.241210938 216.521484375 476.69921875 185.49609375 454.032226562 159.99609375 c 0
 431.365234375 134.49609375 406.0078125 112.6796875 377.95703125 94.546875 c 0
 349.907226562 76.4130859375 321.290039062 62.671875 292.107421875 53.3212890625 c 0
 262.923828125 43.9716796875 232.465820312 37.8798828125 200.733398438 35.046875 c 0
278.930664062 471.092773438 m 0
 274.060546875 450.075195312 271.625976562 431.348632812 271.625976562 414.91015625 c 0
 271.625976562 395.006835938 275.196289062 378.459960938 282.333984375 365.26953125 c 0
 295.3671875 341.186523438 320.299804688 329.14453125 357.1328125 329.14453125 c 0
 380.366210938 329.14453125 404.44921875 334.811523438 429.3828125 346.14453125 c 0
 454.315429688 357.477539062 475.565429688 373.060546875 493.1328125 392.893554688 c 1
 497.665039062 409.327148438 502.765625 434.259765625 508.432617188 467.693359375 c 0
 509.70703125 477.04296875 510.344726562 486.471679688 510.344726562 495.981445312 c 0
 510.344726562 499.151367188 510.274414062 502.331054688 510.1328125 505.518554688 c 0
 509.565429688 518.268554688 507.298828125 531.16015625 503.331054688 544.193359375 c 0
 499.364257812 557.2265625 494.123046875 568.559570312 487.60546875 578.192382812 c 0
 481.088867188 587.825195312 472.1640625 595.6171875 460.831054688 601.567382812 c 0
 449.498046875 607.517578125 436.748046875 610.4921875 422.581054688 610.4921875 c 0
 402.748046875 610.4921875 382.772460938 603.692382812 362.655273438 590.092773438 c 0
 342.5390625 576.4921875 324.831054688 559.067382812 309.530273438 537.817382812 c 0
 294.23046875 516.567382812 284.030273438 494.325195312 278.930664062 471.092773438 c 0
EndSplineSet
Validated: 524289
EndChar

StartChar: colon
Encoding: 58 58 37
Width: 570
VWidth: 887
GlyphClass: 2
Flags: HMW
VStem: 259.391 164.047
LayerCount: 2
Fore
SplineSet
423.436523438 392.092773438 m 0
 420.603515625 373.392578125 414.08984375 353.556640625 403.890625 332.58984375 c 0
 398.790039062 321.256835938 391.140625 312.615234375 380.940429688 306.665039062 c 0
 371.627929688 301.233398438 363.0234375 298.515625 355.126953125 298.515625 c 0
 354.375 298.515625 353.629882812 298.541015625 352.890625 298.58984375 c 0
 324.7890625 300.123046875 310.739257812 310.868164062 310.739257812 330.828125 c 0
 310.739257812 333.005859375 310.90625 335.293945312 311.240234375 337.690429688 c 0
 313.506835938 352.990234375 317.474609375 372.540039062 323.141601562 396.33984375 c 0
 324.840820312 403.70703125 328.241210938 409.798828125 333.340820312 414.616210938 c 0
 338.44140625 419.432617188 344.108398438 422.974609375 350.340820312 425.241210938 c 0
 356.57421875 427.508789062 362.381835938 428.92578125 367.765625 429.4921875 c 0
 373.1484375 430.059570312 378.673828125 430.342773438 384.33984375 430.342773438 c 0
 388.873046875 430.342773438 393.40625 429.775390625 397.939453125 428.642578125 c 0
 402.47265625 427.509765625 407.005859375 425.666992188 411.5390625 423.1171875 c 0
 416.071289062 420.567382812 419.330078125 416.600585938 421.3125 411.217773438 c 0
 423.295898438 405.833984375 424.00390625 399.458984375 423.436523438 392.092773438 c 0
371.58984375 165.139648438 m 0
 370.45703125 145.306640625 364.791015625 124.903320312 354.590820312 103.936523438 c 0
 349.491210938 92.603515625 340.991210938 84.2451171875 329.090820312 78.8623046875 c 0
 318.325195312 73.9921875 308.71875 71.556640625 300.271484375 71.556640625 c 0
 299.381835938 71.556640625 298.504882812 71.583984375 297.641601562 71.638671875 c 0
 286.874023438 72.205078125 277.381835938 75.7470703125 269.165039062 82.263671875 c 0
 262.357421875 87.6640625 258.953125 94.9111328125 258.953125 104.006835938 c 0
 258.953125 105.887695312 259.098632812 107.848632812 259.390625 109.888671875 c 0
 261.657226562 121.7890625 263.07421875 129.296875 263.641601562 132.4140625 c 0
 264.208007812 135.53125 265.766601562 141.338867188 268.31640625 149.838867188 c 0
 270.866210938 158.338867188 272.708007812 164.856445312 273.840820312 169.388671875 c 0
 275.541015625 176.189453125 278.798828125 182.138671875 283.616210938 187.239257812 c 0
 288.432617188 192.338867188 293.81640625 195.880859375 299.766601562 197.864257812 c 0
 305.715820312 199.84765625 311.3828125 201.263671875 316.766601562 202.114257812 c 0
 322.149414062 202.963867188 327.391601562 203.388671875 332.491210938 203.388671875 c 0
 338.724609375 203.388671875 344.673828125 202.397460938 350.340820312 200.4140625 c 0
 356.0078125 198.430664062 361.108398438 194.323242188 365.641601562 188.08984375 c 0
 370.173828125 181.856445312 372.157226562 174.20703125 371.58984375 165.139648438 c 0
EndSplineSet
Validated: 524289
EndChar

StartChar: semicolon
Encoding: 59 59 38
Width: 570
VWidth: 864
GlyphClass: 2
Flags: HMW
VStem: 178.974 255.845
LayerCount: 2
Fore
SplineSet
434.819335938 333.322265625 m 0
 431.986328125 314.623046875 425.190429688 294.7890625 414.422851562 273.822265625 c 0
 409.323242188 262.489257812 401.672851562 253.846679688 391.473632812 247.896484375 c 0
 382.16015625 242.46484375 373.79296875 239.748046875 366.369140625 239.748046875 c 0
 365.662109375 239.748046875 364.962890625 239.772460938 364.2734375 239.822265625 c 0
 357.473632812 240.388671875 350.815429688 241.947265625 344.297851562 244.497070312 c 0
 337.78125 247.046875 332.114257812 251.438476562 327.296875 257.671875 c 0
 322.48046875 263.905273438 320.638671875 271.271484375 321.771484375 279.771484375 c 0
 324.038085938 295.072265625 328.571289062 314.622070312 335.37109375 338.421875 c 0
 337.071289062 345.221679688 340.329101562 351.171875 345.146484375 356.271484375 c 0
 349.963867188 361.372070312 355.48828125 364.9140625 361.721679688 366.896484375 c 0
 367.954101562 368.879882812 373.904296875 370.296875 379.571289062 371.146484375 c 0
 385.23828125 371.997070312 390.338867188 372.138671875 394.87109375 371.572265625 c 0
 399.971679688 371.572265625 404.788085938 371.146484375 409.321289062 370.296875 c 0
 413.854492188 369.447265625 418.387695312 367.604492188 422.920898438 364.771484375 c 0
 427.454101562 361.938476562 430.711914062 357.831054688 432.6953125 352.447265625 c 0
 434.677734375 347.064453125 435.385742188 340.689453125 434.819335938 333.322265625 c 0
360.0234375 77.4716796875 m 0
 354.356445312 59.3388671875 320.07421875 -14.6123046875 257.173828125 -144.37890625 c 0
 251.506835938 -156.279296875 244.282226562 -164.920898438 235.499023438 -170.303710938 c 0
 227.552734375 -175.173828125 219.72265625 -177.609375 212.0078125 -177.609375 c 0
 211.1953125 -177.609375 210.383789062 -177.58203125 209.57421875 -177.528320312 c 0
 198.806640625 -176.9609375 190.024414062 -173.278320312 183.223632812 -166.478515625 c 0
 178.928710938 -162.18359375 176.782226562 -156.872070312 176.782226562 -150.541992188 c 0
 176.782226562 -146.850585938 177.512695312 -142.8125 178.973632812 -138.427734375 c 0
 182.94140625 -124.828125 196.116210938 -91.677734375 218.499023438 -38.978515625 c 0
 240.881835938 13.7216796875 258.306640625 53.955078125 270.774414062 81.7216796875 c 0
 274.741210938 90.2216796875 278.848632812 97.021484375 283.098632812 102.122070312 c 0
 287.348632812 107.221679688 291.45703125 110.622070312 295.423828125 112.322265625 c 0
 299.390625 114.021484375 303.640625 115.155273438 308.173828125 115.721679688 c 0
 312.70703125 116.2890625 316.673828125 116.2890625 320.07421875 115.721679688 c 0
 325.173828125 115.721679688 330.274414062 115.013671875 335.374023438 113.596679688 c 0
 340.473632812 112.1796875 345.431640625 110.197265625 350.249023438 107.646484375 c 0
 355.06640625 105.096679688 358.465820312 101.271484375 360.44921875 96.171875 c 0
 362.431640625 91.072265625 362.290039062 84.8388671875 360.0234375 77.4716796875 c 0
EndSplineSet
Validated: 524289
EndChar

StartChar: less
Encoding: 60 60 39
Width: 570
VWidth: 902
GlyphClass: 2
Flags: W
LayerCount: 2
Fore
SplineSet
492.76171875 64.4111328125 m 0
 488.794921875 58.744140625 483.837890625 53.9287109375 477.887695312 49.9619140625 c 0
 471.9375 45.994140625 464.287109375 43.4443359375 454.9375 42.3115234375 c 0
 453.068359375 42.0849609375 451.158203125 41.9716796875 449.208984375 41.9716796875 c 0
 441.411132812 41.9716796875 432.979492188 43.78515625 423.912109375 47.4111328125 c 0
 412.012695312 51.9443359375 398.129882812 61.861328125 382.262695312 77.1611328125 c 0
 366.395507812 92.4619140625 349.678710938 110.736328125 332.111328125 131.986328125 c 0
 314.544921875 153.236328125 297.26171875 174.911132812 280.26171875 197.01171875 c 0
 263.26171875 219.111328125 245.26953125 241.919921875 226.287109375 265.436523438 c 0
 207.303710938 288.953125 190.728515625 307.228515625 176.561523438 320.26171875 c 0
 170.89453125 325.361328125 168.061523438 333.01171875 168.061523438 343.211914062 c 0
 168.061523438 353.411132812 170.469726562 363.186523438 175.287109375 372.536132812 c 0
 180.103515625 381.88671875 186.1953125 388.544921875 193.5625 392.51171875 c 0
 228.6953125 416.311523438 270.770507812 446.203125 319.787109375 482.186523438 c 0
 368.8046875 518.169921875 413.4296875 550.752929688 453.662109375 579.935546875 c 0
 493.895507812 609.119140625 529.028320312 632.2109375 559.061523438 649.2109375 c 0
 568.694335938 654.877929688 577.194335938 657.852539062 584.561523438 658.135742188 c 0
 591.928710938 658.418945312 597.87890625 657.001953125 602.412109375 653.884765625 c 0
 606.944335938 650.767578125 610.486328125 646.943359375 613.037109375 642.41015625 c 0
 615.586914062 637.876953125 617.428710938 633.059570312 618.561523438 627.959960938 c 0
 619.065429688 625.819335938 619.317382812 623.670898438 619.317382812 621.515625 c 0
 619.317382812 613.974609375 616.232421875 606.34765625 610.0625 598.634765625 c 0
 602.129882812 588.717773438 587.6796875 576.959960938 566.712890625 563.360351562 c 0
 532.145507812 541.259765625 478.87890625 504.993164062 406.912109375 454.559570312 c 0
 334.944335938 404.126953125 289.328125 372.110351562 270.060546875 358.509765625 c 1
 286.494140625 341.509765625 304.486328125 320.967773438 324.036132812 296.884765625 c 0
 343.5859375 272.801757812 360.5859375 250.985351562 375.036132812 231.434570312 c 0
 389.486328125 211.884765625 405.494140625 191.91015625 423.060546875 171.509765625 c 0
 440.627929688 151.110351562 456.495117188 134.959960938 470.662109375 123.059570312 c 0
 484.829101562 111.16015625 493.611328125 100.818359375 497.01171875 92.03515625 c 0
 498.211914062 88.935546875 498.811523438 85.7822265625 498.811523438 82.5771484375 c 0
 498.811523438 76.69921875 496.794921875 70.6435546875 492.76171875 64.4111328125 c 0
EndSplineSet
Validated: 524289
EndChar

StartChar: equal
Encoding: 61 61 40
Width: 570
VWidth: 908
GlyphClass: 2
Flags: HMW
HStem: 268.077 70.55<225.731 250.098> 434.679 72.2508
LayerCount: 2
Fore
SplineSet
286.649414062 506.9296875 m 0
 316.682617188 505.796875 347.423828125 505.2265625 378.873046875 505.2265625 c 0
 410.323242188 505.2265625 439.931640625 505.509765625 467.698242188 506.077148438 c 0
 495.46484375 506.643554688 512.182617188 506.926757812 517.849609375 506.926757812 c 0
 530.31640625 506.926757812 538.249023438 504.09375 541.649414062 498.426757812 c 0
 545.048828125 492.759765625 545.899414062 485.109375 544.19921875 475.4765625 c 0
 543.06640625 470.376953125 541.649414062 465.702148438 539.94921875 461.452148438 c 0
 538.249023438 457.202148438 535.69921875 453.09375 532.298828125 449.126953125 c 0
 528.899414062 445.16015625 524.649414062 442.184570312 519.548828125 440.202148438 c 0
 514.44921875 438.21875 508.782226562 437.510742188 502.548828125 438.077148438 c 0
 490.076171875 438.456054688 477.037109375 438.64453125 463.4296875 438.64453125 c 0
 456.635742188 438.64453125 449.700195312 438.59765625 442.624023438 438.502929688 c 0
 421.374023438 438.220703125 392.19140625 437.512695312 355.07421875 436.37890625 c 0
 317.95703125 435.24609375 290.899414062 434.6796875 273.899414062 434.6796875 c 0
 260.866210938 434.6796875 251.374023438 438.079101562 245.423828125 444.87890625 c 0
 239.474609375 451.6796875 237.631835938 459.896484375 239.899414062 469.529296875 c 0
 241.599609375 480.295898438 246.557617188 489.36328125 254.774414062 496.73046875 c 0
 262.404296875 503.5703125 272.109375 506.990234375 283.892578125 506.990234375 c 0
 284.798828125 506.990234375 285.717773438 506.970703125 286.649414062 506.9296875 c 0
250.098632812 338.626953125 m 0
 263.912109375 338.4375 278.515625 338.342773438 293.909179688 338.342773438 c 0
 324.61328125 338.342773438 358.458007812 338.719726562 395.447265625 339.474609375 c 0
 450.98046875 340.607421875 479.030273438 341.173828125 479.59765625 341.173828125 c 0
 492.064453125 341.173828125 499.998046875 338.19921875 503.397460938 332.249023438 c 0
 506.797851562 326.298828125 507.647460938 318.506835938 505.947265625 308.874023438 c 0
 504.814453125 303.774414062 503.256835938 299.099609375 501.2734375 294.849609375 c 0
 499.290039062 290.599609375 496.740234375 286.491210938 493.623046875 282.524414062 c 0
 490.506835938 278.557617188 486.3984375 275.58203125 481.298828125 273.599609375 c 0
 476.198242188 271.616210938 470.53125 270.908203125 464.298828125 271.474609375 c 0
 451.825195312 271.853515625 438.66015625 272.041992188 424.80078125 272.041992188 c 0
 417.880859375 272.041992188 410.788085938 271.995117188 403.5234375 271.901367188 c 0
 381.706054688 271.618164062 351.956054688 270.91015625 314.2734375 269.776367188 c 0
 276.58984375 268.643554688 249.248046875 268.077148438 232.248046875 268.077148438 c 0
 219.21484375 268.077148438 210.290039062 271.619140625 205.473632812 278.702148438 c 0
 202.198242188 283.517578125 200.560546875 289.055664062 200.560546875 295.313476562 c 0
 200.560546875 298.258789062 200.922851562 301.36328125 201.6484375 304.626953125 c 0
 203.348632812 314.259765625 208.448242188 322.334960938 216.948242188 328.8515625 c 0
 225.448242188 335.369140625 236.498046875 338.626953125 250.098632812 338.626953125 c 0
EndSplineSet
Validated: 524289
EndChar

StartChar: greater
Encoding: 62 62 41
Width: 570
VWidth: 903
GlyphClass: 2
Flags: W
LayerCount: 2
Fore
SplineSet
170.592773438 57.818359375 m 0
 161.526367188 52.7177734375 153.166992188 49.884765625 145.516601562 49.3173828125 c 0
 137.8671875 48.75 131.775390625 50.025390625 127.2421875 53.142578125 c 0
 122.708984375 56.259765625 119.166992188 60.083984375 116.6171875 64.6171875 c 0
 114.067382812 69.150390625 112.225585938 73.9677734375 111.091796875 79.0673828125 c 0
 110.587890625 81.2080078125 110.336914062 83.3564453125 110.336914062 85.51171875 c 0
 110.336914062 93.052734375 113.420898438 100.6796875 119.590820312 108.392578125 c 0
 127.524414062 118.309570312 142.2578125 130.067382812 163.790039062 143.666992188 c 0
 198.357421875 165.767578125 251.482421875 202.034179688 323.165039062 252.467773438 c 0
 394.848632812 302.900390625 440.606445312 334.916992188 460.439453125 348.517578125 c 1
 444.006835938 365.517578125 425.873046875 386.059570312 406.040039062 410.142578125 c 0
 386.20703125 434.225585938 368.923828125 456.041992188 354.19140625 475.592773438 c 0
 339.458007812 495.142578125 323.450195312 515.1171875 306.166992188 535.517578125 c 0
 288.883789062 555.916992188 273.159179688 572.067382812 258.9921875 583.967773438 c 0
 244.825195312 595.8671875 236.041992188 606.208984375 232.641601562 614.9921875 c 0
 231.44140625 618.091796875 230.842773438 621.245117188 230.842773438 624.450195312 c 0
 230.842773438 630.328125 232.858398438 636.383789062 236.891601562 642.616210938 c 0
 240.859375 648.283203125 245.817382812 653.100585938 251.766601562 657.067382812 c 0
 257.716796875 661.034179688 265.3671875 663.583984375 274.716796875 664.717773438 c 0
 276.5859375 664.944335938 278.49609375 665.056640625 280.4453125 665.056640625 c 0
 288.243164062 665.056640625 296.674804688 663.244140625 305.7421875 659.6171875 c 0
 317.641601562 655.083984375 331.666992188 645.309570312 347.817382812 630.291992188 c 0
 363.966796875 615.275390625 380.68359375 597 397.966796875 575.467773438 c 0
 415.25 553.934570312 432.391601562 532.1171875 449.391601562 510.017578125 c 0
 466.391601562 487.916992188 484.383789062 465.25 503.3671875 442.017578125 c 0
 522.350585938 418.784179688 539.208007812 400.3671875 553.94140625 386.767578125 c 0
 559.041015625 381.666992188 561.44921875 374.017578125 561.166015625 363.817382812 c 0
 560.8828125 353.6171875 558.475585938 343.842773438 553.942382812 334.4921875 c 0
 549.409179688 325.142578125 543.458984375 318.484375 536.091796875 314.517578125 c 0
 500.958984375 290.717773438 458.883789062 260.825195312 409.8671875 224.842773438 c 0
 360.850585938 188.859375 316.225585938 156.276367188 275.9921875 127.092773438 c 0
 235.758789062 97.91015625 200.625976562 74.818359375 170.592773438 57.818359375 c 0
EndSplineSet
Validated: 524289
EndChar

StartChar: question
Encoding: 63 63 42
Width: 570
VWidth: 903
GlyphClass: 2
Flags: HMW
HStem: 41.1543 130.898 595.357 71.4009<416.922 427.686>
VStem: 225.106 128.35 289.704 80.7508
LayerCount: 2
Fore
SplineSet
370.454101562 275.7578125 m 0xd0
 364.788085938 261.024414062 357.278320312 249.688476562 347.928710938 241.754882812 c 0
 341.6953125 236.466796875 334.517578125 233.822265625 326.396484375 233.822265625 c 0
 322.334960938 233.822265625 318.038085938 234.483398438 313.50390625 235.805664062 c 0
 299.903320312 239.772460938 291.970703125 247.139648438 289.704101562 257.907226562 c 0
 289.2265625 260.173828125 288.98828125 262.603515625 288.98828125 265.197265625 c 0
 288.98828125 274.921875 292.34375 286.94140625 299.053710938 301.256835938 c 0
 306.420898438 316.556640625 315.204101562 331.006835938 325.403320312 344.606445312 c 0
 335.603515625 358.20703125 345.9453125 369.823242188 356.428710938 379.45703125 c 0
 366.912109375 389.08984375 377.8203125 398.297851562 389.153320312 407.081054688 c 0
 400.486328125 415.864257812 411.252929688 424.081054688 421.453125 431.73046875 c 0
 431.653320312 439.380859375 441.14453125 447.172851562 449.927734375 455.10546875 c 0
 458.7109375 463.0390625 466.21875 471.680664062 472.452148438 481.03125 c 0
 478.685546875 490.380859375 482.935546875 500.439453125 485.202148438 511.206054688 c 0
 487.567382812 521.455078125 488.75 530.727539062 488.75 539.0234375 c 0
 488.75 554.577148438 484.591796875 566.696289062 476.27734375 575.381835938 c 0
 463.52734375 588.698242188 442.418945312 595.356445312 412.952148438 595.356445312 c 0
 405.584960938 595.356445312 397.65234375 593.514648438 389.15234375 589.83203125 c 0
 380.65234375 586.1484375 373.28515625 582.041015625 367.051757812 577.5078125 c 0
 360.819335938 572.974609375 353.59375 566.8828125 345.376953125 559.232421875 c 0
 337.16015625 551.583007812 330.78515625 545.065429688 326.251953125 539.682617188 c 0
 321.71875 534.299804688 316.3359375 527.924804688 310.102539062 520.557617188 c 0
 303.870117188 513.190429688 298.061523438 507.3828125 292.678710938 503.1328125 c 0
 287.295898438 498.8828125 282.337890625 496.615234375 277.8046875 496.333007812 c 0
 273.271484375 496.049804688 269.163085938 496.333007812 265.48046875 497.182617188 c 0
 261.796875 498.032226562 257.122070312 499.875 251.455078125 502.708007812 c 0
 243.522460938 507.807617188 239.697265625 515.174804688 239.98046875 524.807617188 c 0
 240.263671875 534.440429688 245.505859375 546.907226562 255.705078125 562.208007812 c 0
 264.205078125 574.107421875 273.838867188 585.583007812 284.60546875 596.6328125 c 0
 295.372070312 607.682617188 308.122070312 618.732421875 322.85546875 629.782226562 c 0
 337.588867188 640.833007812 354.021484375 649.7578125 372.154296875 656.557617188 c 0
 390.288085938 663.357421875 408.137695312 666.7578125 425.704101562 666.7578125 c 0
 482.9375 666.7578125 523.029296875 652.590820312 545.979492188 624.2578125 c 0
 560.6171875 606.186523438 567.935546875 582.353515625 567.935546875 552.756835938 c 0
 567.935546875 535.94921875 565.575195312 517.283203125 560.854492188 496.7578125 c 0
 557.454101562 481.458007812 551.9296875 467.57421875 544.279296875 455.107421875 c 0
 536.629882812 442.640625 528.129882812 431.874023438 518.779296875 422.806640625 c 0
 509.4296875 413.740234375 499.229492188 405.240234375 488.1796875 397.306640625 c 0
 477.129882812 389.374023438 465.9375 381.440429688 454.604492188 373.5078125 c 0
 443.271484375 365.57421875 432.36328125 357.357421875 421.880859375 348.857421875 c 0
 411.397460938 340.357421875 401.622070312 329.732421875 392.555664062 316.982421875 c 0
 383.48828125 304.232421875 376.12109375 290.490234375 370.454101562 275.7578125 c 0xd0
276.103515625 41.154296875 m 0
 273.239257812 40.8359375 270.486328125 40.6767578125 267.845703125 40.6767578125 c 0
 251.678710938 40.6767578125 239.700195312 46.6416015625 231.90625 58.576171875 c 0
 225.861328125 67.8310546875 222.838867188 78.158203125 222.838867188 89.5546875 c 0
 222.838867188 95.2529296875 223.594726562 101.217773438 225.10546875 107.451171875 c 0
 229.072265625 125.017578125 239.272460938 140.03515625 255.705078125 152.501953125 c 0
 272.138671875 164.96875 288.85546875 171.485351562 305.85546875 172.052734375 c 0
 306.6875 172.077148438 307.508789062 172.090820312 308.3203125 172.090820312 c 0
 325.767578125 172.090820312 338.6875 166.26953125 347.080078125 154.62890625 c 0
 352.873046875 146.592773438 355.770507812 137.139648438 355.770507812 126.267578125 c 0
 355.770507812 120.657226562 354.998046875 114.668945312 353.455078125 108.303710938 c 0xe0
 349.48828125 90.169921875 340.421875 75.0126953125 326.254882812 62.8291015625 c 0
 312.087890625 50.646484375 295.37109375 43.4208984375 276.103515625 41.154296875 c 0
EndSplineSet
Validated: 524289
EndChar

StartChar: at
Encoding: 64 64 43
Width: 570
VWidth: 893
GlyphClass: 2
Flags: HMW
HStem: -66.6135 72.2467<248.692 289.774> 129.738 66.2958<419.542 456.091> 143.338 67.995<318.391 325.475> 564.081 76.5066<430.307 433.425>
VStem: 121.048 72.6758 390.075 68.85 518 64.1741
LayerCount: 2
Fore
SplineSet
458.919921875 47.2861328125 m 0xde
 454.38671875 39.353515625 449.860351562 32.4111328125 445.327148438 26.4609375 c 0
 440.793945312 20.5107421875 435.126953125 13.1435546875 428.327148438 4.3603515625 c 0
 421.526367188 -4.4228515625 414.443359375 -11.9306640625 407.077148438 -18.1630859375 c 0
 399.709960938 -24.396484375 390.926757812 -30.771484375 380.7265625 -37.2880859375 c 0
 370.526367188 -43.8056640625 359.759765625 -49.1884765625 348.426757812 -53.4384765625 c 0
 337.09375 -57.6884765625 323.918945312 -61.0888671875 308.901367188 -63.638671875 c 0
 296.616210938 -65.724609375 284.044921875 -66.767578125 271.189453125 -66.767578125 c 0
 268.333007812 -66.767578125 265.4609375 -66.716796875 262.576171875 -66.61328125 c 0
 234.80859375 -66.61328125 210.442382812 -59.24609375 189.475585938 -44.513671875 c 0
 168.5078125 -29.7802734375 152.215820312 -9.23828125 140.599609375 17.111328125 c 0
 128.982421875 43.4619140625 122.465820312 75.478515625 121.048828125 113.161132812 c 0
 120.875976562 117.7578125 120.7890625 122.40625 120.7890625 127.107421875 c 0
 120.7890625 160.953125 125.267578125 197.530273438 134.223632812 236.836914062 c 0
 146.123046875 286.703125 160.573242188 333.169921875 177.573242188 376.237304688 c 0
 194.573242188 419.3046875 213.415039062 456.846679688 234.098632812 488.86328125 c 0
 254.78125 520.879882812 276.598632812 548.36328125 299.548828125 571.313476562 c 0
 322.498046875 594.263671875 346.15625 611.545898438 370.5234375 623.163085938 c 0
 394.890625 634.780273438 418.690429688 640.587890625 441.923828125 640.587890625 c 0
 459.490234375 640.587890625 475.215820312 639.030273438 489.098632812 635.913085938 c 0
 502.981445312 632.795898438 515.873046875 627.696289062 527.7734375 620.61328125 c 0
 539.673828125 613.530273438 549.306640625 604.038085938 556.673828125 592.138671875 c 0
 564.040039062 580.23828125 570.1328125 565.36328125 574.94921875 547.513671875 c 0
 579.766601562 529.663085938 582.174804688 508.837890625 582.174804688 485.038085938 c 0
 582.174804688 461.23828125 579.907226562 433.188476562 575.374023438 400.888671875 c 0
 570.840820312 368.587890625 564.041015625 332.321289062 554.974609375 292.087890625 c 0
 550.44140625 271.688476562 544.6328125 252.280273438 537.549804688 233.86328125 c 0
 530.466796875 215.446289062 522.109375 198.163085938 512.475585938 182.013671875 c 0
 502.842773438 165.86328125 491.651367188 153.11328125 478.901367188 143.763671875 c 0
 466.151367188 134.413085938 452.693359375 129.73828125 438.526367188 129.73828125 c 0xde
 405.913085938 129.73828125 389.607421875 147.298828125 389.607421875 182.420898438 c 0
 389.607421875 188.186523438 390.045898438 194.42578125 390.924804688 201.138671875 c 1
 369.958007812 162.60546875 342.475585938 143.337890625 308.475585938 143.337890625 c 0
 277.30859375 143.337890625 255.491210938 153.821289062 243.024414062 174.788085938 c 0
 236.16796875 186.319335938 232.739257812 201.194335938 232.739257812 219.411132812 c 0
 232.739257812 234.31640625 235.034179688 251.458007812 239.624023438 270.838867188 c 0
 244.724609375 292.372070312 251.524414062 312.205078125 260.024414062 330.337890625 c 0
 268.524414062 348.471679688 278.016601562 363.913085938 288.499023438 376.663085938 c 0
 298.982421875 389.413085938 310.45703125 400.1796875 322.924804688 408.962890625 c 0
 335.391601562 417.74609375 347.999023438 423.979492188 360.749023438 427.662109375 c 0
 371.798828125 430.853515625 382.84765625 432.450195312 393.896484375 432.450195312 c 0
 398.999023438 432.336914062 l 0
 411.749023438 431.76953125 423.791015625 428.65234375 435.124023438 422.985351562 c 0
 446.45703125 417.885742188 454.674804688 411.0859375 459.774414062 402.5859375 c 0
 464.874023438 394.0859375 464.874023438 386.435546875 459.774414062 379.635742188 c 0
 456.94140625 375.102539062 453.82421875 371.419921875 450.424804688 368.586914062 c 0
 447.024414062 365.75390625 443.340820312 363.770507812 439.374023438 362.637695312 c 0
 435.407226562 361.50390625 431.865234375 360.654296875 428.748046875 360.086914062 c 0
 425.631835938 359.520507812 421.665039062 359.662109375 416.84765625 360.512695312 c 0
 412.030273438 361.362304688 408.34765625 362.0703125 405.797851562 362.637695312 c 0
 403.248046875 363.204101562 399.706054688 364.336914062 395.172851562 366.037109375 c 0
 388.939453125 367.169921875 382.28125 367.453125 375.198242188 366.88671875 c 0
 368.115234375 366.319335938 361.032226562 363.911132812 353.94921875 359.661132812 c 0
 346.866210938 355.411132812 340.06640625 350.028320312 333.549804688 343.51171875 c 0
 327.032226562 336.994140625 321.08203125 328.352539062 315.69921875 317.5859375 c 0
 310.31640625 306.818359375 305.924804688 294.635742188 302.524414062 281.036132812 c 0
 300.82421875 273.668945312 299.69140625 266.7265625 299.124023438 260.209960938 c 0
 298.557617188 253.693359375 298.415039062 246.326171875 298.698242188 238.109375 c 0
 298.981445312 229.892578125 301.106445312 223.375 305.073242188 218.55859375 c 0
 309.040039062 213.741210938 314.70703125 211.333007812 322.07421875 211.333007812 c 0xbe
 338.5078125 211.333007812 351.82421875 218.275390625 362.024414062 232.158203125 c 0
 372.224609375 246.041015625 381.57421875 269.1328125 390.07421875 301.43359375 c 0
 392.340820312 310.5 400.840820312 317.8671875 415.57421875 323.534179688 c 0
 424.760742188 327.142578125 432.806640625 328.947265625 439.713867188 328.947265625 c 0
 444.737304688 328.947265625 449.157226562 327.9921875 452.975585938 326.083984375 c 0
 459.208007812 323.250976562 461.19140625 317.583984375 458.924804688 309.083984375 c 0
 448.724609375 279.05078125 442.491210938 255.67578125 440.224609375 238.958984375 c 0
 439.090820312 230.600585938 438.524414062 223.588867188 438.524414062 217.921875 c 0
 438.524414062 212.254882812 439.090820312 207.93359375 440.224609375 204.958984375 c 0
 442.491210938 199.008789062 447.024414062 196.034179688 453.82421875 196.034179688 c 0
 458.357421875 196.034179688 463.032226562 199.716796875 467.849609375 207.083984375 c 0
 472.666015625 214.451171875 477.05859375 224.083984375 481.025390625 235.984375 c 0
 484.9921875 247.883789062 488.25 258.3671875 490.799804688 267.43359375 c 0
 493.350585938 276.500976562 495.475585938 285.284179688 497.174804688 293.784179688 c 0
 503.975585938 322.68359375 509.075195312 349.317382812 512.475585938 373.68359375 c 0
 515.875 398.05078125 517.716796875 418.875976562 518 436.159179688 c 0
 518.028320312 437.88671875 518.04296875 439.596679688 518.04296875 441.290039062 c 0
 518.04296875 456.540039062 516.895507812 470.412109375 514.600585938 482.908203125 c 0
 512.049804688 496.791015625 509.216796875 508.124023438 506.100585938 516.907226562 c 0
 502.983398438 525.690429688 498.450195312 533.198242188 492.5 539.431640625 c 0
 486.549804688 545.665039062 481.166992188 550.33984375 476.350585938 553.45703125 c 0
 471.533203125 556.573242188 465.725585938 558.981445312 458.924804688 560.681640625 c 0
 452.125 562.381835938 447.025390625 563.373046875 443.625 563.65625 c 0
 440.225585938 563.939453125 435.975585938 564.08203125 430.875 564.08203125 c 0
 409.908203125 564.08203125 388.516601562 556.998046875 366.69921875 542.83203125 c 0
 344.8828125 528.665039062 324.19921875 508.97265625 304.649414062 483.755859375 c 0
 285.099609375 458.5390625 266.965820312 427.23046875 250.249023438 389.831054688 c 0
 233.532226562 352.430664062 220.07421875 311.630859375 209.874023438 267.430664062 c 0
 200.807617188 228.897460938 195.424804688 194.189453125 193.724609375 163.306640625 c 0
 193.260742188 154.884765625 193.028320312 146.905273438 193.028320312 139.3671875 c 0
 193.028320312 119.266601562 194.677734375 102.313476562 197.974609375 88.5078125 c 0
 202.5078125 69.5244140625 209.165039062 53.5166015625 217.948242188 40.4833984375 c 0
 226.731445312 27.4501953125 236.506835938 18.3828125 247.2734375 13.283203125 c 0
 258.040039062 8.18359375 269.940429688 5.6328125 282.973632812 5.6328125 c 0
 296.573242188 5.6328125 309.465820312 7.0498046875 321.6484375 9.8828125 c 0
 333.83203125 12.7158203125 344.173828125 16.1162109375 352.673828125 20.0830078125 c 0
 361.173828125 24.0498046875 369.53125 29.43359375 377.748046875 36.2333984375 c 0
 385.965820312 43.033203125 392.765625 49.2666015625 398.1484375 54.93359375 c 0
 403.53125 60.6005859375 409.623046875 67.966796875 416.423828125 77.0341796875 c 0
 419.256835938 81.0009765625 421.665039062 84.1181640625 423.647460938 86.384765625 c 0
 425.630859375 88.6513671875 428.0390625 91.34375 430.872070312 94.4609375 c 0
 433.705078125 97.578125 436.11328125 99.8447265625 438.095703125 101.26171875 c 0
 440.079101562 102.678710938 442.345703125 103.953125 444.896484375 105.086914062 c 0
 447.446289062 106.219726562 449.99609375 106.786132812 452.545898438 106.786132812 c 0
 455.095703125 106.786132812 457.50390625 106.219726562 459.771484375 105.086914062 c 0
 463.73828125 103.38671875 466.712890625 101.26171875 468.696289062 98.7119140625 c 0
 470.678710938 96.1611328125 472.095703125 92.76171875 472.946289062 88.51171875 c 0
 473.795898438 84.26171875 473.087890625 78.5947265625 470.821289062 71.51171875 c 0
 468.553710938 64.4287109375 464.586914062 56.353515625 458.919921875 47.2861328125 c 0xde
EndSplineSet
Validated: 524289
EndChar

StartChar: A
Encoding: 65 65 44
Width: 570
VWidth: 903
GlyphClass: 2
Flags: HMW
HStem: 267.328 68.855
VStem: 437.489 77.7759
LayerCount: 2
Fore
SplineSet
166.338867188 88.828125 m 2
 157.271484375 71.26171875 147.071289062 59.6494140625 135.73828125 53.982421875 c 0
 129.442382812 50.833984375 123.583007812 49.259765625 118.161132812 49.259765625 c 0
 113.823242188 49.259765625 109.765625 50.2666015625 105.98828125 52.28125 c 0
 97.32421875 57.0615234375 92.9912109375 65.30859375 92.9912109375 77.021484375 c 0
 92.9912109375 87.5224609375 96.4736328125 100.80859375 103.438476562 116.881835938 c 0
 110.805664062 135.014648438 136.305664062 179.21484375 179.938476562 249.481445312 c 1
 173.768554688 254.76953125 170.68359375 260.916015625 170.68359375 267.91796875 c 0
 170.68359375 269.919921875 170.935546875 271.991210938 171.439453125 274.131835938 c 0
 172.572265625 282.064453125 177.671875 289.572265625 186.739257812 296.655273438 c 0
 195.806640625 303.739257812 206.2890625 309.263671875 218.189453125 313.23046875 c 1
 320.189453125 475.297851562 394.989257812 583.530273438 442.588867188 637.930664062 c 0
 452.7890625 649.263671875 461.572265625 657.48046875 468.939453125 662.581054688 c 0
 476.306640625 667.680664062 483.672851562 670.23046875 491.040039062 670.23046875 c 0
 492.89453125 670.436523438 494.697265625 670.5390625 496.44921875 670.5390625 c 0
 504.330078125 670.5390625 511.169921875 668.453125 516.96484375 664.280273438 c 0
 523.071289062 659.883789062 526.124023438 652.75 526.124023438 642.877929688 c 0
 526.124023438 641.298828125 526.045898438 639.649414062 525.889648438 637.930664062 c 0
 520.223632812 567.6640625 515.690429688 468.072265625 512.290039062 339.155273438 c 0
 511.014648438 290.809570312 510.377929688 250.174804688 510.377929688 217.25 c 0
 510.377929688 162.376953125 512.1484375 128.920898438 515.690429688 116.87890625 c 0
 517.0390625 111.752929688 517.713867188 106.850585938 517.713867188 102.173828125 c 0
 517.713867188 97.0283203125 516.897460938 92.1552734375 515.264648438 87.5537109375 c 0
 512.147460938 78.771484375 507.755859375 71.404296875 502.088867188 65.4541015625 c 0
 496.421875 59.50390625 490.188476562 55.1123046875 483.388671875 52.279296875 c 0
 478.465820312 50.20703125 473.751953125 49.1708984375 469.244140625 49.1708984375 c 0
 463.891601562 49.1708984375 458.831054688 50.6318359375 454.063476562 53.5537109375 c 0
 445.280273438 58.9375 439.755859375 70.6953125 437.48828125 88.828125 c 0
 436.58203125 95.8544921875 436.127929688 109.590820312 436.127929688 130.036132812 c 0
 436.127929688 160.704101562 437.1484375 206.467773438 439.188476562 267.328125 c 1
 371.188476562 264.495117188 309.705078125 258.544921875 254.73828125 249.478515625 c 1
 166.338867188 88.828125 l 2
451.938476562 565.68359375 m 1
 420.205078125 527.715820312 368.638671875 447.25 297.23828125 324.283203125 c 1
 352.205078125 331.083007812 400.655273438 335.049804688 442.588867188 336.18359375 c 1
 451.938476562 565.68359375 l 1
EndSplineSet
Validated: 524289
EndChar

StartChar: B
Encoding: 66 66 45
Width: 570
VWidth: 901
GlyphClass: 2
Flags: HMW
HStem: 31.9038 17.85G<150.857 156.24> 303.905 61.2<311.224 314.623> 586.955 67.1483<382.621 394.807>
LayerCount: 2
Fore
SplineSet
251.721679688 39.55078125 m 0
 242.654296875 38.9833984375 232.598632812 38.1376953125 221.548828125 37.0048828125 c 0
 210.499023438 35.8720703125 201.431640625 35.021484375 194.348632812 34.455078125 c 0
 187.265625 33.8876953125 180.041015625 33.3203125 172.673828125 32.75390625 c 0
 165.306640625 32.1865234375 158.931640625 31.904296875 153.548828125 31.904296875 c 0
 148.166015625 31.904296875 143.491210938 32.470703125 139.524414062 33.603515625 c 2
 136.124023438 33.603515625 l 2
 125.357421875 33.603515625 117.565429688 37.4287109375 112.748046875 45.0791015625 c 0
 110.106445312 49.2744140625 108.786132812 54.3642578125 108.786132812 60.34765625 c 0
 108.786132812 65.2763671875 109.681640625 70.8125 111.47265625 76.9541015625 c 0
 118.83984375 100.75390625 129.889648438 146.086914062 144.623046875 212.954101562 c 0
 159.356445312 279.8203125 173.806640625 348.670898438 187.97265625 419.50390625 c 0
 195.90625 457.470703125 201.2890625 482.970703125 204.122070312 496.00390625 c 0
 206.955078125 509.037109375 211.34765625 526.603515625 217.296875 548.704101562 c 0
 223.247070312 570.803710938 227.35546875 586.103515625 229.622070312 594.603515625 c 0
 233.588867188 609.904296875 240.247070312 621.37890625 249.59765625 629.029296875 c 0
 258.947265625 636.678710938 269.004882812 640.50390625 279.772460938 640.50390625 c 2
 282.322265625 640.50390625 l 2
 291.389648438 643.336914062 300.880859375 645.745117188 310.797851562 647.727539062 c 0
 320.71484375 649.7109375 329.639648438 651.127929688 337.573242188 651.977539062 c 0
 345.505859375 652.828125 353.864257812 653.39453125 362.647460938 653.677734375 c 0
 371.430664062 653.9609375 378.088867188 654.102539062 382.62109375 654.102539062 c 2
 398.346679688 654.102539062 l 1
 407.271484375 654.102539062 l 2
 442.971679688 654.102539062 473.146484375 647.01953125 497.796875 632.852539062 c 0
 522.446289062 618.686523438 539.87109375 598.14453125 550.071289062 571.227539062 c 0
 555.80859375 556.086914062 558.677734375 539.556640625 558.677734375 521.63671875 c 0
 558.677734375 507.69921875 556.942382812 492.920898438 553.471679688 477.301757812 c 0
 546.104492188 444.435546875 532.504882812 416.243164062 512.671875 392.7265625 c 0
 492.838867188 369.208984375 469.321289062 352.067382812 442.12109375 341.30078125 c 1
 458.5546875 335.067382812 473.99609375 325.859375 488.446289062 313.676757812 c 0
 502.896484375 301.493164062 514.088867188 287.893554688 522.021484375 272.875976562 c 0
 527.8671875 261.811523438 530.790039062 251.284179688 530.790039062 241.295898438 c 0
 530.790039062 237.729492188 530.416992188 234.231445312 529.671875 230.801757812 c 0
 525.138671875 209.268554688 515.221679688 187.875976562 499.921875 166.625976562 c 0
 484.62109375 145.375976562 465.213867188 125.96875 441.696289062 108.401367188 c 0
 418.1796875 90.833984375 389.846679688 75.8173828125 356.696289062 63.3505859375 c 0
 323.546875 50.8837890625 288.5546875 42.9501953125 251.721679688 39.55078125 c 0
390.274414062 586.955078125 m 0
 361.940429688 586.955078125 333.323242188 583.271484375 304.422851562 575.904296875 c 1
 301.58984375 565.137695312 297.056640625 547.854492188 290.82421875 524.0546875 c 0
 284.590820312 500.254882812 278.215820312 475.038085938 271.69921875 448.404296875 c 0
 265.181640625 421.771484375 258.806640625 394.571289062 252.57421875 366.8046875 c 1
 276.940429688 365.671875 300.173828125 365.104492188 322.274414062 365.104492188 c 0
 338.140625 365.104492188 353.015625 366.521484375 366.899414062 369.354492188 c 0
 380.782226562 372.1875 392.681640625 375.87109375 402.598632812 380.404296875 c 0
 412.515625 384.936523438 421.723632812 390.461914062 430.223632812 396.978515625 c 0
 438.723632812 403.49609375 445.806640625 410.154296875 451.473632812 416.954101562 c 0
 457.140625 423.75390625 462.098632812 431.26171875 466.348632812 439.478515625 c 0
 470.598632812 447.6953125 473.857421875 455.0625 476.124023438 461.580078125 c 0
 478.390625 468.096679688 480.374023438 475.038085938 482.07421875 482.405273438 c 0
 484.017578125 490.82421875 484.98828125 498.873046875 484.98828125 506.552734375 c 0
 484.98828125 512.311523438 484.442382812 517.862304688 483.348632812 523.205078125 c 0
 480.798828125 535.672851562 476.265625 545.73046875 469.749023438 553.380859375 c 0
 463.232421875 561.030273438 455.298828125 567.547851562 445.94921875 572.930664062 c 0
 436.598632812 578.313476562 427.249023438 581.997070312 417.899414062 583.979492188 c 0
 408.548828125 585.962890625 399.340820312 586.955078125 390.274414062 586.955078125 c 0
314.623046875 303.904296875 m 1
 276.08984375 303.904296875 250.87109375 303.62109375 238.971679688 303.053710938 c 1
 220.271484375 211.8203125 207.23828125 146.9375 199.87109375 108.404296875 c 1
 205.538085938 108.404296875 215.030273438 108.6875 228.34765625 109.254882812 c 0
 241.6640625 109.821289062 252.005859375 110.104492188 259.373046875 110.104492188 c 0
 283.740234375 111.237304688 307.540039062 115.770507812 330.7734375 123.704101562 c 0
 354.005859375 131.63671875 373.556640625 141.12890625 389.422851562 152.178710938 c 0
 405.290039062 163.228515625 418.46484375 174.845703125 428.948242188 187.029296875 c 0
 439.431640625 199.211914062 446.088867188 210.404296875 448.921875 220.603515625 c 0
 450.622070312 227.970703125 449.34765625 235.337890625 445.09765625 242.705078125 c 0
 440.84765625 250.071289062 433.905273438 257.721679688 424.272460938 265.654296875 c 0
 414.639648438 273.587890625 400.331054688 280.955078125 381.34765625 287.754882812 c 0
 362.365234375 294.5546875 340.123046875 299.9375 314.623046875 303.904296875 c 1
EndSplineSet
Validated: 524289
EndChar

StartChar: C
Encoding: 67 67 46
Width: 570
VWidth: 903
GlyphClass: 2
Flags: HMW
HStem: 26.8663 76.5025<250.928 297.394> 590.419 68.8467<493.178 494.878>
VStem: 526.894 65.45
LayerCount: 2
Fore
SplineSet
489.495117188 107.618164062 m 0
 433.411132812 53.734375 360.255859375 26.791015625 270.028320312 26.791015625 c 0
 267.265625 26.791015625 264.48828125 26.8154296875 261.694335938 26.8662109375 c 0
 240.161132812 26.8662109375 220.752929688 30.8330078125 203.469726562 38.7666015625 c 0
 186.186523438 46.69921875 172.162109375 57.1826171875 161.39453125 70.2158203125 c 0
 150.627929688 83.248046875 142.127929688 98.40625 135.89453125 115.689453125 c 0
 129.662109375 132.97265625 126.26171875 151.389648438 125.6953125 170.939453125 c 0
 125.638671875 172.895507812 125.610351562 174.852539062 125.610351562 176.810546875 c 0
 125.610351562 194.430664062 127.905273438 212.165039062 132.495117188 230.014648438 c 0
 142.127929688 271.381835938 155.302734375 311.33203125 172.01953125 349.864257812 c 0
 188.737304688 388.397460938 207.436523438 423.248046875 228.120117188 454.415039062 c 0
 248.802734375 485.58203125 271.186523438 514.198242188 295.26953125 540.265625 c 0
 319.352539062 566.33203125 343.293945312 588.0078125 367.09375 605.290039062 c 0
 390.89453125 622.573242188 414.551757812 635.890625 438.069335938 645.240234375 c 0
 461.5859375 654.590820312 483.260742188 659.265625 503.09375 659.265625 c 0
 522.361328125 659.265625 539.64453125 656.998046875 554.944335938 652.465820312 c 1
 558.911132812 660.965820312 564.436523438 667.907226562 571.51953125 673.290039062 c 0
 578.602539062 678.673828125 586.110351562 681.6484375 594.04296875 682.215820312 c 0
 603.110351562 683.915039062 611.327148438 681.790039062 618.694335938 675.840820312 c 0
 626.061523438 669.890625 629.744140625 661.248046875 629.744140625 649.915039062 c 0
 629.744140625 641.415039062 629.176757812 633.057617188 628.043945312 624.840820312 c 0
 626.911132812 616.623046875 625.635742188 608.548828125 624.21875 600.615234375 c 0
 622.801757812 592.682617188 621.52734375 586.165039062 620.39453125 581.065429688 c 0
 619.260742188 575.965820312 617.84375 570.015625 616.14453125 563.215820312 c 0
 614.444335938 556.415039062 613.311523438 552.165039062 612.744140625 550.465820312 c 0
 609.911132812 538.565429688 603.111328125 526.5234375 592.34375 514.340820312 c 0
 581.577148438 502.157226562 571.66015625 495.499023438 562.59375 494.366210938 c 0
 560.619140625 494.037109375 558.6875 493.872070312 556.798828125 493.872070312 c 0
 548.92578125 493.872070312 541.791015625 496.728515625 535.393554688 502.44140625 c 0
 529.223632812 507.950195312 526.138671875 514.916992188 526.138671875 523.338867188 c 0
 526.138671875 525.74609375 526.390625 528.271484375 526.89453125 530.916015625 c 0
 528.02734375 535.44921875 531.426757812 547.349609375 537.09375 566.616210938 c 0
 536.52734375 567.18359375 534.40234375 569.025390625 530.71875 572.142578125 c 0
 527.036132812 575.258789062 524.34375 577.526367188 522.64453125 578.943359375 c 0
 520.944335938 580.360351562 518.251953125 582.202148438 514.569335938 584.46875 c 0
 510.885742188 586.735351562 507.34375 588.293945312 503.944335938 589.143554688 c 0
 500.543945312 589.994140625 496.861328125 590.418945312 492.89453125 590.418945312 c 0
 476.4609375 590.418945312 457.619140625 584.751953125 436.369140625 573.418945312 c 0
 415.119140625 562.0859375 393.444335938 545.935546875 371.34375 524.96875 c 0
 349.244140625 504.001953125 328.135742188 479.918945312 308.01953125 452.71875 c 0
 287.90234375 425.518554688 269.626953125 394.776367188 253.194335938 360.494140625 c 0
 236.760742188 326.2109375 224.861328125 291.786132812 217.494140625 257.21875 c 0
 214.059570312 242.107421875 212.341796875 227.203125 212.341796875 212.5078125 c 0
 212.341796875 202.95703125 213.067382812 193.494140625 214.518554688 184.119140625 c 0
 218.201171875 160.318359375 226.701171875 140.911132812 240.018554688 125.893554688 c 0
 253.334960938 110.876953125 269.626953125 103.369140625 288.89453125 103.369140625 c 0
 305.89453125 103.369140625 322.89453125 105.2109375 339.89453125 108.893554688 c 0
 356.89453125 112.577148438 372.477539062 117.393554688 386.64453125 123.34375 c 0
 400.811523438 129.293945312 413.278320312 135.244140625 424.044921875 141.193359375 c 0
 434.811523438 147.143554688 445.01171875 153.518554688 454.64453125 160.318359375 c 0
 462.578125 165.418945312 469.377929688 169.385742188 475.044921875 172.21875 c 0
 480.711914062 175.051757812 486.51953125 176.46875 492.469726562 176.46875 c 0
 498.419921875 176.46875 503.377929688 174.485351562 507.344726562 170.518554688 c 0
 513.115234375 164.749023438 515.999023438 158.3046875 515.999023438 151.186523438 c 0
 515.999023438 138.728515625 507.165039062 124.206054688 489.495117188 107.618164062 c 0
EndSplineSet
Validated: 524289
EndChar

StartChar: D
Encoding: 68 68 47
Width: 570
VWidth: 901
GlyphClass: 2
Flags: HMW
HStem: 24.8751 73.0983<318.35 328.269> 641.126 17G<265.368 274.151>
LayerCount: 2
Fore
SplineSet
317.501953125 24.875 m 0
 291.434570312 24.875 266.073242188 26.150390625 241.423828125 28.7001953125 c 0
 216.7734375 31.25 197.365234375 34.224609375 183.198242188 37.625 c 0
 169.03125 41.025390625 156.70703125 44.1416015625 146.223632812 46.974609375 c 0
 135.740234375 49.80859375 129.6484375 51.224609375 127.948242188 51.224609375 c 0
 117.181640625 51.224609375 109.389648438 55.0498046875 104.573242188 62.7001953125 c 0
 101.931640625 66.8955078125 100.610351562 71.9853515625 100.610351562 77.9697265625 c 0
 100.610351562 82.8974609375 101.506835938 88.43359375 103.297851562 94.5751953125 c 0
 111.23046875 121.775390625 122.84765625 170.083007812 138.147460938 239.5 c 0
 153.448242188 308.916992188 169.314453125 384.141601562 185.748046875 465.174804688 c 0
 192.547851562 496.908203125 197.081054688 517.733398438 199.34765625 527.650390625 c 0
 201.614257812 537.567382812 205.58203125 553.008789062 211.249023438 573.975585938 c 0
 216.916015625 594.942382812 220.315429688 607.692382812 221.448242188 612.225585938 c 0
 225.416015625 627.526367188 231.932617188 639.000976562 240.999023438 646.651367188 c 0
 250.06640625 654.30078125 259.983398438 658.125976562 270.75 658.125976562 c 0
 277.549804688 658.125976562 286.049804688 657.55859375 296.25 656.42578125 c 0
 306.450195312 655.29296875 319.625 653.026367188 335.775390625 649.625976562 c 0
 351.924804688 646.225585938 368.075195312 641.55078125 384.225585938 635.600585938 c 0
 400.375 629.651367188 417.233398438 621.29296875 434.799804688 610.526367188 c 0
 452.3671875 599.758789062 468.517578125 587.291992188 483.25 573.125 c 0
 497.983398438 558.958007812 511.44140625 541.25 523.624023438 520 c 0
 535.807617188 498.75 545.157226562 475.516601562 551.674804688 450.299804688 c 0
 557.669921875 427.100585938 560.66796875 399.826171875 560.66796875 368.475585938 c 0
 560.66796875 365.747070312 560.645507812 362.989257812 560.599609375 360.200195312 c 0
 560.032226562 325.349609375 554.932617188 287.80859375 545.299804688 247.575195312 c 0
 540.766601562 227.7421875 533.68359375 207.625 524.049804688 187.224609375 c 0
 514.416992188 166.825195312 502.234375 146.849609375 487.500976562 127.299804688 c 0
 472.767578125 107.75 456.759765625 90.3251953125 439.4765625 75.025390625 c 0
 422.194335938 59.724609375 402.926757812 47.5419921875 381.676757812 38.474609375 c 0
 360.426757812 29.408203125 339.03515625 24.875 317.501953125 24.875 c 0
235.8984375 347.025390625 m 0
 230.798828125 322.658203125 223.291015625 285.965820312 213.374023438 236.948242188 c 0
 203.45703125 187.931640625 196.232421875 150.956054688 191.69921875 126.0234375 c 1
 210.966796875 115.823242188 231.791015625 108.598632812 254.174804688 104.348632812 c 0
 276.557617188 100.098632812 303.049804688 97.9736328125 333.649414062 97.9736328125 c 0
 348.3828125 97.9736328125 363.399414062 103.215820312 378.69921875 113.698242188 c 0
 393.999023438 124.181640625 407.8828125 137.78125 420.349609375 154.498046875 c 0
 432.81640625 171.215820312 443.866210938 189.631835938 453.499023438 209.749023438 c 0
 463.1328125 229.866210938 470.215820312 249.55859375 474.749023438 268.825195312 c 0
 481.176757812 296.928710938 484.390625 323.278320312 484.390625 347.872070312 c 0
 484.390625 416.506835938 459.359375 471.474609375 409.298828125 512.775390625 c 0
 384.931640625 532.608398438 348.098632812 553.0078125 298.798828125 573.974609375 c 1
 298.798828125 574.825195312 l 1
 297.948242188 574.825195312 l 1
 297.098632812 574.825195312 l 1
 296.249023438 575.674804688 l 1
 295.3984375 575.674804688 l 1
 294.548828125 576.525390625 l 1
 293.698242188 576.525390625 l 1
 292.848632812 576.525390625 l 1
 292.848632812 577.375 l 1
 291.999023438 577.375 l 1
 291.1484375 577.375 l 1
 290.298828125 578.224609375 l 1
 289.448242188 578.224609375 l 1
 288.598632812 578.224609375 l 1
 288.598632812 579.075195312 l 1
 269.8984375 505.408203125 252.33203125 428.05859375 235.8984375 347.025390625 c 0
EndSplineSet
Validated: 524289
EndChar

StartChar: E
Encoding: 69 69 48
Width: 570
VWidth: 901
GlyphClass: 2
Flags: HMW
HStem: 36.4771 74.3717 46.2504 76.9225 316.551 73.0991<237.415 272.835> 333.551 68.8491<504.599 531.801> 573.676 70.125
LayerCount: 2
Fore
SplineSet
449.064453125 46.25 m 0x48
 447.4140625 46.353515625 445.294921875 46.404296875 442.706054688 46.404296875 c 0
 431.072265625 46.404296875 409.959960938 45.36328125 379.3671875 43.27734375 c 0
 341.966796875 40.7265625 301.166992188 38.4599609375 256.966796875 36.4765625 c 0
 233.166015625 35.4091796875 212.323242188 34.875 194.4375 34.875 c 0
 179.108398438 34.875 165.951171875 35.267578125 154.966796875 36.0517578125 c 0
 143.067382812 36.619140625 132.583984375 42.994140625 123.517578125 55.1767578125 c 0
 115.881835938 65.435546875 112.064453125 77.6044921875 112.064453125 91.6826171875 c 0
 112.064453125 94.322265625 112.19921875 97.0283203125 112.466796875 99.8017578125 c 0
 114.166992188 114.53515625 119.409179688 141.02734375 128.192382812 179.27734375 c 0
 136.975585938 217.52734375 146.608398438 258.185546875 157.090820312 301.251953125 c 0
 167.57421875 344.319335938 178.19921875 392.768554688 188.965820312 446.6015625 c 0
 196.333007812 480.6015625 201.291015625 503.126953125 203.840820312 514.176757812 c 0
 206.391601562 525.2265625 210.499023438 541.518554688 216.166015625 563.051757812 c 0
 221.833007812 584.584960938 225.516601562 597.90234375 227.215820312 603.001953125 c 0
 231.18359375 618.301757812 237.700195312 629.918945312 246.767578125 637.8515625 c 0
 255.833984375 645.78515625 265.750976562 649.751953125 276.517578125 649.751953125 c 0
 277.264648438 649.782226562 277.997070312 649.796875 278.717773438 649.796875 c 0
 291.686523438 649.796875 300.5859375 644.96484375 305.41796875 635.301757812 c 1
 336.584960938 639.834960938 372.426757812 642.66796875 412.943359375 643.80078125 c 0
 433.202148438 644.368164062 452.255859375 644.651367188 470.106445312 644.651367188 c 0
 487.956054688 644.651367188 504.6015625 644.3671875 520.043945312 643.80078125 c 0
 550.926757812 642.66796875 575.151367188 640.967773438 592.71875 638.701171875 c 0
 604.619140625 637.000976562 612.551757812 633.6015625 616.518554688 628.500976562 c 0
 620.485351562 623.401367188 621.3359375 616.318359375 619.068359375 607.250976562 c 0
 617.935546875 602.151367188 616.377929688 597.333984375 614.39453125 592.80078125 c 0
 612.411132812 588.268554688 609.861328125 584.16015625 606.744140625 580.4765625 c 0
 603.627929688 576.793945312 599.51953125 573.819335938 594.419921875 571.551757812 c 0
 589.319335938 569.28515625 583.369140625 568.717773438 576.569335938 569.8515625 c 0
 540.662109375 572.7734375 504.29296875 574.235351562 467.462890625 574.235351562 c 0
 454.307617188 574.235351562 441.09375 574.048828125 427.8203125 573.67578125 c 0
 377.387695312 572.259765625 333.470703125 568.717773438 296.0703125 563.05078125 c 1
 280.203125 504.1171875 266.036132812 446.317382812 253.569335938 389.650390625 c 1xa8
 292.102539062 389.650390625 345.0859375 391.775390625 412.518554688 396.025390625 c 0
 479.952148438 400.275390625 517.634765625 402.400390625 525.568359375 402.400390625 c 0
 538.03515625 402.400390625 546.110351562 399.567382812 549.79296875 393.900390625 c 0
 553.475585938 388.233398438 554.18359375 380.30078125 551.916992188 370.100585938 c 0
 546.375976562 345.721679688 532.708984375 333.532226562 510.915039062 333.532226562 c 0
 510.419921875 333.532226562 509.919921875 333.5390625 509.416015625 333.55078125 c 0x18
 499.783203125 333.55078125 458.55859375 330.717773438 385.741210938 325.05078125 c 0
 312.924804688 319.384765625 263.482421875 316.55078125 237.415039062 316.55078125 c 1
 234.58203125 304.083984375 230.899414062 287.791992188 226.366210938 267.67578125 c 0
 221.833007812 247.55859375 218.0078125 230.275390625 214.891601562 215.825195312 c 0
 211.774414062 201.375 208.657226562 186.5 205.540039062 171.200195312 c 0
 202.423828125 155.900390625 200.15625 143.291992188 198.739257812 133.375 c 0
 197.322265625 123.458007812 196.897460938 116.516601562 197.46484375 112.549804688 c 1
 204.737304688 110.235351562 221.701171875 109.078125 248.35546875 109.078125 c 0
 267.391601562 109.078125 291.370117188 109.66796875 320.290039062 110.848632812 c 0xa8
 389.70703125 113.681640625 434.615234375 117.365234375 455.015625 121.897460938 c 0
 462.948242188 123.03125 469.606445312 123.456054688 474.989257812 123.172851562 c 0
 480.373046875 122.889648438 484.764648438 121.756835938 488.165039062 119.7734375 c 0
 491.564453125 117.791015625 494.114257812 115.666015625 495.814453125 113.3984375 c 0
 497.514648438 111.131835938 498.647460938 108.157226562 499.21484375 104.473632812 c 0
 499.78125 100.791015625 500.064453125 97.5322265625 500.064453125 94.69921875 c 0
 500.064453125 91.8662109375 499.78125 89.033203125 499.21484375 86.2001953125 c 0
 496.947265625 75.43359375 491.422851562 65.80078125 482.639648438 57.30078125 c 0
 474.889648438 49.80078125 465.264648438 46.05078125 453.763671875 46.05078125 c 0
 452.23046875 46.05078125 450.6640625 46.1171875 449.064453125 46.25 c 0x48
EndSplineSet
Validated: 524289
EndChar

StartChar: F
Encoding: 70 70 49
Width: 570
VWidth: 901
GlyphClass: 2
Flags: HMW
HStem: 320.584 73.1017 578.136 73.9491
LayerCount: 2
Fore
SplineSet
187.926757812 72.3837890625 m 0
 183.959960938 60.484375 176.452148438 50.9931640625 165.401367188 43.91015625 c 0
 155.170898438 37.3515625 144.818359375 34.072265625 134.344726562 34.072265625 c 0
 133.505859375 34.072265625 132.666992188 34.09375 131.827148438 34.1357421875 c 0
 121.059570312 34.1357421875 113.267578125 37.9609375 108.451171875 45.6103515625 c 0
 105.809570312 49.8056640625 104.489257812 54.8955078125 104.489257812 60.8798828125 c 0
 104.489257812 65.80859375 105.384765625 71.34375 107.17578125 77.4853515625 c 0
 114.54296875 102.418945312 126.017578125 150.161132812 141.600585938 220.7109375 c 0
 157.18359375 291.260742188 172.341796875 363.935546875 187.075195312 438.735351562 c 0
 195.0078125 476.702148438 200.533203125 502.202148438 203.650390625 515.235351562 c 0
 206.766601562 528.268554688 211.299804688 545.8359375 217.25 567.935546875 c 0
 223.200195312 590.036132812 227.307617188 605.052734375 229.575195312 612.985351562 c 0
 233.541992188 628.286132812 240.05859375 639.760742188 249.125976562 647.411132812 c 0
 258.192382812 655.060546875 268.109375 658.885742188 278.876953125 658.885742188 c 0
 280.279296875 658.993164062 281.638671875 659.047851562 282.954101562 659.047851562 c 0
 295.454101562 659.047851562 304.012695312 654.176757812 308.626953125 644.434570312 c 1
 361.327148438 648.401367188 414.026367188 650.952148438 466.7265625 652.084960938 c 0
 479.900390625 652.368164062 492.456054688 652.509765625 504.390625 652.509765625 c 0
 540.197265625 652.509765625 570.42578125 651.234375 595.077148438 648.684570312 c 0
 606.9765625 647.551757812 614.768554688 644.293945312 618.452148438 638.911132812 c 0
 622.134765625 633.52734375 623.126953125 626.01953125 621.426757812 616.38671875 c 0
 619.16015625 605.619140625 614.202148438 596.552734375 606.551757812 589.185546875 c 0
 598.901367188 581.818359375 588.559570312 578.135742188 575.526367188 578.135742188 c 0
 546.35546875 579.711914062 516.15625 580.500976562 484.927734375 580.500976562 c 0
 426.375976562 580.500976562 364.208984375 577.728515625 298.42578125 572.185546875 c 1
 296.159179688 562.552734375 292.192382812 547.110351562 286.525390625 525.860351562 c 0
 280.858398438 504.610351562 275.333007812 482.935546875 269.950195312 460.8359375 c 0
 264.567382812 438.735351562 259.325195312 416.352539062 254.224609375 393.685546875 c 1
 278.509765625 396.599609375 305.083984375 398.056640625 333.948242188 398.056640625 c 0
 338.759765625 398.056640625 343.635742188 398.016601562 348.575195312 397.935546875 c 0
 383.141601562 397.369140625 414.025390625 395.810546875 441.224609375 393.260742188 c 0
 468.424804688 390.7109375 489.958007812 388.018554688 505.825195312 385.185546875 c 0
 517.724609375 382.918945312 525.516601562 379.235351562 529.200195312 374.135742188 c 0
 532.8828125 369.036132812 533.875 361.952148438 532.174804688 352.885742188 c 0
 531.041992188 347.786132812 529.484375 343.110351562 527.500976562 338.860351562 c 0
 525.517578125 334.610351562 522.826171875 330.502929688 519.42578125 326.536132812 c 0
 516.025390625 322.568359375 511.91796875 319.59375 507.100585938 317.610351562 c 0
 502.284179688 315.627929688 496.475585938 314.919921875 489.67578125 315.486328125 c 0
 474.375976562 318.319335938 452.55859375 320.727539062 424.225585938 322.7109375 c 0
 395.892578125 324.693359375 363.734375 325.827148438 327.751953125 326.109375 c 0
 325.35546875 326.12890625 322.985351562 326.137695312 320.642578125 326.137695312 c 0
 287.814453125 326.137695312 260.291015625 324.287109375 238.077148438 320.583984375 c 1
 207.4765625 170.416992188 190.759765625 87.68359375 187.926757812 72.3837890625 c 0
EndSplineSet
Validated: 524289
EndChar

StartChar: G
Encoding: 71 71 50
Width: 570
VWidth: 901
GlyphClass: 2
Flags: HMW
HStem: 25.6229 76.4975<249.99 293.34> 598.522 68.8491<493.939 498.471>
LayerCount: 2
Fore
SplineSet
524.256835938 259.370117188 m 0
 520.2890625 247.470703125 513.772460938 233.58984375 504.706054688 217.72265625 c 0
 495.638671875 201.856445312 484.73046875 184.998046875 471.98046875 167.1484375 c 0
 459.23046875 149.297851562 444.638671875 132.014648438 428.206054688 115.297851562 c 0
 411.772460938 98.5810546875 394.772460938 83.4228515625 377.206054688 69.8232421875 c 0
 359.638671875 56.22265625 340.513671875 45.314453125 319.831054688 37.09765625 c 0
 300.482421875 29.4111328125 282.001953125 25.568359375 264.388671875 25.568359375 c 0
 263.173828125 25.568359375 261.962890625 25.5859375 260.755859375 25.623046875 c 0
 239.22265625 25.623046875 219.814453125 29.58984375 202.53125 37.5224609375 c 0
 185.248046875 45.4560546875 171.223632812 55.939453125 160.456054688 68.9716796875 c 0
 149.689453125 82.0048828125 141.189453125 97.1630859375 134.956054688 114.446289062 c 0
 128.723632812 131.729492188 125.323242188 150.146484375 124.756835938 169.696289062 c 0
 124.693359375 171.869140625 124.662109375 174.043945312 124.662109375 176.221679688 c 0
 124.662109375 193.625976562 126.676757812 211.142578125 130.706054688 228.771484375 c 0
 140.338867188 270.704101562 153.796875 311.50390625 171.080078125 351.170898438 c 0
 188.36328125 390.837890625 207.205078125 426.538085938 227.604492188 458.271484375 c 0
 248.004882812 490.00390625 270.387695312 519.045898438 294.754882812 545.396484375 c 0
 319.122070312 571.74609375 343.346679688 593.846679688 367.4296875 611.696289062 c 0
 391.512695312 629.545898438 415.3125 643.288085938 438.830078125 652.920898438 c 0
 462.346679688 662.5546875 484.021484375 667.37109375 503.854492188 667.37109375 c 0
 525.955078125 667.37109375 549.330078125 661.846679688 573.979492188 650.795898438 c 0
 598.629882812 639.74609375 613.788085938 630.25390625 619.455078125 622.321289062 c 0
 623.599609375 616.622070312 625.671875 610.153320312 625.671875 602.915039062 c 0
 625.671875 594.318359375 622.749023438 584.637695312 616.905273438 573.87109375 c 0
 613.504882812 566.50390625 607.413085938 561.12109375 598.629882812 557.721679688 c 0
 589.846679688 554.321289062 581.771484375 554.321289062 574.405273438 557.721679688 c 0
 571.571289062 558.854492188 565.196289062 563.104492188 555.280273438 570.471679688 c 0
 545.36328125 577.837890625 535.020507812 584.35546875 524.25390625 590.022460938 c 0
 513.487304688 595.689453125 503.287109375 598.522460938 493.654296875 598.522460938 c 0
 477.220703125 598.522460938 458.23828125 592.713867188 436.705078125 581.096679688 c 0
 415.171875 569.48046875 393.354492188 552.763671875 371.254882812 530.946289062 c 0
 349.155273438 509.12890625 327.905273438 484.337890625 307.504882812 456.5703125 c 0
 287.104492188 428.803710938 268.6875 397.353515625 252.254882812 362.220703125 c 0
 235.821289062 327.087890625 223.638671875 291.670898438 215.706054688 255.970703125 c 0
 212.270507812 240.859375 210.553710938 225.955078125 210.553710938 211.258789062 c 0
 210.553710938 201.708007812 211.279296875 192.245117188 212.729492188 182.870117188 c 0
 216.413085938 159.0703125 224.913085938 139.662109375 238.229492188 124.645507812 c 0
 251.546875 109.62890625 267.838867188 102.120117188 287.10546875 102.120117188 c 0
 299.572265625 102.120117188 313.59765625 106.512695312 329.180664062 115.295898438 c 0
 344.763671875 124.078125 359.497070312 135.270507812 373.379882812 148.870117188 c 0
 387.262695312 162.470703125 400.86328125 177.770507812 414.1796875 194.770507812 c 0
 427.497070312 211.770507812 439.11328125 228.203125 449.030273438 244.0703125 c 0
 458.947265625 259.9375 467.022460938 274.670898438 473.255859375 288.270507812 c 1
 439.822265625 286.5703125 406.672851562 283.453125 373.805664062 278.920898438 c 0
 340.938476562 274.387695312 317.706054688 268.4375 304.10546875 261.0703125 c 0
 299.2734375 258.655273438 294.823242188 257.446289062 290.754882812 257.446289062 c 0
 286.234375 257.446289062 282.184570312 258.938476562 278.60546875 261.920898438 c 0
 271.805664062 267.587890625 268.97265625 275.237304688 270.10546875 284.870117188 c 0
 271.805664062 306.403320312 285.688476562 323.120117188 311.755859375 335.020507812 c 0
 328.755859375 342.953125 362.331054688 349.045898438 412.48046875 353.295898438 c 0
 448.301757812 356.331054688 478.55859375 357.849609375 503.249023438 357.849609375 c 0
 513.125 357.849609375 522.110351562 357.606445312 530.206054688 357.120117188 c 0
 543.23828125 356.553710938 551.73828125 354.145507812 555.706054688 349.895507812 c 0
 559.672851562 345.645507812 561.373046875 338.987304688 560.805664062 329.920898438 c 0
 558.5390625 308.953125 550.0390625 295.920898438 535.305664062 290.8203125 c 0
 534.73828125 289.120117188 533.0390625 284.587890625 530.206054688 277.220703125 c 0
 527.373046875 269.853515625 525.389648438 263.903320312 524.256835938 259.370117188 c 0
EndSplineSet
Validated: 524289
EndChar

StartChar: H
Encoding: 72 72 51
Width: 570
VWidth: 901
GlyphClass: 2
Flags: HMW
HStem: 317.174 73.1009<250.208 281.941>
LayerCount: 2
Fore
SplineSet
483.109375 72.375 m 0
 479.142578125 60.474609375 471.77734375 50.982421875 461.009765625 43.8994140625 c 0
 451.041015625 37.3408203125 440.829101562 34.0615234375 430.375 34.0615234375 c 0
 429.538085938 34.0615234375 428.700195312 34.0830078125 427.860351562 34.125 c 0
 417.092773438 34.125 409.30078125 37.9501953125 404.484375 45.599609375 c 0
 401.842773438 49.794921875 400.522460938 54.8857421875 400.522460938 60.869140625 c 0
 400.522460938 65.7978515625 401.41796875 71.3330078125 403.208984375 77.474609375 c 0
 426.442382812 156.2421875 449.109375 244.641601562 471.208984375 342.674804688 c 1
 462.142578125 342.108398438 428.850585938 337.715820312 371.333007812 329.499023438 c 0
 313.81640625 321.282226562 273.44140625 317.173828125 250.208007812 317.173828125 c 0
 249.641601562 315.474609375 248.791992188 312.499023438 247.658203125 308.249023438 c 0
 246.525390625 303.999023438 245.67578125 301.024414062 245.108398438 299.32421875 c 0
 229.241210938 243.224609375 211.674804688 167.57421875 192.407226562 72.3740234375 c 0
 188.440429688 60.474609375 180.932617188 50.982421875 169.8828125 43.8994140625 c 0
 159.65234375 37.3408203125 149.541992188 34.0615234375 139.553710938 34.0615234375 c 0
 138.754882812 34.0615234375 137.955078125 34.0830078125 137.157226562 34.125 c 0
 126.958007812 34.125 119.166015625 37.9501953125 113.782226562 45.599609375 c 0
 110.860351562 49.7529296875 109.399414062 54.7822265625 109.399414062 60.689453125 c 0
 109.399414062 65.662109375 110.435546875 71.2578125 112.5078125 77.474609375 c 0
 114.774414062 85.408203125 118.174804688 98.158203125 122.708007812 115.724609375 c 0
 127.240234375 133.291992188 132.907226562 156.80859375 139.708007812 186.275390625 c 0
 146.5078125 215.743164062 152.740234375 242.375976562 158.407226562 266.17578125 c 0
 162.940429688 285.442382812 169.8828125 313.067382812 179.232421875 349.05078125 c 0
 188.583007812 385.034179688 195.240234375 411.666992188 199.208007812 428.950195312 c 2
 217.057617188 506.724609375 l 2
 222.157226562 532.224609375 225.557617188 548.516601562 227.2578125 555.599609375 c 0
 228.958007812 562.682617188 231.5078125 572.458007812 234.907226562 584.924804688 c 2
 242.557617188 612.974609375 l 2
 246.524414062 628.275390625 253.182617188 639.75 262.532226562 647.400390625 c 0
 271.8828125 655.049804688 281.940429688 658.875 292.708007812 658.875 c 0
 293.588867188 658.916992188 294.455078125 658.938476562 295.303710938 658.938476562 c 0
 305.9140625 658.938476562 313.973632812 655.659179688 319.482421875 649.100585938 c 0
 323.268554688 644.59375 325.162109375 638.421875 325.162109375 630.586914062 c 0
 325.162109375 626.110351562 324.543945312 621.08984375 323.307617188 615.525390625 c 0
 322.174804688 609.859375 318.6328125 597.67578125 312.682617188 578.975585938 c 0
 306.732421875 560.275390625 302.057617188 542.993164062 298.657226562 527.125976562 c 0
 295.2578125 512.392578125 290.299804688 489.868164062 283.782226562 459.55078125 c 0
 277.265625 429.234375 272.0234375 406.141601562 268.056640625 390.275390625 c 1
 295.82421875 390.275390625 324.723632812 391.974609375 354.756835938 395.375 c 0
 384.790039062 398.775390625 411.990234375 402.174804688 436.356445312 405.575195312 c 0
 460.723632812 408.974609375 477.723632812 411.2421875 487.356445312 412.375 c 1
 487.923828125 416.341796875 488.916015625 422.150390625 490.333007812 429.799804688 c 0
 491.75 437.450195312 493.024414062 443.2578125 494.157226562 447.224609375 c 0
 502.090820312 482.358398438 507.190429688 505.590820312 509.458007812 516.923828125 c 0
 511.724609375 528.256835938 515.974609375 545.82421875 522.208007812 569.624023438 c 0
 528.440429688 593.423828125 532.407226562 607.874023438 534.107421875 612.974609375 c 0
 538.07421875 628.274414062 544.591796875 639.749023438 553.658203125 647.399414062 c 0
 562.725585938 655.048828125 572.642578125 658.874023438 583.409179688 658.874023438 c 0
 584.291015625 658.916015625 585.15625 658.9375 586.005859375 658.9375 c 0
 596.616210938 658.9375 604.674804688 655.658203125 610.184570312 649.099609375 c 0
 613.970703125 644.592773438 615.86328125 638.420898438 615.86328125 630.5859375 c 0
 615.86328125 626.109375 615.245117188 621.088867188 614.009765625 615.525390625 c 0
 611.7421875 604.7578125 606.359375 582.658203125 597.859375 549.224609375 c 0
 589.359375 515.791992188 582.134765625 486.466796875 576.184570312 461.25 c 0
 570.234375 436.033203125 562.159179688 399.625 551.958984375 352.025390625 c 0
 544.026367188 312.358398438 531.559570312 260.224609375 514.559570312 195.625 c 0
 497.559570312 131.025390625 487.076171875 89.9423828125 483.109375 72.375 c 0
EndSplineSet
Validated: 524289
EndChar

StartChar: I
Encoding: 73 73 52
Width: 570
VWidth: 902
GlyphClass: 2
Flags: HMW
HStem: 40.327 68.0008 46.7011 66.2991 572.426 75.6509 583.477 70.5491<259.988 282.655 275.572 282.655 275.572 381.254>
LayerCount: 2
Fore
SplineSet
457.759765625 42.875 m 0x60
 444.7265625 45.142578125 422.7578125 46.41796875 391.875 46.701171875 c 0x60
 385.701171875 46.7578125 379.545898438 46.7861328125 373.40625 46.7861328125 c 0
 348.833007812 46.7861328125 324.530273438 46.3330078125 300.500976562 45.42578125 c 0
 270.467773438 44.29296875 238.734375 43.16015625 205.301757812 42.02734375 c 0
 171.868164062 40.8935546875 148.635742188 40.3271484375 135.602539062 40.3271484375 c 0
 122.001953125 40.3271484375 112.510742188 43.16015625 107.126953125 48.8271484375 c 0
 101.744140625 54.494140625 100.186523438 61.8603515625 102.453125 70.927734375 c 0
 104.153320312 81.1279296875 108.969726562 89.76953125 116.903320312 96.8525390625 c 0
 124.8359375 103.935546875 135.603515625 107.760742188 149.203125 108.328125 c 0
 171.870117188 109.4609375 210.969726562 110.877929688 266.502929688 112.578125 c 1
 294.270507812 209.477539062 319.487304688 312.044921875 342.154296875 420.27734375 c 0
 346.12109375 440.677734375 350.229492188 459.944335938 354.479492188 478.078125 c 0
 358.729492188 496.2109375 361.704101562 509.244140625 363.404296875 517.176757812 c 0
 365.104492188 525.110351562 368.362304688 537.434570312 373.178710938 554.15234375 c 0
 377.99609375 570.869140625 380.6875 580.643554688 381.254882812 583.4765625 c 1
 357.455078125 584.04296875 335.9921875 584.327148438 316.8671875 584.327148438 c 0
 297.7421875 584.327148438 280.955078125 584.04296875 266.504882812 583.4765625 c 0
 253.471679688 583.4765625 244.263671875 586.59375 238.880859375 592.827148438 c 0
 233.498046875 599.059570312 231.655273438 606.993164062 233.35546875 616.625976562 c 0
 235.055664062 626.826171875 240.155273438 635.609375 248.655273438 642.9765625 c 0
 257.155273438 650.342773438 268.48828125 654.026367188 282.655273438 654.026367188 c 0x90
 327.047851562 655.348632812 368.165039062 656.009765625 406.008789062 656.009765625 c 0
 481.685546875 656.009765625 544.268554688 653.365234375 593.755859375 648.077148438 c 0
 613.046875 646.147460938 622.692382812 637.446289062 622.692382812 621.97265625 c 0
 622.692382812 619.263671875 622.396484375 616.348632812 621.805664062 613.2265625 c 0
 620.672851562 608.125976562 618.831054688 603.16796875 616.280273438 598.3515625 c 0
 613.73046875 593.534179688 610.61328125 588.859375 606.930664062 584.326171875 c 0
 603.248046875 579.79296875 598.572265625 576.250976562 592.905273438 573.701171875 c 0
 587.23828125 571.151367188 581.005859375 570.7265625 574.206054688 572.42578125 c 0
 559.47265625 575.258789062 521.790039062 578.375976562 461.15625 581.776367188 c 1
 460.0234375 577.243164062 456.765625 564.493164062 451.3828125 543.526367188 c 0
 445.999023438 522.559570312 441.749023438 505.841796875 438.6328125 493.375 c 0
 435.515625 480.908203125 431.407226562 463.05859375 426.307617188 439.825195312 c 0
 421.20703125 416.591796875 416.107421875 393.642578125 411.0078125 370.975585938 c 0
 402.5078125 330.7421875 390.465820312 280.591796875 374.8828125 220.525390625 c 0
 359.298828125 160.458007812 350.090820312 124.758789062 347.2578125 113.424804688 c 1
 370.491210938 113.424804688 396.840820312 113.283203125 426.30859375 113 c 0
 455.775390625 112.716796875 471.641601562 112.575195312 473.909179688 112.575195312 c 0
 486.375976562 112.575195312 494.30859375 109.600585938 497.708984375 103.650390625 c 0
 501.109375 97.7001953125 501.958984375 89.908203125 500.258789062 80.275390625 c 0
 499.125976562 75.1748046875 497.708984375 70.5 496.008789062 66.25 c 0
 494.30859375 62 491.758789062 57.75 488.359375 53.5 c 0
 484.958984375 49.25 480.567382812 46.1337890625 475.18359375 44.150390625 c 0
 469.80078125 42.1669921875 463.993164062 41.7421875 457.759765625 42.875 c 0x60
EndSplineSet
Validated: 524289
EndChar

StartChar: J
Encoding: 74 74 53
Width: 570
VWidth: 900
GlyphClass: 2
Flags: HMW
HStem: 20.8991 85.8509<276.816 283.05> 581.9 70.5491<262.083 283.9>
VStem: 129.2 74.3758 140.25 65.45
LayerCount: 2
Fore
SplineSet
416.498046875 233.399414062 m 0xe0
 400.630859375 182.399414062 384.908203125 141.032226562 369.325195312 109.298828125 c 0
 353.7421875 77.56640625 338.299804688 54.8994140625 323 41.298828125 c 0
 307.700195312 27.69921875 291.549804688 20.8994140625 274.549804688 20.8994140625 c 0
 256.416992188 20.8994140625 239.700195312 24.298828125 224.399414062 31.0986328125 c 0
 209.099609375 37.8994140625 196.208007812 46.9658203125 185.724609375 58.298828125 c 0
 175.2421875 69.6318359375 166.033203125 81.95703125 158.100585938 95.2744140625 c 0
 150.16796875 108.590820312 144.075195312 121.908203125 139.825195312 135.224609375 c 0
 135.575195312 148.541992188 132.600585938 160.44140625 130.900390625 170.924804688 c 0
 129.200195312 181.408203125 128.633789062 189.765625 129.200195312 195.999023438 c 0xe0
 129.200195312 201.098632812 130.333984375 207.19140625 132.600585938 214.274414062 c 0
 134.8671875 221.357421875 137.41796875 228.015625 140.250976562 234.248046875 c 0
 143.083984375 240.481445312 147.475585938 246.005859375 153.42578125 250.823242188 c 0
 159.375976562 255.640625 166.600585938 258.615234375 175.100585938 259.748046875 c 0
 178.123046875 260.297851562 180.9375 260.572265625 183.543945312 260.572265625 c 0
 191.6875 260.572265625 197.797851562 257.889648438 201.875976562 252.524414062 c 0
 205.40234375 247.8828125 207.166015625 242.452148438 207.166015625 236.229492188 c 0
 207.166015625 232.955078125 206.677734375 229.461914062 205.700195312 225.749023438 c 0xd0
 205.65625 225.5 203.534179688 213.521484375 203.534179688 200.549804688 c 0
 203.534179688 192.388671875 204.681640625 183.080078125 206.9765625 172.625 c 0
 209.526367188 161.0078125 213.493164062 150.3828125 218.875976562 140.75 c 0
 224.259765625 131.1171875 232.6171875 123.041992188 243.950195312 116.524414062 c 0
 255.283203125 110.0078125 268.883789062 106.75 284.750976562 106.75 c 0
 303.450195312 106.75 325.833984375 156.049804688 351.900390625 254.649414062 c 0
 354.733398438 267.1171875 363.375976562 307.06640625 377.825195312 374.5 c 0
 392.275390625 441.932617188 408.000976562 510.783203125 425.000976562 581.049804688 c 1
 389.981445312 582.0703125 357.206054688 582.580078125 326.674804688 582.580078125 c 0
 306.319335938 582.580078125 286.9609375 582.353515625 268.600585938 581.899414062 c 0
 255.567382812 581.899414062 246.217773438 585.016601562 240.55078125 591.25 c 0
 234.883789062 597.483398438 233.18359375 605.416015625 235.450195312 615.048828125 c 0
 237.150390625 625.249023438 242.392578125 634.032226562 251.17578125 641.399414062 c 0
 259.958984375 648.765625 270.8671875 652.44921875 283.899414062 652.44921875 c 0
 328.291992188 653.771484375 369.44140625 654.432617188 407.346679688 654.432617188 c 0
 483.151367188 654.432617188 545.984375 651.788085938 595.849609375 646.5 c 0
 615.140625 644.5703125 624.786132812 635.869140625 624.786132812 620.395507812 c 0
 624.786132812 617.6875 624.491210938 614.771484375 623.899414062 611.649414062 c 0
 622.766601562 606.548828125 620.924804688 601.590820312 618.375 596.774414062 c 0
 615.825195312 591.95703125 612.56640625 587.282226562 608.599609375 582.749023438 c 0
 604.6328125 578.215820312 599.815429688 574.673828125 594.149414062 572.124023438 c 0
 588.482421875 569.57421875 582.532226562 569.149414062 576.298828125 570.848632812 c 0
 558.732421875 573.681640625 530.96484375 576.232421875 492.998046875 578.499023438 c 1
 489.03125 562.06640625 483.7890625 537.1328125 477.272460938 503.700195312 c 0
 470.754882812 470.266601562 464.805664062 439.80859375 459.421875 412.326171875 c 0
 454.0390625 384.842773438 447.380859375 354.2421875 439.448242188 320.525390625 c 0
 431.514648438 286.80859375 423.865234375 257.766601562 416.498046875 233.399414062 c 0xe0
EndSplineSet
Validated: 524289
EndChar

StartChar: K
Encoding: 75 75 54
Width: 570
VWidth: 901
GlyphClass: 2
Flags: W
LayerCount: 2
Fore
SplineSet
190.575195312 72.375 m 0
 186.608398438 60.474609375 179.100585938 50.9814453125 168.05078125 43.8974609375 c 0
 157.8203125 37.33984375 147.466796875 34.060546875 136.993164062 34.060546875 c 0
 136.155273438 34.060546875 135.315429688 34.0810546875 134.475585938 34.1240234375 c 0
 123.708984375 34.1240234375 115.916992188 37.94921875 111.099609375 45.5986328125 c 0
 108.458007812 49.7939453125 107.137695312 54.8837890625 107.137695312 60.8681640625 c 0
 107.137695312 65.7958984375 108.033203125 71.33203125 109.825195312 77.4736328125 c 0
 117.19140625 102.407226562 128.80859375 150.1484375 144.67578125 220.69921875 c 0
 160.54296875 291.249023438 175.842773438 363.923828125 190.575195312 438.723632812 c 0
 197.942382812 474.990234375 203.04296875 499.499023438 205.875976562 512.249023438 c 0
 208.708984375 524.999023438 213.383789062 543.416015625 219.900390625 567.499023438 c 0
 226.41796875 591.58203125 230.525390625 606.740234375 232.225585938 612.97265625 c 0
 236.192382812 628.272460938 242.708984375 639.748046875 251.776367188 647.397460938 c 0
 260.84375 655.047851562 270.760742188 658.873046875 281.52734375 658.873046875 c 0
 282.409179688 658.915039062 283.274414062 658.935546875 284.124023438 658.935546875 c 0
 294.733398438 658.935546875 302.79296875 655.657226562 308.301757812 649.098632812 c 0
 312.087890625 644.591796875 313.981445312 638.419921875 313.981445312 630.584960938 c 0
 313.981445312 626.108398438 313.36328125 621.087890625 312.126953125 615.5234375 c 0
 309.293945312 601.923828125 301.926757812 572.173828125 290.02734375 526.2734375 c 0
 278.126953125 480.374023438 268.494140625 442.407226562 261.126953125 412.374023438 c 1
 284.926757812 432.20703125 320.626953125 462.240234375 368.227539062 502.47265625 c 0
 415.827148438 542.706054688 453.510742188 574.581054688 481.27734375 598.09765625 c 0
 509.043945312 621.615234375 526.89453125 636.20703125 534.827148438 641.874023438 c 0
 543.89453125 649.240234375 552.111328125 654.19921875 559.478515625 656.749023438 c 0
 566.844726562 659.298828125 572.936523438 659.865234375 577.75390625 658.44921875 c 0
 582.571289062 657.032226562 586.678710938 654.056640625 590.079101562 649.5234375 c 0
 593.088867188 644.840820312 594.59375 639.814453125 594.59375 634.44140625 c 0
 594.59375 621.606445312 586.005859375 606.80078125 568.829101562 590.0234375 c 0
 558.62890625 579.82421875 523.63671875 548.798828125 463.853515625 496.94921875 c 0
 404.071289062 445.098632812 351.228515625 399.907226562 305.329101562 361.374023438 c 1
 318.362304688 340.973632812 341.311523438 309.098632812 374.178710938 265.749023438 c 0
 407.045898438 222.3984375 435.520507812 184.291015625 459.603515625 151.423828125 c 0
 474.7109375 130.806640625 497.517578125 99.681640625 497.517578125 86.0107421875 c 0
 497.517578125 76.5908203125 495.36328125 68.0791015625 491.052734375 60.4736328125 c 0
 486.236328125 51.9736328125 480.14453125 45.45703125 472.77734375 40.923828125 c 0
 465.123046875 36.166015625 458.03515625 33.787109375 451.512695312 33.787109375 c 0
 440.170898438 33.787109375 430.541992188 40.982421875 422.625976562 55.375 c 0
 418.659179688 62.7412109375 404.3515625 82.2919921875 379.701171875 114.024414062 c 0
 355.051757812 145.7578125 328.41796875 180.75 299.801757812 219 c 0
 271.184570312 257.25 250.642578125 287.708007812 238.17578125 310.375 c 1
 233.92578125 293.375 l 2
 232.225585938 283.741210938 217.775390625 210.07421875 190.575195312 72.375 c 0
EndSplineSet
Validated: 524289
EndChar

StartChar: L
Encoding: 76 76 55
Width: 570
VWidth: 901
GlyphClass: 2
Flags: HMW
HStem: 44.1757 68.8525
LayerCount: 2
Fore
SplineSet
460.504882812 60.330078125 m 0
 423.104492188 52.962890625 367.577148438 47.576171875 293.91015625 44.17578125 c 0
 220.243164062 40.775390625 166.41015625 39.076171875 132.41015625 39.076171875 c 0
 121.642578125 39.076171875 113.850585938 42.900390625 109.034179688 50.55078125 c 0
 106.392578125 54.74609375 105.072265625 59.8359375 105.072265625 65.8203125 c 0
 105.072265625 70.748046875 105.967773438 76.2841796875 107.758789062 82.42578125 c 0
 108.891601562 86.958984375 119.375 119.400390625 139.208007812 179.750976562 c 0
 159.041015625 240.100585938 176.891601562 298.326171875 192.7578125 354.42578125 c 0
 200.125 379.92578125 211.174804688 426.67578125 225.908203125 494.67578125 c 0
 240.641601562 562.67578125 248.57421875 599.508789062 249.70703125 605.17578125 c 0
 253.673828125 620.475585938 260.33203125 632.092773438 269.682617188 640.025390625 c 0
 279.032226562 647.958984375 288.807617188 651.92578125 299.006835938 651.92578125 c 0
 299.888671875 651.967773438 300.755859375 651.989257812 301.606445312 651.989257812 c 0
 312.235351562 651.989257812 320.435546875 648.709960938 326.20703125 642.151367188 c 0
 330.016601562 637.823242188 331.920898438 631.9609375 331.920898438 624.563476562 c 0
 331.920898438 619.85546875 331.149414062 614.52734375 329.606445312 608.576171875 c 0
 325.639648438 592.143554688 319.97265625 569.760742188 312.60546875 541.427734375 c 0
 305.23828125 513.094726562 295.888671875 477.39453125 284.555664062 434.327148438 c 0
 273.22265625 391.260742188 263.58984375 353.860351562 255.65625 322.126953125 c 0
 249.423828125 298.327148438 239.365234375 263.760742188 225.482421875 218.427734375 c 0
 211.599609375 173.094726562 201.82421875 137.9609375 196.157226562 113.028320312 c 1
 200.001953125 112.979492188 203.90625 112.954101562 207.868164062 112.954101562 c 0
 249.461914062 112.954101562 297.549804688 115.670898438 352.131835938 121.103515625 c 0
 411.915039062 127.052734375 452.290039062 132.861328125 473.256835938 138.528320312 c 0
 480.057617188 140.228515625 485.724609375 139.9453125 490.256835938 137.677734375 c 0
 494.790039062 135.411132812 498.048828125 132.01171875 500.03125 127.478515625 c 0
 502.014648438 122.9453125 503.147460938 117.987304688 503.430664062 112.604492188 c 0
 503.713867188 107.220703125 503.571289062 102.262695312 503.004882812 97.7294921875 c 0
 500.73828125 87.5302734375 496.48828125 79.3125 490.254882812 73.080078125 c 0
 484.021484375 66.8466796875 474.104492188 62.5966796875 460.504882812 60.330078125 c 0
EndSplineSet
Validated: 524289
EndChar

StartChar: M
Encoding: 77 77 56
Width: 570
VWidth: 902
GlyphClass: 2
Flags: HMW
HStem: 43.5819 17.85G<113.238 118.338>
VStem: 257.735 82.4509 442.185 75.6509
LayerCount: 2
Fore
SplineSet
164.236328125 102.2265625 m 0
 160.836914062 84.09375 154.037109375 69.7900390625 143.837890625 59.306640625 c 0
 133.637695312 48.82421875 123.4375 43.58203125 113.237304688 43.58203125 c 0
 100.643554688 43.9638671875 94.3466796875 53.5986328125 94.3466796875 72.4853515625 c 0
 94.3466796875 81.642578125 95.826171875 92.974609375 98.787109375 106.482421875 c 0
 100.487304688 113.282226562 104.029296875 124.899414062 109.412109375 141.333007812 c 0
 114.795898438 157.765625 121.737304688 179.298828125 130.237304688 205.931640625 c 0
 138.737304688 232.564453125 146.104492188 255.797851562 152.337890625 275.630859375 c 0
 154.037109375 282.430664062 157.154296875 292.9140625 161.6875 307.081054688 c 0
 174.154296875 349.013671875 184.212890625 381.739257812 191.862304688 405.255859375 c 0
 199.512695312 428.7734375 209.004882812 458.09765625 220.337890625 493.231445312 c 0
 231.670898438 528.364257812 241.303710938 555.989257812 249.236328125 576.106445312 c 0
 257.169921875 596.22265625 263.969726562 610.248046875 269.63671875 618.180664062 c 0
 277.569335938 630.081054688 287.76953125 638.72265625 300.236328125 644.106445312 c 0
 310.53515625 648.552734375 319.868164062 650.776367188 328.232421875 650.776367188 c 0
 329.994140625 650.776367188 331.711914062 650.677734375 333.38671875 650.481445312 c 0
 357.186523438 650.481445312 369.086914062 639.998046875 369.086914062 619.03125 c 0
 369.137695312 616.763671875 369.1640625 614.361328125 369.1640625 611.82421875 c 0
 369.1640625 586.46484375 366.587890625 547.641601562 361.436523438 495.356445312 c 0
 355.76953125 437.838867188 348.40234375 372.247070312 339.3359375 298.580078125 c 0
 330.268554688 224.913085938 324.319335938 176.180664062 321.486328125 152.379882812 c 1
 345.286132812 232.280273438 367.953125 304.247070312 389.486328125 368.280273438 c 0
 404.786132812 415.313476562 422.069335938 462.629882812 441.3359375 510.23046875 c 0
 460.602539062 557.830078125 476.185546875 594.096679688 488.0859375 619.030273438 c 0
 492.052734375 627.530273438 498.002929688 634.471679688 505.935546875 639.85546875 c 0
 513.869140625 645.23828125 521.518554688 648.49609375 528.885742188 649.62890625 c 0
 536.252929688 650.762695312 543.3359375 651.045898438 550.135742188 650.478515625 c 2
 553.536132812 650.478515625 l 1
 564.161132812 650.478515625 l 2
 566.7109375 650.478515625 570.252929688 649.770507812 574.786132812 648.353515625 c 0
 579.319335938 646.936523438 582.861328125 645.094726562 585.411132812 642.828125 c 0
 587.9609375 640.560546875 590.0859375 637.018554688 591.786132812 632.202148438 c 0
 593.486328125 627.384765625 594.052734375 621.577148438 593.486328125 614.77734375 c 0
 591.786132812 597.77734375 578.752929688 514.759765625 554.385742188 365.7265625 c 0
 530.018554688 216.693359375 517.8359375 132.543945312 517.8359375 113.27734375 c 0
 517.268554688 79.27734375 506.501953125 57.744140625 485.53515625 48.6767578125 c 0
 480.354492188 46.60546875 475.499023438 45.568359375 470.969726562 45.568359375 c 0
 465.590820312 45.568359375 460.670898438 47.0302734375 456.209960938 49.9521484375 c 0
 447.993164062 55.3349609375 443.318359375 67.0927734375 442.184570312 85.2255859375 c 0
 442.1015625 86.6318359375 442.05859375 88.2138671875 442.05859375 89.9697265625 c 0
 442.05859375 135.625976562 470.434570312 299.51171875 527.184570312 581.626953125 c 1
 493.184570312 499.459960938 466.267578125 424.66015625 446.434570312 357.2265625 c 0
 426.6015625 292.626953125 405.91796875 231.28515625 384.384765625 173.202148438 c 0
 362.8515625 115.119140625 348.119140625 79.560546875 340.185546875 66.52734375 c 0
 331.119140625 52.927734375 314.685546875 46.1279296875 290.885742188 46.1279296875 c 0
 280.119140625 45.560546875 271.90234375 47.2607421875 266.235351562 51.2275390625 c 0
 260.568359375 55.1943359375 257.735351562 60.861328125 257.735351562 68.228515625 c 0
 257.735351562 95.4287109375 261.702148438 157.903320312 269.634765625 255.653320312 c 0
 277.568359375 353.403320312 285.78515625 447.045898438 294.28515625 536.578125 c 1
 275.16015625 475.37890625 l 2
 268.077148438 452.711914062 262.126953125 433.01953125 257.309570312 416.302734375 c 0
 252.493164062 399.5859375 245.268554688 374.793945312 235.634765625 341.926757812 c 0
 226.001953125 309.059570312 218.634765625 284.126953125 213.53515625 267.126953125 c 0
 206.735351562 243.327148438 199.368164062 218.818359375 191.434570312 193.6015625 c 0
 183.501953125 168.384765625 177.268554688 148.551757812 172.736328125 134.1015625 c 0
 168.203125 119.65234375 165.370117188 109.02734375 164.236328125 102.2265625 c 0
EndSplineSet
Validated: 524289
EndChar

StartChar: N
Encoding: 78 78 57
Width: 570
VWidth: 901
GlyphClass: 2
Flags: W
LayerCount: 2
Fore
SplineSet
428.729492188 39.916015625 m 0
 418.529296875 39.3486328125 410.731445312 41.1884765625 405.348632812 45.4384765625 c 0
 399.965820312 49.6884765625 396.708007812 55.49609375 395.57421875 62.86328125 c 0
 393.307617188 74.1962890625 386.365234375 99.1298828125 374.749023438 137.662109375 c 0
 363.131835938 176.1953125 351.231445312 216.287109375 339.048828125 257.9375 c 0
 326.865234375 299.587890625 314.682617188 346.1953125 302.5 397.762695312 c 0
 290.31640625 449.329101562 282.524414062 493.24609375 279.125 529.513671875 c 1
 267.791992188 467.74609375 255.608398438 410.229492188 242.575195312 356.962890625 c 0
 229.541992188 303.6953125 215.80078125 249.4375 201.350585938 194.1875 c 0
 186.900390625 138.9375 178.541992188 105.362304688 176.275390625 93.462890625 c 0
 172.875 75.3291015625 166.5 62.0126953125 157.150390625 53.5126953125 c 0
 148.384765625 45.5439453125 138.997070312 41.5595703125 128.986328125 41.5595703125 c 0
 128.319335938 41.5595703125 127.6484375 41.5771484375 126.975585938 41.6123046875 c 0
 116.208007812 41.6123046875 109.975585938 46.4296875 108.275390625 56.0625 c 0
 107.765625 58.953125 107.509765625 62.2509765625 107.509765625 65.95703125 c 0
 107.509765625 74.603515625 108.8984375 85.47265625 111.67578125 98.5625 c 0
 113.942382812 109.895507812 124.708984375 153.8125 143.9765625 230.3125 c 0
 163.243164062 306.8125 179.959960938 373.6796875 194.126953125 430.912109375 c 0
 208.293945312 488.145507812 220.477539062 543.112304688 230.676757812 595.8125 c 0
 232.376953125 607.145507812 235.77734375 616.778320312 240.876953125 624.711914062 c 0
 245.977539062 632.64453125 251.926757812 638.453125 258.727539062 642.135742188 c 0
 265.52734375 645.819335938 272.327148438 648.369140625 279.126953125 649.786132812 c 0
 285.926757812 651.203125 292.444335938 651.344726562 298.676757812 650.211914062 c 0
 321.91015625 650.211914062 334.092773438 639.728515625 335.2265625 618.76171875 c 0
 337.493164062 581.361328125 352.084960938 512.51171875 379.001953125 412.211914062 c 0
 405.918945312 311.912109375 429.577148438 230.87890625 449.977539062 169.111328125 c 1
 464.143554688 222.37890625 482.560546875 299.870117188 505.227539062 401.587890625 c 0
 527.89453125 503.3046875 540.927734375 570.3125 544.328125 602.612304688 c 0
 546.028320312 616.212890625 551.26953125 627.6875 560.052734375 637.037109375 c 0
 568.8359375 646.387695312 578.328125 651.0625 588.528320312 651.0625 c 0
 594.1953125 651.0625 599.01171875 650.354492188 602.978515625 648.9375 c 0
 606.9453125 647.520507812 609.920898438 645.8203125 611.903320312 643.837890625 c 0
 613.88671875 641.854492188 615.162109375 638.596679688 615.728515625 634.063476562 c 0
 616.295898438 629.530273438 616.4375 625.421875 616.154296875 621.739257812 c 0
 615.87109375 618.055664062 615.446289062 612.248046875 614.879882812 604.315429688 c 0
 614.3125 595.248046875 604.6796875 549.7734375 585.979492188 467.889648438 c 0
 567.279296875 386.006835938 546.737304688 301.1484375 524.354492188 213.315429688 c 0
 501.971679688 125.482421875 486.24609375 74.765625 477.1796875 61.166015625 c 0
 468.6796875 46.9990234375 452.529296875 39.916015625 428.729492188 39.916015625 c 0
EndSplineSet
Validated: 524289
EndChar

StartChar: O
Encoding: 79 79 58
Width: 570
VWidth: 902
GlyphClass: 2
Flags: HMW
HStem: 31.6499 71.3983<273.809 274.663> 593.497 68.8509<434.461 444.377>
LayerCount: 2
Fore
SplineSet
263.895507812 31.6494140625 m 0
 231.595703125 32.216796875 204.958984375 42.83984375 183.9921875 63.5234375 c 0
 163.025390625 84.2060546875 149.567382812 111.973632812 143.6171875 146.823242188 c 0
 141.424804688 159.663085938 140.329101562 172.944335938 140.329101562 186.668945312 c 0
 140.329101562 210.1953125 143.549804688 235.021484375 149.9921875 261.1484375 c 0
 150.559570312 263.981445312 151.692382812 268.797851562 153.392578125 275.598632812 c 0
 159.059570312 301.098632812 163.875976562 321.498046875 167.842773438 336.797851562 c 0
 171.810546875 352.098632812 177.618164062 372.498046875 185.268554688 397.998046875 c 0
 192.91796875 423.498046875 201.560546875 447.723632812 211.193359375 470.672851562 c 0
 220.826171875 493.623046875 231.592773438 515.297851562 243.493164062 535.698242188 c 0
 265.592773438 572.53125 296.05078125 602.848632812 334.868164062 626.6484375 c 0
 373.685546875 650.448242188 413.77734375 662.348632812 455.143554688 662.348632812 c 0
 476.111328125 662.348632812 495.377929688 657.956054688 512.944335938 649.172851562 c 0
 530.51171875 640.389648438 545.103515625 627.782226562 556.720703125 611.348632812 c 0
 568.337890625 594.916015625 576.270507812 573.94921875 580.520507812 548.44921875 c 0
 582.577148438 536.110351562 583.60546875 523.041992188 583.60546875 509.244140625 c 0
 583.60546875 494.526367188 582.435546875 478.977539062 580.095703125 462.598632812 c 0
 575.5625 434.265625 569.754882812 403.94921875 562.671875 371.649414062 c 0
 555.588867188 339.348632812 547.088867188 306.624023438 537.171875 273.473632812 c 0
 527.254882812 240.32421875 517.762695312 214.116210938 508.6953125 194.848632812 c 0
 496.228515625 168.215820312 482.62890625 145.265625 467.895507812 125.999023438 c 0
 453.162109375 106.732421875 438.287109375 91.0068359375 423.270507812 78.82421875 c 0
 408.25390625 66.640625 391.961914062 57.0078125 374.39453125 49.9248046875 c 0
 356.828125 42.841796875 339.403320312 38.0244140625 322.120117188 35.474609375 c 0
 304.836914062 32.9248046875 285.428710938 31.6494140625 263.895507812 31.6494140625 c 0
280.041992188 103.047851562 m 0
 294.208984375 103.047851562 308.375976562 104.889648438 322.54296875 108.573242188 c 0
 336.709960938 112.255859375 350.592773438 118.206054688 364.193359375 126.422851562 c 0
 377.79296875 134.640625 390.967773438 145.547851562 403.717773438 159.1484375 c 0
 416.467773438 172.748046875 427.375976562 188.615234375 436.443359375 206.748046875 c 0
 439.842773438 214.115234375 445.935546875 231.115234375 454.717773438 257.748046875 c 0
 463.500976562 284.380859375 472.708984375 316.114257812 482.342773438 352.947265625 c 0
 491.975585938 389.780273438 499.625 426.046875 505.291992188 461.747070312 c 0
 506.934570312 472.587890625 507.755859375 482.91796875 507.755859375 492.735351562 c 0
 507.755859375 516.786132812 502.827148438 537.764648438 492.967773438 555.671875 c 0
 479.084960938 580.889648438 458.259765625 593.497070312 430.493164062 593.497070312 c 0
 402.16015625 593.497070312 375.810546875 582.305664062 351.443359375 559.921875 c 0
 327.076171875 537.5390625 305.826171875 506.231445312 287.693359375 465.998046875 c 0
 263.326171875 412.165039062 244.059570312 348.415039062 229.892578125 274.748046875 c 0
 226.4921875 256.615234375 224.083984375 239.8984375 222.666992188 224.598632812 c 0
 221.78125 215.036132812 221.338867188 205.473632812 221.338867188 195.912109375 c 0
 221.338867188 190.173828125 221.499023438 184.436523438 221.817382812 178.698242188 c 0
 222.666992188 163.3984375 225.075195312 150.223632812 229.041992188 139.172851562 c 0
 233.008789062 128.123046875 239.383789062 119.33984375 248.166992188 112.823242188 c 0
 256.950195312 106.306640625 267.575195312 103.047851562 280.041992188 103.047851562 c 0
EndSplineSet
Validated: 524289
EndChar

StartChar: P
Encoding: 80 80 59
Width: 570
VWidth: 901
GlyphClass: 2
Flags: HMW
HStem: 247.395 69.7<324.062 331.712 324.062 345.878> 587.397 68.8483<405.944 449.011>
LayerCount: 2
Fore
SplineSet
205.913085938 72.2939453125 m 0
 203.646484375 60.39453125 196.985351562 51.1884765625 185.934570312 44.671875 c 0
 175.76953125 38.67578125 165.483398438 35.6787109375 155.078125 35.6787109375 c 0
 154.172851562 35.6787109375 153.267578125 35.701171875 152.360351562 35.7470703125 c 0
 141.02734375 35.7470703125 132.668945312 39.2890625 127.286132812 46.3720703125 c 0
 124.364257812 50.216796875 122.90234375 55.0224609375 122.90234375 60.7880859375 c 0
 122.90234375 65.6435546875 123.939453125 71.1796875 126.010742188 77.396484375 c 0
 128.27734375 86.4638671875 131.677734375 99.921875 136.2109375 117.771484375 c 0
 140.744140625 135.622070312 145.84375 157.721679688 151.510742188 184.072265625 c 0
 157.177734375 210.421875 162.560546875 235.921875 167.661132812 260.572265625 c 0
 172.760742188 285.221679688 178.994140625 315.396484375 186.361328125 351.096679688 c 0
 193.727539062 386.796875 199.9609375 416.546875 205.060546875 440.346679688 c 0
 212.994140625 477.1796875 224.611328125 525.913085938 239.911132812 586.545898438 c 1
 236.510742188 590.795898438 l 2
 234.244140625 597.595703125 234.52734375 604.538085938 237.360351562 611.62109375 c 0
 240.193359375 618.704101562 244.443359375 625.079101562 250.110351562 630.74609375 c 0
 255.77734375 636.413085938 261.444335938 639.8125 267.111328125 640.946289062 c 0
 287.510742188 645.479492188 316.411132812 649.162109375 353.810546875 651.995117188 c 0
 391.2109375 654.828125 416.994140625 656.245117188 431.161132812 656.245117188 c 0
 466.861328125 656.245117188 497.177734375 649.4453125 522.111328125 635.844726562 c 0
 547.043945312 622.245117188 564.611328125 601.703125 574.810546875 574.219726562 c 0
 580.548828125 558.760742188 583.416992188 541.642578125 583.416992188 522.8671875 c 0
 583.416992188 508.262695312 581.681640625 492.65625 578.2109375 476.044921875 c 0
 570.84375 444.3125 559.0859375 414.419921875 542.935546875 386.370117188 c 0
 526.786132812 358.3203125 508.0859375 334.094726562 486.8359375 313.6953125 c 0
 465.5859375 293.294921875 441.502929688 277.145507812 414.5859375 265.245117188 c 0
 387.668945312 253.344726562 360.043945312 247.395507812 331.7109375 247.395507812 c 0
 290.34375 247.395507812 258.611328125 250.51171875 236.510742188 256.745117188 c 1
 231.977539062 232.9453125 227.870117188 210.13671875 224.186523438 188.3203125 c 0
 220.50390625 166.502929688 216.8203125 143.8359375 213.137695312 120.319335938 c 0
 209.454101562 96.802734375 207.046875 80.7939453125 205.913085938 72.2939453125 c 0
415.009765625 587.396484375 m 0
 396.876953125 587.396484375 363.16015625 585.127929688 313.860351562 580.594726562 c 1
 311.02734375 569.26171875 305.643554688 548.294921875 297.7109375 517.6953125 c 0
 289.77734375 487.094726562 281.844726562 455.645507812 273.912109375 423.344726562 c 0
 265.978515625 391.044921875 258.611328125 359.594726562 251.811523438 328.995117188 c 1
 269.874023438 321.026367188 292.168945312 317.041992188 318.697265625 317.041992188 c 0
 320.466796875 317.041992188 322.254882812 317.059570312 324.061523438 317.094726562 c 0
 339.361328125 317.094726562 353.528320312 318.228515625 366.561523438 320.495117188 c 0
 379.594726562 322.76171875 391.211914062 325.87890625 401.412109375 329.845703125 c 0
 411.611328125 333.8125 421.245117188 339.0546875 430.311523438 345.572265625 c 0
 439.37890625 352.088867188 447.028320312 358.60546875 453.26171875 365.123046875 c 0
 459.495117188 371.639648438 465.302734375 379.290039062 470.685546875 388.072265625 c 0
 476.069335938 396.85546875 480.4609375 404.7890625 483.861328125 411.872070312 c 0
 487.260742188 418.955078125 490.518554688 427.171875 493.635742188 436.521484375 c 0
 496.752929688 445.872070312 499.161132812 453.521484375 500.861328125 459.471679688 c 0
 502.560546875 465.421875 504.543945312 472.646484375 506.810546875 481.146484375 c 0
 508.8515625 490.666992188 509.87109375 499.625976562 509.87109375 508.0234375 c 0
 509.87109375 513.623046875 509.416992188 518.971679688 508.510742188 524.072265625 c 0
 506.244140625 536.822265625 501.8515625 547.021484375 495.334960938 554.671875 c 0
 488.818359375 562.322265625 480.884765625 568.697265625 471.53515625 573.796875 c 0
 462.184570312 578.896484375 452.693359375 582.438476562 443.059570312 584.421875 c 0
 433.426757812 586.405273438 424.077148438 587.396484375 415.009765625 587.396484375 c 0
EndSplineSet
Validated: 524289
EndChar

